999
dxflib 3.17.0.0
  0
SECTION
  2
HEADER
  9
$ACADVER
  1
AC1015
  9
$HANDSEED
  5
FFFF
  9
$DIMADEC
 70
0
  9
$DIMASZ
 40
2.5
  9
$DIMAUNIT
 70
0
  9
$DIMAZIN
 70
2
  9
$DIMDEC
 70
4
  9
$DIMDLI
 40
5.0
  9
$DIMDSEP
 70
46
  9
$DIMEXE
 40
1.25
  9
$DIMEXO
 40
0.625
  9
$DIMGAP
 40
0.625
  9
$DIMLUNIT
 70
2
  9
$DIMSCALE
 40
1.0
  9
$DIMTSZ
 40
0.0
  9
$DIMTXT
 40
2.5
  9
$DIMZIN
 70
8
  9
$DWGCODEPAGE
  3
ANSI_1252
  9
$INSUNITS
 70
4
  9
$LTSCALE
 40
1.0
  9
$MAXACTVP
 70
64
  9
$MEASUREMENT
 70
1
  9
$PDMODE
 70
0
  9
$PDSIZE
 40
0.0
  0
ENDSEC
  0
SECTION
  2
TABLES
  0
TABLE
  2
VPORT
  5
8
100
AcDbSymbolTable
 70
1
  0
VPORT
  5
30
100
AcDbSymbolTableRecord
100
AcDbViewportTableRecord
  2
*Active
 70
0
 10
0.0
 20
0.0
 11
1.0
 21
1.0
 12
286.30555555555549
 22
148.5
 13
0.0
 23
0.0
 14
10.0
 24
10.0
 15
10.0
 25
10.0
 16
0.0
 26
0.0
 36
1.0
 17
0.0
 27
0.0
 37
0.0
 40
297.0
 41
1.92798353909465
 42
50.0
 43
0.0
 44
0.0
 50
0.0
 51
0.0
 71
0
 72
100
 73
1
 74
3
 75
1
 76
1
 77
0
 78
0
281
0
 65
1
110
0.0
120
0.0
130
0.0
111
1.0
121
0.0
131
0.0
112
0.0
122
1.0
132
0.0
 79
0
146
0.0
  0
ENDTAB
  0
TABLE
  2
LTYPE
  5
5
100
AcDbSymbolTable
 70
41
  0
LTYPE
  5
16
100
AcDbSymbolTableRecord
100
AcDbLinetypeTableRecord
  2
Continuous
 70
0
  3
Solid line
 72
65
 73
0
 40
0.0
  0
LTYPE
  5
31
100
AcDbSymbolTableRecord
100
AcDbLinetypeTableRecord
  2
ACAD_ISO13W100
 70
0
  3
ISO double-dash double-dot __ __ . . __ __ . . _
 72
65
 73
8
 40
36.0
 49
12.0
 74
0
 49
-3.0
 74
0
 49
12.0
 74
0
 49
-3.0
 74
0
 49
0.0
 74
0
 49
-3.0
 74
0
 49
0.0
 74
0
 49
-3.0
 74
0
  0
LTYPE
  5
32
100
AcDbSymbolTableRecord
100
AcDbLinetypeTableRecord
  2
CENTERX2
 70
0
  3
Center (2x) ________  __  ________  __  _____
 72
65
 73
4
 40
101.60000000000001
 49
63.5
 74
0
 49
-12.699999999999999
 74
0
 49
12.699999999999999
 74
0
 49
-12.699999999999999
 74
0
  0
LTYPE
  5
33
100
AcDbSymbolTableRecord
100
AcDbLinetypeTableRecord
  2
DASHDOT2
 70
0
  3
Dash dot (.5x) _._._._._._._._._._._._._._._.
 72
65
 73
4
 40
12.699999999999999
 49
6.3499999999999996
 74
0
 49
-3.1749999999999998
 74
0
 49
0.0
 74
0
 49
-3.1749999999999998
 74
0
  0
LTYPE
  5
34
100
AcDbSymbolTableRecord
100
AcDbLinetypeTableRecord
  2
PHANTOM2
 70
0
  3
Phantom (.5x) ___ _ _ ___ _ _ ___ _ _ ___ _ _
 72
65
 73
6
 40
31.750000000000004
 49
15.875
 74
0
 49
-3.1749999999999998
 74
0
 49
3.1749999999999998
 74
0
 49
-3.1749999999999998
 74
0
 49
3.1749999999999998
 74
0
 49
-3.1749999999999998
 74
0
  0
LTYPE
  5
35
100
AcDbSymbolTableRecord
100
AcDbLinetypeTableRecord
  2
ACAD_ISO02W100
 70
0
  3
ISO dash __ __ __ __ __ __ __ __ __ __ __ __ __
 72
65
 73
2
 40
15.0
 49
12.0
 74
0
 49
-3.0
 74
0
  0
LTYPE
  5
36
100
AcDbSymbolTableRecord
100
AcDbLinetypeTableRecord
  2
ACAD_ISO15W100
 70
0
  3
ISO double-dash triple-dot __ __ . . . __ __ . .
 72
65
 73
10
 40
39.0
 49
12.0
 74
0
 49
-3.0
 74
0
 49
12.0
 74
0
 49
-3.0
 74
0
 49
0.0
 74
0
 49
-3.0
 74
0
 49
0.0
 74
0
 49
-3.0
 74
0
 49
0.0
 74
0
 49
-3.0
 74
0
  0
LTYPE
  5
15
100
AcDbSymbolTableRecord
100
AcDbLinetypeTableRecord
  2
BYLAYER
 70
0
  3

 72
65
 73
0
 40
0.0
  0
LTYPE
  5
37
100
AcDbSymbolTableRecord
100
AcDbLinetypeTableRecord
  2
HIDDENX2
 70
0
  3
Hidden (2x) ____ ____ ____ ____ ____ ____ ____ 
 72
65
 73
2
 40
19.049999999999997
 49
12.699999999999999
 74
0
 49
-6.3499999999999996
 74
0
  0
LTYPE
  5
38
100
AcDbSymbolTableRecord
100
AcDbLinetypeTableRecord
  2
CENTER
 70
0
  3
Center ____ _ ____ _ ____ _ ____ _ ____ _ ____
 72
65
 73
4
 40
50.800000000000004
 49
31.75
 74
0
 49
-6.3499999999999996
 74
0
 49
6.3499999999999996
 74
0
 49
-6.3499999999999996
 74
0
  0
LTYPE
  5
39
100
AcDbSymbolTableRecord
100
AcDbLinetypeTableRecord
  2
CENTER2
 70
0
  3
Center (.5x) ___ _ ___ _ ___ _ ___ _ ___ _ ___
 72
65
 73
4
 40
28.575000000000003
 49
19.050000000000001
 74
0
 49
-3.1749999999999998
 74
0
 49
3.1749999999999998
 74
0
 49
-3.1749999999999998
 74
0
  0
LTYPE
  5
3A
100
AcDbSymbolTableRecord
100
AcDbLinetypeTableRecord
  2
ACAD_ISO09W100
 70
0
  3
ISO long-dash double-short-dash ____ __ __ ____
 72
65
 73
6
 40
45.0
 49
24.0
 74
0
 49
-3.0
 74
0
 49
6.0
 74
0
 49
-3.0
 74
0
 49
6.0
 74
0
 49
-3.0
 74
0
  0
LTYPE
  5
3B
100
AcDbSymbolTableRecord
100
AcDbLinetypeTableRecord
  2
HIDDEN2
 70
0
  3
Hidden (.5x) _ _ _ _ _ _ _ _ _ _ _ _ _ _ _ _ _ 
 72
65
 73
2
 40
4.7624999999999993
 49
3.1749999999999998
 74
0
 49
-1.5874999999999999
 74
0
  0
LTYPE
  5
3C
100
AcDbSymbolTableRecord
100
AcDbLinetypeTableRecord
  2
DOT
 70
0
  3
Dot . . . . . . . . . . . . . . . . . . . . . . . .
 72
65
 73
2
 40
6.3499999999999996
 49
0.0
 74
0
 49
-6.3499999999999996
 74
0
  0
LTYPE
  5
3D
100
AcDbSymbolTableRecord
100
AcDbLinetypeTableRecord
  2
ACAD_ISO10W100
 70
0
  3
ISO dash dot __ . __ . __ . __ . __ . __ . __ . 
 72
65
 73
4
 40
18.0
 49
12.0
 74
0
 49
-3.0
 74
0
 49
0.0
 74
0
 49
-3.0
 74
0
  0
LTYPE
  5
3E
100
AcDbSymbolTableRecord
100
AcDbLinetypeTableRecord
  2
DIVIDEX2
 70
0
  3
Divide (2x) ________  .  .  ________  .  .  _
 72
65
 73
6
 40
63.5
 49
25.399999999999999
 74
0
 49
-12.699999999999999
 74
0
 49
0.0
 74
0
 49
-12.699999999999999
 74
0
 49
0.0
 74
0
 49
-12.699999999999999
 74
0
  0
LTYPE
  5
3F
100
AcDbSymbolTableRecord
100
AcDbLinetypeTableRecord
  2
ACAD_ISO03W100
 70
0
  3
ISO dash space __    __    __    __    __    __
 72
65
 73
2
 40
30.0
 49
12.0
 74
0
 49
-18.0
 74
0
  0
LTYPE
  5
40
100
AcDbSymbolTableRecord
100
AcDbLinetypeTableRecord
  2
DOTX2
 70
0
  3
Dot (2x) .  .  .  .  .  .  .  .  .  .  .  .  .  .
 72
65
 73
2
 40
12.699999999999999
 49
0.0
 74
0
 49
-12.699999999999999
 74
0
  0
LTYPE
  5
41
100
AcDbSymbolTableRecord
100
AcDbLinetypeTableRecord
  2
HIDDEN
 70
0
  3
Hidden __ __ __ __ __ __ __ __ __ __ __ __ __ __
 72
65
 73
2
 40
9.5249999999999986
 49
6.3499999999999996
 74
0
 49
-3.1749999999999998
 74
0
  0
LTYPE
  5
42
100
AcDbSymbolTableRecord
100
AcDbLinetypeTableRecord
  2
ACAD_ISO04W100
 70
0
  3
ISO long-dash dot ____ . ____ . ____ . ____ . _
 72
65
 73
4
 40
30.0
 49
24.0
 74
0
 49
-3.0
 74
0
 49
0.0
 74
0
 49
-3.0
 74
0
  0
LTYPE
  5
14
100
AcDbSymbolTableRecord
100
AcDbLinetypeTableRecord
  2
BYBLOCK
 70
0
  3

 72
65
 73
0
 40
0.0
  0
LTYPE
  5
43
100
AcDbSymbolTableRecord
100
AcDbLinetypeTableRecord
  2
BORDER
 70
0
  3
Border __ __ . __ __ . __ __ . __ __ . __ __ .
 72
65
 73
6
 40
44.449999999999996
 49
12.699999999999999
 74
0
 49
-6.3499999999999996
 74
0
 49
12.699999999999999
 74
0
 49
-6.3499999999999996
 74
0
 49
0.0
 74
0
 49
-6.3499999999999996
 74
0
  0
LTYPE
  5
44
100
AcDbSymbolTableRecord
100
AcDbLinetypeTableRecord
  2
ACAD_ISO07W100
 70
0
  3
ISO dot . . . . . . . . . . . . . . . . . . . . 
 72
65
 73
2
 40
3.0
 49
0.0
 74
0
 49
-3.0
 74
0
  0
LTYPE
  5
45
100
AcDbSymbolTableRecord
100
AcDbLinetypeTableRecord
  2
DASHDOTX2
 70
0
  3
Dash dot (2x) ____  .  ____  .  ____  .  ___
 72
65
 73
4
 40
50.799999999999997
 49
25.399999999999999
 74
0
 49
-12.699999999999999
 74
0
 49
0.0
 74
0
 49
-12.699999999999999
 74
0
  0
LTYPE
  5
46
100
AcDbSymbolTableRecord
100
AcDbLinetypeTableRecord
  2
ACAD_ISO06W100
 70
0
  3
ISO long-dash triple-dot ____ ... ____ ... ____
 72
65
 73
8
 40
36.0
 49
24.0
 74
0
 49
-3.0
 74
0
 49
0.0
 74
0
 49
-3.0
 74
0
 49
0.0
 74
0
 49
-3.0
 74
0
 49
0.0
 74
0
 49
-3.0
 74
0
  0
LTYPE
  5
47
100
AcDbSymbolTableRecord
100
AcDbLinetypeTableRecord
  2
DASHED2
 70
0
  3
Dashed (.5x) _ _ _ _ _ _ _ _ _ _ _ _ _ _ _ _ _ 
 72
65
 73
2
 40
9.5249999999999986
 49
6.3499999999999996
 74
0
 49
-3.1749999999999998
 74
0
  0
LTYPE
  5
48
100
AcDbSymbolTableRecord
100
AcDbLinetypeTableRecord
  2
BORDER2
 70
0
  3
Border (.5x) __.__.__.__.__.__.__.__.__.__.__.
 72
65
 73
6
 40
22.224999999999998
 49
6.3499999999999996
 74
0
 49
-3.1749999999999998
 74
0
 49
6.3499999999999996
 74
0
 49
-3.1749999999999998
 74
0
 49
0.0
 74
0
 49
-3.1749999999999998
 74
0
  0
LTYPE
  5
49
100
AcDbSymbolTableRecord
100
AcDbLinetypeTableRecord
  2
DIVIDE2
 70
0
  3
Divide (.5x) __..__..__..__..__..__..__..__.._
 72
65
 73
6
 40
15.875
 49
6.3499999999999996
 74
0
 49
-3.1749999999999998
 74
0
 49
0.0
 74
0
 49
-3.1749999999999998
 74
0
 49
0.0
 74
0
 49
-3.1749999999999998
 74
0
  0
LTYPE
  5
4A
100
AcDbSymbolTableRecord
100
AcDbLinetypeTableRecord
  2
DASHEDX2
 70
0
  3
Dashed (2x) ____  ____  ____  ____  ____  ___
 72
65
 73
2
 40
38.099999999999994
 49
25.399999999999999
 74
0
 49
-12.699999999999999
 74
0
  0
LTYPE
  5
4B
100
AcDbSymbolTableRecord
100
AcDbLinetypeTableRecord
  2
ACAD_ISO11W100
 70
0
  3
ISO double-dash dot __ __ . __ __ . __ __ . __ _
 72
65
 73
6
 40
33.0
 49
12.0
 74
0
 49
-3.0
 74
0
 49
12.0
 74
0
 49
-3.0
 74
0
 49
0.0
 74
0
 49
-3.0
 74
0
  0
LTYPE
  5
4C
100
AcDbSymbolTableRecord
100
AcDbLinetypeTableRecord
  2
ACAD_ISO12W100
 70
0
  3
ISO dash double-dot __ . . __ . . __ . . __ . . 
 72
65
 73
6
 40
21.0
 49
12.0
 74
0
 49
-3.0
 74
0
 49
0.0
 74
0
 49
-3.0
 74
0
 49
0.0
 74
0
 49
-3.0
 74
0
  0
LTYPE
  5
4D
100
AcDbSymbolTableRecord
100
AcDbLinetypeTableRecord
  2
DASHED
 70
0
  3
Dashed __ __ __ __ __ __ __ __ __ __ __ __ __ _
 72
65
 73
2
 40
19.049999999999997
 49
12.699999999999999
 74
0
 49
-6.3499999999999996
 74
0
  0
LTYPE
  5
4E
100
AcDbSymbolTableRecord
100
AcDbLinetypeTableRecord
  2
PHANTOM
 70
0
  3
Phantom ______  __  __  ______  __  __  ______ 
 72
65
 73
6
 40
63.500000000000007
 49
31.75
 74
0
 49
-6.3499999999999996
 74
0
 49
6.3499999999999996
 74
0
 49
-6.3499999999999996
 74
0
 49
6.3499999999999996
 74
0
 49
-6.3499999999999996
 74
0
  0
LTYPE
  5
4F
100
AcDbSymbolTableRecord
100
AcDbLinetypeTableRecord
  2
ACAD_ISO08W100
 70
0
  3
ISO long-dash short-dash ____ __ ____ __ ____ _
 72
65
 73
4
 40
36.0
 49
24.0
 74
0
 49
-3.0
 74
0
 49
6.0
 74
0
 49
-3.0
 74
0
  0
LTYPE
  5
50
100
AcDbSymbolTableRecord
100
AcDbLinetypeTableRecord
  2
DOT2
 70
0
  3
Dot (.5x) ........................................
 72
65
 73
2
 40
3.1749999999999998
 49
0.0
 74
0
 49
-3.1749999999999998
 74
0
  0
LTYPE
  5
51
100
AcDbSymbolTableRecord
100
AcDbLinetypeTableRecord
  2
DIVIDE
 70
0
  3
Divide ____ . . ____ . . ____ . . ____ . . ____
 72
65
 73
6
 40
31.75
 49
12.699999999999999
 74
0
 49
-6.3499999999999996
 74
0
 49
0.0
 74
0
 49
-6.3499999999999996
 74
0
 49
0.0
 74
0
 49
-6.3499999999999996
 74
0
  0
LTYPE
  5
52
100
AcDbSymbolTableRecord
100
AcDbLinetypeTableRecord
  2
PHANTOMX2
 70
0
  3
Phantom (2x) ____________    ____    ____   _
 72
65
 73
6
 40
127.00000000000001
 49
63.5
 74
0
 49
-12.699999999999999
 74
0
 49
12.699999999999999
 74
0
 49
-12.699999999999999
 74
0
 49
12.699999999999999
 74
0
 49
-12.699999999999999
 74
0
  0
LTYPE
  5
53
100
AcDbSymbolTableRecord
100
AcDbLinetypeTableRecord
  2
ACAD_ISO05W100
 70
0
  3
ISO long-dash double-dot ____ .. ____ .. ____ . 
 72
65
 73
6
 40
33.0
 49
24.0
 74
0
 49
-3.0
 74
0
 49
0.0
 74
0
 49
-3.0
 74
0
 49
0.0
 74
0
 49
-3.0
 74
0
  0
LTYPE
  5
54
100
AcDbSymbolTableRecord
100
AcDbLinetypeTableRecord
  2
ACAD_ISO14W100
 70
0
  3
ISO dash triple-dot __ . . . __ . . . __ . . . _
 72
65
 73
8
 40
24.0
 49
12.0
 74
0
 49
-3.0
 74
0
 49
0.0
 74
0
 49
-3.0
 74
0
 49
0.0
 74
0
 49
-3.0
 74
0
 49
0.0
 74
0
 49
-3.0
 74
0
  0
LTYPE
  5
55
100
AcDbSymbolTableRecord
100
AcDbLinetypeTableRecord
  2
DASHDOT
 70
0
  3
Dash dot __ . __ . __ . __ . __ . __ . __ . __
 72
65
 73
4
 40
25.399999999999999
 49
12.699999999999999
 74
0
 49
-6.3499999999999996
 74
0
 49
0.0
 74
0
 49
-6.3499999999999996
 74
0
  0
LTYPE
  5
56
100
AcDbSymbolTableRecord
100
AcDbLinetypeTableRecord
  2
BORDERX2
 70
0
  3
Border (2x) ____  ____  .  ____  ____  .  ___
 72
65
 73
6
 40
88.899999999999991
 49
25.399999999999999
 74
0
 49
-12.699999999999999
 74
0
 49
25.399999999999999
 74
0
 49
-12.699999999999999
 74
0
 49
0.0
 74
0
 49
-12.699999999999999
 74
0
  0
ENDTAB
  0
TABLE
  2
LAYER
  5
2
100
AcDbSymbolTable
 70
2
  0
LAYER
  5
57
100
AcDbSymbolTableRecord
100
AcDbLayerTableRecord
  2
Fix
 70
0
 62
5
420
255
  6
Continuous
370
25
390
F
  0
LAYER
  5
10
100
AcDbSymbolTableRecord
100
AcDbLayerTableRecord
  2
0
 70
0
 62
7
420
0
  6
Continuous
370
25
390
F
  0
ENDTAB
  0
TABLE
  2
STYLE
  5
3
100
AcDbSymbolTable
 70
1
  0
STYLE
  5
58
100
AcDbSymbolTableRecord
100
AcDbTextStyleTableRecord
  2
Standard
 70
0
 40
0.0
 41
1.0
 50
0.0
 71
0
 42
2.5
  3

  4

1001
ACAD
1000
txt
1071
0
  0
ENDTAB
  0
TABLE
  2
VIEW
  5
6
100
AcDbSymbolTable
 70
0
  0
ENDTAB
  0
TABLE
  2
UCS
  5
7
100
AcDbSymbolTable
 70
0
  0
ENDTAB
  0
TABLE
  2
APPID
  5
9
100
AcDbSymbolTable
 70
1
  0
APPID
  5
12
100
AcDbSymbolTableRecord
100
AcDbRegAppTableRecord
  2
ACAD
 70
0
  0
APPID
  5
59
100
AcDbSymbolTableRecord
100
AcDbRegAppTableRecord
  2
QCAD
 70
0
  0
ENDTAB
  0
TABLE
  2
DIMSTYLE
  5
A
100
AcDbSymbolTable
 70
1
100
AcDbDimStyleTable
 71
0
  0
DIMSTYLE
105
27
100
AcDbSymbolTableRecord
100
AcDbDimStyleTableRecord
  2
Standard
 41
2.5
 42
0.625
 43
3.75
 44
1.25
 70
0
 73
0
 74
0
 77
1
 78
8
140
2.5
141
2.5
143
0.03937007874016
147
0.625
171
3
172
1
271
2
272
2
274
3
278
44
283
0
284
8
340
58
  0
ENDTAB
  0
TABLE
  2
BLOCK_RECORD
  5
1
100
AcDbSymbolTable
 70
1
  0
BLOCK_RECORD
  5
1F
100
AcDbSymbolTableRecord
100
AcDbBlockTableRecord
  2
*Model_Space
340
22
  0
BLOCK_RECORD
  5
1B
100
AcDbSymbolTableRecord
100
AcDbBlockTableRecord
  2
*Paper_Space
340
1E
  0
BLOCK_RECORD
  5
23
100
AcDbSymbolTableRecord
100
AcDbBlockTableRecord
  2
*Paper_Space0
340
26
  0
ENDTAB
  0
ENDSEC
  0
SECTION
  2
BLOCKS
  0
BLOCK
  5
20
100
AcDbEntity
  8
0
100
AcDbBlockBegin
  2
*Model_Space
 70
0
 10
0.0
 20
0.0
 30
0.0
  3
*Model_Space
  1

  0
ENDBLK
  5
21
100
AcDbEntity
  8
0
100
AcDbBlockEnd
  0
BLOCK
  5
1C
100
AcDbEntity
 67
1
  8
0
100
AcDbBlockBegin
  2
*Paper_Space
 70
0
 10
0.0
 20
0.0
 30
0.0
  3
*Paper_Space
  1

  0
ENDBLK
  5
1D
100
AcDbEntity
 67
1
  8
0
100
AcDbBlockEnd
  0
BLOCK
  5
24
100
AcDbEntity
  8
0
100
AcDbBlockBegin
  2
*Paper_Space0
 70
0
 10
0.0
 20
0.0
 30
0.0
  3
*Paper_Space0
  1

  0
ENDBLK
  5
25
100
AcDbEntity
  8
0
100
AcDbBlockEnd
  0
ENDSEC
  0
SECTION
  2
ENTITIES
  0
LINE
  5
5A
100
AcDbEntity
  8
0
 62
256
370
-1
 48
1.0
  6
BYLAYER
100
AcDbLine
 10
43.515395517172067
 20
1.6965249903602739
 30
0.0
 11
43.515395517172067
 21
101.69652499036027
 31
0.0
  0
LINE
  5
5B
100
AcDbEntity
  8
0
 62
256
370
-1
 48
1.0
  6
BYLAYER
100
AcDbLine
 10
143.51539551717207
 20
1.6965249903602739
 30
0.0
 11
143.51539551717207
 21
101.69652499036027
 31
0.0
  0
LINE
  5
5C
100
AcDbEntity
  8
0
 62
256
370
-1
 48
1.0
  6
BYLAYER
100
AcDbLine
 10
243.51539551717207
 20
1.6965249903602739
 30
0.0
 11
243.51539551717207
 21
101.69652499036027
 31
0.0
  0
LINE
  5
5D
100
AcDbEntity
  8
0
 62
256
370
-1
 48
1.0
  6
BYLAYER
100
AcDbLine
 10
343.51539551717207
 20
1.6965249903602739
 30
0.0
 11
343.51539551717207
 21
101.69652499036027
 31
0.0
  0
LINE
  5
5E
100
AcDbEntity
  8
0
 62
256
370
-1
 48
1.0
  6
BYLAYER
100
AcDbLine
 10
43.394210108770267
 20
121.1745521958311
 30
0.0
 11
43.394210108770267
 21
221.1745521958311
 31
0.0
  0
LINE
  5
5F
100
AcDbEntity
  8
0
 62
256
370
-1
 48
1.0
  6
BYLAYER
100
AcDbLine
 10
143.39421010877027
 20
121.1745521958311
 30
0.0
 11
143.39421010877027
 21
221.1745521958311
 31
0.0
  0
LINE
  5
60
100
AcDbEntity
  8
0
 62
256
370
-1
 48
1.0
  6
BYLAYER
100
AcDbLine
 10
243.39421010877032
 20
121.1745521958311
 30
0.0
 11
243.39421010877032
 21
221.1745521958311
 31
0.0
  0
LINE
  5
61
100
AcDbEntity
  8
0
 62
256
370
-1
 48
1.0
  6
BYLAYER
100
AcDbLine
 10
343.39421010877032
 20
121.1745521958311
 30
0.0
 11
343.39421010877032
 21
221.1745521958311
 31
0.0
  0
LINE
  5
62
100
AcDbEntity
  8
0
 62
256
370
-1
 48
1.0
  6
BYLAYER
100
AcDbLine
 10
43.89187410877031
 20
249.07420019583111
 30
0.0
 11
43.89187410877031
 21
349.07420019583111
 31
0.0
  0
LINE
  5
63
100
AcDbEntity
  8
0
 62
256
370
-1
 48
1.0
  6
BYLAYER
100
AcDbLine
 10
143.89187410877031
 20
249.07420019583111
 30
0.0
 11
143.89187410877031
 21
349.07420019583111
 31
0.0
  0
LINE
  5
64
100
AcDbEntity
  8
0
 62
256
370
-1
 48
1.0
  6
BYLAYER
100
AcDbLine
 10
243.89187410877031
 20
249.07420019583111
 30
0.0
 11
243.89187410877031
 21
349.07420019583111
 31
0.0
  0
LINE
  5
65
100
AcDbEntity
  8
0
 62
256
370
-1
 48
1.0
  6
BYLAYER
100
AcDbLine
 10
343.89187410877031
 20
249.07420019583111
 30
0.0
 11
343.89187410877031
 21
349.07420019583111
 31
0.0
  0
LINE
  5
66
100
AcDbEntity
  8
0
 62
256
370
-1
 48
1.0
  6
BYLAYER
100
AcDbLine
 10
43.391555712477953
 20
361.53928200241131
 30
0.0
 11
43.391555712477953
 21
461.53928200241131
 31
0.0
  0
LINE
  5
67
100
AcDbEntity
  8
0
 62
256
370
-1
 48
1.0
  6
BYLAYER
100
AcDbLine
 10
245.25354218494266
 20
361.76700883373456
 30
0.0
 11
245.25354218494266
 21
461.76700883373456
 31
0.0
  0
LINE
  5
68
100
AcDbEntity
  8
0
 62
256
370
-1
 48
1.0
  6
BYLAYER
100
AcDbLine
 10
140.22819618814279
 20
361.53893515693443
 30
0.0
 11
140.22819618814279
 21
461.53893515693443
 31
0.0
  0
LINE
  5
69
100
AcDbEntity
  8
0
 62
256
370
-1
 48
1.0
  6
BYLAYER
100
AcDbLine
 10
103.51539551717205
 20
51.696524990360274
 30
0.0
 11
183.51539551717207
 21
51.696524990360274
 31
0.0
  0
LINE
  5
6A
100
AcDbEntity
  8
0
 62
256
370
-1
 48
1.0
  6
BYLAYER
100
AcDbLine
 10
3.5153955171720668
 20
51.696524990360274
 30
0.0
 11
83.515395517172053
 21
51.696524990360274
 31
0.0
  0
LINE
  5
6B
100
AcDbEntity
  8
0
 62
256
370
-1
 48
1.0
  6
BYLAYER
100
AcDbLine
 10
203.51539551717207
 20
51.696524990360274
 30
0.0
 11
283.51539551717207
 21
51.696524990360274
 31
0.0
  0
LINE
  5
6C
100
AcDbEntity
  8
0
 62
256
370
-1
 48
1.0
  6
BYLAYER
100
AcDbLine
 10
303.51539551717207
 20
51.696524990360274
 30
0.0
 11
383.51539551717207
 21
51.696524990360274
 31
0.0
  0
LINE
  5
6D
100
AcDbEntity
  8
0
 62
256
370
-1
 48
1.0
  6
BYLAYER
100
AcDbLine
 10
103.39421010877028
 20
171.1745521958311
 30
0.0
 11
183.39421010877027
 21
171.1745521958311
 31
0.0
  0
LINE
  5
6E
100
AcDbEntity
  8
0
 62
256
370
-1
 48
1.0
  6
BYLAYER
100
AcDbLine
 10
3.3942101087702667
 20
171.1745521958311
 30
0.0
 11
83.394210108770281
 21
171.1745521958311
 31
0.0
  0
LINE
  5
6F
100
AcDbEntity
  8
0
 62
256
370
-1
 48
1.0
  6
BYLAYER
100
AcDbLine
 10
203.39421010877032
 20
171.1745521958311
 30
0.0
 11
283.39421010877032
 21
171.1745521958311
 31
0.0
  0
LINE
  5
70
100
AcDbEntity
  8
0
 62
256
370
-1
 48
1.0
  6
BYLAYER
100
AcDbLine
 10
303.39421010877032
 20
171.1745521958311
 30
0.0
 11
383.39421010877032
 21
171.1745521958311
 31
0.0
  0
LINE
  5
71
100
AcDbEntity
  8
0
 62
256
370
-1
 48
1.0
  6
BYLAYER
100
AcDbLine
 10
103.8918741087703
 20
299.07420019583111
 30
0.0
 11
183.89187410877031
 21
299.07420019583111
 31
0.0
  0
LINE
  5
72
100
AcDbEntity
  8
0
 62
256
370
-1
 48
1.0
  6
BYLAYER
100
AcDbLine
 10
3.8918741087703097
 20
299.07420019583111
 30
0.0
 11
83.891874108770295
 21
299.07420019583111
 31
0.0
  0
LINE
  5
73
100
AcDbEntity
  8
0
 62
256
370
-1
 48
1.0
  6
BYLAYER
100
AcDbLine
 10
203.89187410877031
 20
299.07420019583111
 30
0.0
 11
283.89187410877031
 21
299.07420019583111
 31
0.0
  0
LINE
  5
74
100
AcDbEntity
  8
0
 62
256
370
-1
 48
1.0
  6
BYLAYER
100
AcDbLine
 10
303.89187410877031
 20
299.07420019583111
 30
0.0
 11
383.89187410877031
 21
299.07420019583111
 31
0.0
  0
LINE
  5
75
100
AcDbEntity
  8
0
 62
256
370
-1
 48
1.0
  6
BYLAYER
100
AcDbLine
 10
3.3915557124779525
 20
411.53928200241131
 30
0.0
 11
83.391555712477967
 21
411.53928200241131
 31
0.0
  0
LINE
  5
76
100
AcDbEntity
  8
0
 62
256
370
-1
 48
1.0
  6
BYLAYER
100
AcDbLine
 10
205.25354218494266
 20
411.76700883373456
 30
0.0
 11
285.25354218494266
 21
411.76700883373456
 31
0.0
  0
LINE
  5
77
100
AcDbEntity
  8
0
 62
256
370
-1
 48
1.0
  6
BYLAYER
100
AcDbLine
 10
100.22819618814279
 20
411.53893515693443
 30
0.0
 11
180.22819618814279
 21
411.53893515693443
 31
0.0
  0
ARC
  5
78
100
AcDbEntity
  8
Fix
 62
256
370
-1
 48
1.0
  6
BYLAYER
100
AcDbCircle
 10
43.391555712477953
 20
411.53928200241131
 30
0.0
 40
40.0
100
AcDbArc
 50
212.96604131865087
 51
297.96604131865121
  0
ARC
  5
79
100
AcDbEntity
  8
0
 62
256
370
-1
 48
1.0
  6
BYLAYER
100
AcDbCircle
 10
43.515395517172067
 20
51.696524990360274
 30
0.0
 40
40.0
100
AcDbArc
 50
14.931417178137554
 51
63.43494882292201
  0
ARC
  5
7A
100
AcDbEntity
  8
0
 62
256
370
-1
 48
1.0
  6
BYLAYER
100
AcDbCircle
 10
43.394210108770267
 20
171.1745521958311
 30
0.0
 40
40.0
100
AcDbArc
 50
225.0
 51
340.00000000000006
  0
ARC
  5
7B
100
AcDbEntity
  8
0
 62
256
370
-1
 48
1.0
  6
BYLAYER
100
AcDbCircle
 10
43.89187410877031
 20
299.07420019583117
 30
0.0
 40
40.0
100
AcDbArc
 50
237.13411272647343
 51
44.592773680720114
  0
ARC
  5
7C
100
AcDbEntity
  8
0
 62
256
370
-1
 48
1.0
  6
BYLAYER
100
AcDbCircle
 10
143.51539551717207
 20
51.696524990360274
 30
0.0
 40
40.0
100
AcDbArc
 50
106.38954033403479
 51
158.74949449286675
  0
ARC
  5
7D
100
AcDbEntity
  8
0
 62
256
370
-1
 48
1.0
  6
BYLAYER
100
AcDbCircle
 10
143.39421010877027
 20
171.1745521958311
 30
0.0
 40
40.0
100
AcDbArc
 50
45.0
 51
158.74949449286675
  0
ARC
  5
7E
100
AcDbEntity
  8
0
 62
256
370
-1
 48
1.0
  6
BYLAYER
100
AcDbCircle
 10
143.89187410877031
 20
299.07420019583111
 30
0.0
 40
40.0
100
AcDbArc
 50
106.38954033403479
 51
300.0
  0
ARC
  5
7F
100
AcDbEntity
  8
0
 62
256
370
-1
 48
1.0
  6
BYLAYER
100
AcDbCircle
 10
243.51539551717207
 20
51.696524990360274
 30
0.0
 40
40.0
100
AcDbArc
 50
194.93141717813754
 51
255.25643716352923
  0
ARC
  5
80
100
AcDbEntity
  8
0
 62
256
370
-1
 48
1.0
  6
BYLAYER
100
AcDbCircle
 10
243.39421010877032
 20
171.1745521958311
 30
0.0
 40
40.0
100
AcDbArc
 50
135.0
 51
255.25643716352923
  0
ARC
  5
81
100
AcDbEntity
  8
0
 62
256
370
-1
 48
1.0
  6
BYLAYER
100
AcDbCircle
 10
243.89187410877031
 20
299.07420019583117
 30
0.0
 40
40.0
100
AcDbArc
 50
69.14296996823083
 51
241.40497518565971
  0
ARC
  5
82
100
AcDbEntity
  8
0
 62
256
370
-1
 48
1.0
  6
BYLAYER
100
AcDbCircle
 10
343.51539551717207
 20
51.696524990360274
 30
0.0
 40
40.0
100
AcDbArc
 50
291.80140948635182
 51
336.37062226934319
  0
ARC
  5
83
100
AcDbEntity
  8
0
 62
256
370
-1
 48
1.0
  6
BYLAYER
100
AcDbCircle
 10
343.39421010877032
 20
171.1745521958311
 30
0.0
 40
40.0
100
AcDbArc
 50
291.80140948635182
 51
45.0
  0
ARC
  5
84
100
AcDbEntity
  8
0
 62
256
370
-1
 48
1.0
  6
BYLAYER
100
AcDbCircle
 10
343.89187410877037
 20
299.07420019583117
 30
0.0
 40
40.0
100
AcDbArc
 50
304.96036490978804
 51
116.01738310964345
  0
LINE
  5
85
100
AcDbEntity
  8
0
 62
256
370
-1
 48
1.0
  6
BYLAYER
100
AcDbLine
 10
43.394210108770267
 20
221.1745521958311
 30
0.0
 11
41.515395517172067
 21
223.69652499036027
 31
0.0
  0
LINE
  5
86
100
AcDbEntity
  8
0
 62
256
370
-1
 48
1.0
  6
BYLAYER
100
AcDbLine
 10
143.36779790320224
 20
221.41821369123838
 30
0.0
 11
141.48898331160399
 21
223.94018648576755
 31
0.0
  0
LINE
  5
87
100
AcDbEntity
  8
0
 62
256
370
-1
 48
1.0
  6
BYLAYER
100
AcDbLine
 10
243.40253381903068
 20
221.36841897625598
 30
0.0
 11
241.52371922743248
 21
223.89039177078516
 31
0.0
  0
LINE
  5
88
100
AcDbEntity
  8
0
 62
256
370
-1
 48
1.0
  6
BYLAYER
100
AcDbLine
 10
343.36773717834348
 20
221.36784155260665
 30
0.0
 11
341.48892258674522
 21
223.88981434713583
 31
0.0
  0
LINE
  5
89
100
AcDbEntity
  8
0
 62
256
370
-1
 48
1.0
  6
BYLAYER
100
AcDbLine
 10
343.50091906458732
 20
101.76945447333452
 30
0.0
 11
341.62210447298912
 21
104.2914272678637
 31
0.0
  0
LINE
  5
8A
100
AcDbEntity
  8
0
 62
256
370
-1
 48
1.0
  6
BYLAYER
100
AcDbLine
 10
243.39421010877032
 20
101.83553859309569
 30
0.0
 11
241.51539551717207
 21
104.35751138762487
 31
0.0
  0
LINE
  5
8B
100
AcDbEntity
  8
0
 62
256
370
-1
 48
1.0
  6
BYLAYER
100
AcDbLine
 10
143.53611864671063
 20
101.8234670198423
 30
0.0
 11
141.65730405511238
 21
104.34543981437147
 31
0.0
  0
LINE
  5
8C
100
AcDbEntity
  8
0
 62
256
370
-1
 48
1.0
  6
BYLAYER
100
AcDbLine
 10
43.513248304940305
 20
101.75539774126469
 30
0.0
 11
41.634433713342048
 21
104.27737053579386
 31
0.0
  0
LINE
  5
8D
100
AcDbEntity
  8
0
 62
256
370
-1
 48
1.0
  6
BYLAYER
100
AcDbLine
 10
343.91916708021432
 20
348.83574250680152
 30
0.0
 11
342.04035248861607
 21
351.35771530133076
 31
0.0
  0
LINE
  5
8E
100
AcDbEntity
  8
0
 62
256
370
-1
 48
1.0
  6
BYLAYER
100
AcDbLine
 10
243.94450144235412
 20
349.04729086071103
 30
0.0
 11
242.06568685075592
 21
351.56926365524026
 31
0.0
  0
LINE
  5
8F
100
AcDbEntity
  8
0
 62
256
370
-1
 48
1.0
  6
BYLAYER
100
AcDbLine
 10
143.8440877907554
 20
349.16538122018761
 30
0.0
 11
141.9652731991572
 21
351.68735401471685
 31
0.0
  0
LINE
  5
90
100
AcDbEntity
  8
0
 62
256
370
-1
 48
1.0
  6
BYLAYER
100
AcDbLine
 10
43.922200204747355
 20
348.55555159500517
 30
0.0
 11
42.043385613149155
 21
351.0775243895344
 31
0.0
  0
LINE
  5
91
100
AcDbEntity
  8
0
 62
256
370
-1
 48
1.0
  6
BYLAYER
100
AcDbLine
 10
43.382285297172643
 20
461.48528368912133
 30
0.0
 11
41.503470705574387
 21
464.00725648365045
 31
0.0
  0
LINE
  5
92
100
AcDbEntity
  8
0
 62
256
370
-1
 48
1.0
  6
BYLAYER
100
AcDbLine
 10
41.515395517172067
 20
223.69652499036027
 30
0.0
 11
45.515395517172067
 21
223.69652499036027
 31
0.0
  0
LINE
  5
93
100
AcDbEntity
  8
0
 62
256
370
-1
 48
1.0
  6
BYLAYER
100
AcDbLine
 10
141.48898331160399
 20
223.94018648576755
 30
0.0
 11
145.48898331160399
 21
223.94018648576755
 31
0.0
  0
LINE
  5
94
100
AcDbEntity
  8
0
 62
256
370
-1
 48
1.0
  6
BYLAYER
100
AcDbLine
 10
241.52371922743248
 20
223.89039177078516
 30
0.0
 11
245.52371922743248
 21
223.89039177078516
 31
0.0
  0
LINE
  5
95
100
AcDbEntity
  8
0
 62
256
370
-1
 48
1.0
  6
BYLAYER
100
AcDbLine
 10
341.48892258674522
 20
223.88981434713583
 30
0.0
 11
345.48892258674522
 21
223.88981434713583
 31
0.0
  0
LINE
  5
96
100
AcDbEntity
  8
0
 62
256
370
-1
 48
1.0
  6
BYLAYER
100
AcDbLine
 10
341.62210447298912
 20
104.2914272678637
 30
0.0
 11
345.62210447298912
 21
104.2914272678637
 31
0.0
  0
LINE
  5
97
100
AcDbEntity
  8
0
 62
256
370
-1
 48
1.0
  6
BYLAYER
100
AcDbLine
 10
241.51539551717207
 20
104.35751138762487
 30
0.0
 11
245.51539551717207
 21
104.35751138762487
 31
0.0
  0
LINE
  5
98
100
AcDbEntity
  8
0
 62
256
370
-1
 48
1.0
  6
BYLAYER
100
AcDbLine
 10
141.65730405511238
 20
104.34543981437147
 30
0.0
 11
145.65730405511238
 21
104.34543981437147
 31
0.0
  0
LINE
  5
99
100
AcDbEntity
  8
0
 62
256
370
-1
 48
1.0
  6
BYLAYER
100
AcDbLine
 10
41.634433713342048
 20
104.27737053579386
 30
0.0
 11
45.634433713342048
 21
104.27737053579386
 31
0.0
  0
LINE
  5
9A
100
AcDbEntity
  8
0
 62
256
370
-1
 48
1.0
  6
BYLAYER
100
AcDbLine
 10
342.04035248861607
 20
351.35771530133076
 30
0.0
 11
346.04035248861607
 21
351.35771530133076
 31
0.0
  0
LINE
  5
9B
100
AcDbEntity
  8
0
 62
256
370
-1
 48
1.0
  6
BYLAYER
100
AcDbLine
 10
242.06568685075592
 20
351.56926365524026
 30
0.0
 11
246.06568685075592
 21
351.56926365524026
 31
0.0
  0
LINE
  5
9C
100
AcDbEntity
  8
0
 62
256
370
-1
 48
1.0
  6
BYLAYER
100
AcDbLine
 10
141.9652731991572
 20
351.68735401471685
 30
0.0
 11
145.9652731991572
 21
351.68735401471685
 31
0.0
  0
LINE
  5
9D
100
AcDbEntity
  8
0
 62
256
370
-1
 48
1.0
  6
BYLAYER
100
AcDbLine
 10
42.043385613149155
 20
351.0775243895344
 30
0.0
 11
46.043385613149155
 21
351.0775243895344
 31
0.0
  0
LINE
  5
9E
100
AcDbEntity
  8
0
 62
256
370
-1
 48
1.0
  6
BYLAYER
100
AcDbLine
 10
41.503470705574387
 20
464.00725648365045
 30
0.0
 11
45.503470705574387
 21
464.00725648365045
 31
0.0
  0
LINE
  5
9F
100
AcDbEntity
  8
0
 62
256
370
-1
 48
1.0
  6
BYLAYER
100
AcDbLine
 10
45.515395517172067
 20
223.69652499036027
 30
0.0
 11
43.394210108770267
 21
221.17455219583113
 31
0.0
  0
LINE
  5
A0
100
AcDbEntity
  8
0
 62
256
370
-1
 48
1.0
  6
BYLAYER
100
AcDbLine
 10
145.48898331160399
 20
223.94018648576755
 30
0.0
 11
143.36779790320224
 21
221.41821369123841
 31
0.0
  0
LINE
  5
A1
100
AcDbEntity
  8
0
 62
256
370
-1
 48
1.0
  6
BYLAYER
100
AcDbLine
 10
245.52371922743248
 20
223.89039177078516
 30
0.0
 11
243.40253381903068
 21
221.36841897625601
 31
0.0
  0
LINE
  5
A2
100
AcDbEntity
  8
0
 62
256
370
-1
 48
1.0
  6
BYLAYER
100
AcDbLine
 10
345.48892258674522
 20
223.88981434713583
 30
0.0
 11
343.36773717834342
 21
221.36784155260668
 31
0.0
  0
LINE
  5
A3
100
AcDbEntity
  8
0
 62
256
370
-1
 48
1.0
  6
BYLAYER
100
AcDbLine
 10
345.62210447298912
 20
104.2914272678637
 30
0.0
 11
343.50091906458732
 21
101.76945447333455
 31
0.0
  0
LINE
  5
A4
100
AcDbEntity
  8
0
 62
256
370
-1
 48
1.0
  6
BYLAYER
100
AcDbLine
 10
245.51539551717207
 20
104.35751138762487
 30
0.0
 11
243.39421010877027
 21
101.83553859309569
 31
0.0
  0
LINE
  5
A5
100
AcDbEntity
  8
0
 62
256
370
-1
 48
1.0
  6
BYLAYER
100
AcDbLine
 10
145.65730405511238
 20
104.34543981437147
 30
0.0
 11
143.53611864671063
 21
101.82346701984233
 31
0.0
  0
LINE
  5
A6
100
AcDbEntity
  8
0
 62
256
370
-1
 48
1.0
  6
BYLAYER
100
AcDbLine
 10
45.634433713342048
 20
104.27737053579386
 30
0.0
 11
43.513248304940248
 21
101.75539774126469
 31
0.0
  0
LINE
  5
A7
100
AcDbEntity
  8
0
 62
256
370
-1
 48
1.0
  6
BYLAYER
100
AcDbLine
 10
346.04035248861607
 20
351.35771530133076
 30
0.0
 11
343.91916708021427
 21
348.83574250680158
 31
0.0
  0
LINE
  5
A8
100
AcDbEntity
  8
0
 62
256
370
-1
 48
1.0
  6
BYLAYER
100
AcDbLine
 10
246.06568685075592
 20
351.56926365524026
 30
0.0
 11
243.94450144235412
 21
349.04729086071109
 31
0.0
  0
LINE
  5
A9
100
AcDbEntity
  8
0
 62
256
370
-1
 48
1.0
  6
BYLAYER
100
AcDbLine
 10
145.9652731991572
 20
351.68735401471685
 30
0.0
 11
143.8440877907554
 21
349.16538122018767
 31
0.0
  0
LINE
  5
AA
100
AcDbEntity
  8
0
 62
256
370
-1
 48
1.0
  6
BYLAYER
100
AcDbLine
 10
46.043385613149155
 20
351.0775243895344
 30
0.0
 11
43.922200204747355
 21
348.55555159500523
 31
0.0
  0
LINE
  5
AB
100
AcDbEntity
  8
0
 62
256
370
-1
 48
1.0
  6
BYLAYER
100
AcDbLine
 10
45.503470705574387
 20
464.00725648365045
 30
0.0
 11
43.382285297172587
 21
461.48528368912133
 31
0.0
  0
LINE
  5
AC
100
AcDbEntity
  8
0
 62
256
370
-1
 48
1.0
  6
BYLAYER
100
AcDbLine
 10
43.515395517172067
 20
51.696524990360274
 30
0.0
 11
82.164793101221917
 21
62.003031012773569
 31
0.0
  0
LINE
  5
AD
100
AcDbEntity
  8
0
 62
256
370
-1
 48
1.0
  6
BYLAYER
100
AcDbLine
 10
43.515395517172074
 20
51.696524990360274
 30
0.0
 11
61.403939337170385
 21
87.473612630356911
 31
0.0
  0
LINE
  5
AE
100
AcDbEntity
  8
0
 62
256
370
-1
 48
1.0
  6
BYLAYER
100
AcDbLine
 10
143.51539551717207
 20
51.696524990360267
 30
0.0
 11
132.22874255751006
 21
90.071145053211097
 31
0.0
  0
LINE
  5
AF
100
AcDbEntity
  8
0
 62
256
370
-1
 48
1.0
  6
BYLAYER
100
AcDbLine
 10
143.51539551717207
 20
51.696524990360281
 30
0.0
 11
106.23520865552024
 21
66.194375436558218
 31
0.0
  0
LINE
  5
B0
100
AcDbEntity
  8
0
 62
256
370
-1
 48
1.0
  6
BYLAYER
100
AcDbLine
 10
243.51539551717207
 20
51.696524990360274
 30
0.0
 11
204.8659979331222
 21
41.390018967946993
 31
0.0
  0
LINE
  5
B1
100
AcDbEntity
  8
0
 62
256
370
-1
 48
1.0
  6
BYLAYER
100
AcDbLine
 10
243.5153955171721
 20
51.696524990360274
 30
0.0
 11
233.33566354598631
 21
13.013543499854421
 31
0.0
  0
LINE
  5
B2
100
AcDbEntity
  8
0
 62
256
370
-1
 48
1.0
  6
BYLAYER
100
AcDbLine
 10
343.51539551717207
 20
51.696524990360274
 30
0.0
 11
358.3710225713362
 21
14.557457354949896
 31
0.0
  0
LINE
  5
B3
100
AcDbEntity
  8
0
 62
256
370
-1
 48
1.0
  6
BYLAYER
100
AcDbLine
 10
380.16168891325964
 20
35.663771629571947
 30
0.0
 11
343.51539551717212
 21
51.696524990360267
 31
0.0
  0
LINE
  5
B4
100
AcDbEntity
  8
0
 62
256
370
-1
 48
1.0
  6
BYLAYER
100
AcDbLine
 10
343.39421010877032
 20
171.1745521958311
 30
0.0
 11
358.24983716293445
 21
134.03548456042071
 31
0.0
  0
LINE
  5
B5
100
AcDbEntity
  8
0
 62
256
370
-1
 48
1.0
  6
BYLAYER
100
AcDbLine
 10
371.67848135623223
 20
199.458823443293
 30
0.0
 11
343.39421010877032
 21
171.1745521958311
 31
0.0
  0
LINE
  5
B6
100
AcDbEntity
  8
0
 62
256
370
-1
 48
1.0
  6
BYLAYER
100
AcDbLine
 10
215.10993886130842
 20
199.458823443293
 30
0.0
 11
243.39421010877032
 21
171.1745521958311
 31
0.0
  0
LINE
  5
B7
100
AcDbEntity
  8
0
 62
256
370
-1
 48
1.0
  6
BYLAYER
100
AcDbLine
 10
243.39421010877032
 20
171.1745521958311
 30
0.0
 11
233.21447813758456
 21
132.49157070532524
 31
0.0
  0
LINE
  5
B8
100
AcDbEntity
  8
0
 62
256
370
-1
 48
1.0
  6
BYLAYER
100
AcDbLine
 10
171.67848135623217
 20
199.458823443293
 30
0.0
 11
143.3942101087703
 21
171.17455219583113
 31
0.0
  0
LINE
  5
B9
100
AcDbEntity
  8
0
 62
256
370
-1
 48
1.0
  6
BYLAYER
100
AcDbLine
 10
143.3942101087703
 20
171.17455219583113
 30
0.0
 11
106.11402324711844
 21
185.67240264202906
 31
0.0
  0
LINE
  5
BA
100
AcDbEntity
  8
0
 62
256
370
-1
 48
1.0
  6
BYLAYER
100
AcDbLine
 10
43.394210108770267
 20
171.17455219583107
 30
0.0
 11
80.981914940206607
 21
157.49374646280435
 31
0.0
  0
LINE
  5
BB
100
AcDbEntity
  8
0
 62
256
370
-1
 48
1.0
  6
BYLAYER
100
AcDbLine
 10
43.394210108770217
 20
171.1745521958311
 30
0.0
 11
15.109938861308358
 21
142.8902809483692
 31
0.0
  0
LINE
  5
BC
100
AcDbEntity
  8
0
 62
256
370
-1
 48
1.0
  6
BYLAYER
100
AcDbLine
 10
72.376458029660625
 20
327.15672997599444
 30
0.0
 11
43.89187410877031
 21
299.07420019583117
 31
0.0
  0
LINE
  5
BD
100
AcDbEntity
  8
0
 62
256
370
-1
 48
1.0
  6
BYLAYER
100
AcDbLine
 10
43.89187410877031
 20
299.07420019583117
 30
0.0
 11
22.184895655053463
 21
265.47647577274154
 31
0.0
  0
LINE
  5
BE
100
AcDbEntity
  8
0
 62
256
370
-1
 48
1.0
  6
BYLAYER
100
AcDbLine
 10
43.391555712477953
 20
411.5392820024112
 30
0.0
 11
9.8318267858236368
 21
389.77360732025448
 31
0.0
  0
LINE
  5
BF
100
AcDbEntity
  8
0
 62
256
370
-1
 48
1.0
  6
BYLAYER
100
AcDbLine
 10
43.391555712477945
 20
411.5392820024112
 30
0.0
 11
62.149482330219882
 21
376.21025443295491
 31
0.0
  0
LINE
  5
C0
100
AcDbEntity
  8
0
 62
256
370
-1
 48
1.0
  6
BYLAYER
100
AcDbLine
 10
132.6052211491083
 20
337.44882025868196
 30
0.0
 11
143.89187410877031
 21
299.07420019583105
 31
0.0
  0
LINE
  5
C1
100
AcDbEntity
  8
0
 62
256
370
-1
 48
1.0
  6
BYLAYER
100
AcDbLine
 10
143.89187410877031
 20
299.07420019583105
 30
0.0
 11
163.89187410877031
 21
264.43318404445358
 31
0.0
  0
LINE
  5
C2
100
AcDbEntity
  8
0
 62
256
370
-1
 48
1.0
  6
BYLAYER
100
AcDbLine
 10
258.13336515426363
 20
336.45307033393374
 30
0.0
 11
243.89187410877031
 21
299.07420019583105
 31
0.0
  0
LINE
  5
C3
100
AcDbEntity
  8
0
 62
256
370
-1
 48
1.0
  6
BYLAYER
100
AcDbLine
 10
243.89187410877031
 20
299.07420019583105
 30
0.0
 11
224.74724939217481
 21
263.9532186540132
 31
0.0
  0
LINE
  5
C4
100
AcDbEntity
  8
0
 62
256
370
-1
 48
1.0
  6
BYLAYER
100
AcDbLine
 10
326.34612154957136
 20
335.02064045257094
 30
0.0
 11
343.89187410877025
 21
299.07420019583105
 31
0.0
  0
LINE
  5
C5
100
AcDbEntity
  8
0
 62
256
370
-1
 48
1.0
  6
BYLAYER
100
AcDbLine
 10
343.89187410877025
 20
299.07420019583105
 30
0.0
 11
366.81225971784085
 21
266.29225511120399
 31
0.0
  0
ARC
  5
C6
100
AcDbEntity
  8
Fix
 62
256
370
-1
 48
1.0
  6
BYLAYER
100
AcDbCircle
 10
245.25354218494266
 20
411.76700883373462
 30
0.0
 40
40.0
100
AcDbArc
 50
339.96132850073502
 51
17.96132850073494
  0
ARC
  5
C7
100
AcDbEntity
  8
Fix
 62
256
370
-1
 48
1.0
  6
BYLAYER
100
AcDbCircle
 10
140.22819618814279
 20
411.53893515693443
 30
0.0
 40
40.0
100
AcDbArc
 50
110.00000000000001
 51
70.0
  0
ENDSEC
  0
SECTION
  2
OBJECTS
  0
DICTIONARY
  5
C
100
AcDbDictionary
280
0
281
1
  3
ACAD_GROUP
350
D
  3
ACAD_LAYOUT
350
1A
  3
ACAD_MLINESTYLE
350
17
  3
ACAD_PLOTSETTINGS
350
19
  3
ACAD_PLOTSTYLENAME
350
E
  3
AcDbVariableDictionary
350
C8
  3
QCAD_OBJECTS
350
C9
  0
DICTIONARY
  5
D
100
AcDbDictionary
280
0
281
1
  0
ACDBDICTIONARYWDFLT
  5
E
100
AcDbDictionary
281
1
  3
Normal
350
F
100
AcDbDictionaryWithDefault
340
F
  0
ACDBPLACEHOLDER
  5
F
  0
DICTIONARY
  5
17
100
AcDbDictionary
280
0
281
1
  3
Standard
350
18
  0
MLINESTYLE
  5
18
100
AcDbMlineStyle
  2
STANDARD
 70
0
  3

 62
256
 51
90.0
 52
90.0
 71
2
 49
0.5
 62
256
  6
BYLAYER
 49
-0.5
 62
256
  6
BYLAYER
  0
DICTIONARY
  5
19
100
AcDbDictionary
280
0
281
1
  0
DICTIONARY
  5
1A
100
AcDbDictionary
281
1
  3
Layout1
350
1E
  3
Layout2
350
26
  3
Model
350
22
  0
LAYOUT
  5
1E
100
AcDbPlotSettings
  1

  2
none_device
  4

  6

 40
0.0
 41
0.0
 42
0.0
 43
0.0
 44
0.0
 45
0.0
 46
0.0
 47
0.0
 48
0.0
 49
0.0
140
0.0
141
0.0
142
1.0
143
1.0
 70
688
 72
0
 73
0
 74
5
  7

 75
16
147
1.0
148
0.0
149
0.0
100
AcDbLayout
  1
Layout1
 70
1
 71
1
 10
0.0
 20
0.0
 11
420.0
 21
297.0
 12
0.0
 22
0.0
 32
0.0
 14
100000000000000000000.0
 24
100000000000000000000.0
 34
100000000000000000000.0
 15
-100000000000000000000.0
 25
-100000000000000000000.0
 35
-100000000000000000000.0
146
0.0
 13
0.0
 23
0.0
 33
0.0
 16
1.0
 26
0.0
 36
0.0
 17
0.0
 27
1.0
 37
0.0
 76
0
330
1B
  0
LAYOUT
  5
22
100
AcDbPlotSettings
  1

  2
none_device
  4

  6

 40
0.0
 41
0.0
 42
0.0
 43
0.0
 44
0.0
 45
0.0
 46
0.0
 47
0.0
 48
0.0
 49
0.0
140
0.0
141
0.0
142
1.0
143
1.0
 70
1712
 72
0
 73
0
 74
0
  7

 75
0
147
1.0
148
0.0
149
0.0
100
AcDbLayout
  1
Model
 70
1
 71
0
 10
0.0
 20
0.0
 11
12.0
 21
9.0
 12
0.0
 22
0.0
 32
0.0
 14
0.0
 24
0.0
 34
0.0
 15
0.0
 25
0.0
 35
0.0
146
0.0
 13
0.0
 23
0.0
 33
0.0
 16
1.0
 26
0.0
 36
0.0
 17
0.0
 27
1.0
 37
0.0
 76
0
330
1F
  0
LAYOUT
  5
26
100
AcDbPlotSettings
  1

  2
none_device
  4

  6

 40
0.0
 41
0.0
 42
0.0
 43
0.0
 44
0.0
 45
0.0
 46
0.0
 47
0.0
 48
0.0
 49
0.0
140
0.0
141
0.0
142
1.0
143
1.0
 70
688
 72
0
 73
0
 74
5
  7

 75
16
147
1.0
148
0.0
149
0.0
100
AcDbLayout
  1
Layout2
 70
1
 71
2
 10
0.0
 20
0.0
 11
12.0
 21
9.0
 12
0.0
 22
0.0
 32
0.0
 14
0.0
 24
0.0
 34
0.0
 15
0.0
 25
0.0
 35
0.0
146
0.0
 13
0.0
 23
0.0
 33
0.0
 16
1.0
 26
0.0
 36
0.0
 17
0.0
 27
1.0
 37
0.0
 76
0
330
23
  0
DICTIONARY
  5
C8
100
AcDbDictionary
281
1
  3
DIMASSOC
350
CB
  3
HIDETEXT
350
CA
  0
DICTIONARYVAR
  5
CA
100
DictionaryVariables
280
0
  1
2
  0
DICTIONARYVAR
  5
CB
100
DictionaryVariables
280
0
  1
1
  0
DICTIONARY
  5
C9
100
AcDbDictionary
281
1
  3
ColorSettings/BackgroundColor
350
CC
  3
ColorSettings/ColorMode
350
CD
  3
Grid/DisplayGrid00
350
CE
  3
Grid/DisplayGrid01
350
CF
  3
Grid/DisplayGrid02
350
D0
  3
Grid/DisplayGrid03
350
D1
  3
Grid/GridSpacingX00
350
D2
  3
Grid/GridSpacingX01
350
D3
  3
Grid/GridSpacingX02
350
D4
  3
Grid/GridSpacingX03
350
D5
  3
Grid/GridSpacingY00
350
D6
  3
Grid/GridSpacingY01
350
D7
  3
Grid/GridSpacingY02
350
D8
  3
Grid/GridSpacingY03
350
D9
  3
Grid/IsometricGrid00
350
DA
  3
Grid/IsometricGrid01
350
DB
  3
Grid/IsometricGrid02
350
DC
  3
Grid/IsometricGrid03
350
DD
  3
Grid/IsometricProjection00
350
DE
  3
Grid/IsometricProjection01
350
DF
  3
Grid/IsometricProjection02
350
E0
  3
Grid/IsometricProjection03
350
E1
  3
Grid/MetaGridSpacingX00
350
E2
  3
Grid/MetaGridSpacingX01
350
E3
  3
Grid/MetaGridSpacingX02
350
E4
  3
Grid/MetaGridSpacingX03
350
E5
  3
Grid/MetaGridSpacingY00
350
E6
  3
Grid/MetaGridSpacingY01
350
E7
  3
Grid/MetaGridSpacingY02
350
E8
  3
Grid/MetaGridSpacingY03
350
E9
  3
MultiPageSettings/Columns
350
EA
  3
MultiPageSettings/GlueMarginsBottom
350
EB
  3
MultiPageSettings/GlueMarginsLeft
350
EC
  3
MultiPageSettings/GlueMarginsRight
350
ED
  3
MultiPageSettings/GlueMarginsTop
350
EE
  3
MultiPageSettings/PrintCropMarks
350
EF
  3
MultiPageSettings/Rows
350
F0
  3
PageSettings/OffsetX
350
F1
  3
PageSettings/OffsetY
350
F2
  3
PageSettings/PageOrientation
350
F3
  3
PageSettings/PaperHeight
350
F4
  3
PageSettings/PaperWidth
350
F5
  3
PageSettings/Scale
350
F6
  3
PageSettings/ShowPaperBorders
350
F7
  3
QCADVersion
350
F8
  3
UnitSettings/PaperUnit
350
F9
  3
ViewportCenter
350
FA
  3
ViewportHeight
350
FB
  3
ViewportWidth
350
FC
  0
XRECORD
  5
CC
330
C9
100
AcDbXrecord
280
1
1000
White
  0
XRECORD
  5
CD
330
C9
100
AcDbXrecord
280
1
1000
FullColor
  0
XRECORD
  5
CE
330
C9
100
AcDbXrecord
280
1
290
1
  0
XRECORD
  5
CF
330
C9
100
AcDbXrecord
280
1
290
1
  0
XRECORD
  5
D0
330
C9
100
AcDbXrecord
280
1
290
1
  0
XRECORD
  5
D1
330
C9
100
AcDbXrecord
280
1
290
1
  0
XRECORD
  5
D2
330
C9
100
AcDbXrecord
280
1
1000
auto
  0
XRECORD
  5
D3
330
C9
100
AcDbXrecord
280
1
1000
auto
  0
XRECORD
  5
D4
330
C9
100
AcDbXrecord
280
1
1000
auto
  0
XRECORD
  5
D5
330
C9
100
AcDbXrecord
280
1
1000
auto
  0
XRECORD
  5
D6
330
C9
100
AcDbXrecord
280
1
1000
auto
  0
XRECORD
  5
D7
330
C9
100
AcDbXrecord
280
1
1000
auto
  0
XRECORD
  5
D8
330
C9
100
AcDbXrecord
280
1
1000
auto
  0
XRECORD
  5
D9
330
C9
100
AcDbXrecord
280
1
1000
auto
  0
XRECORD
  5
DA
330
C9
100
AcDbXrecord
280
1
290
0
  0
XRECORD
  5
DB
330
C9
100
AcDbXrecord
280
1
290
0
  0
XRECORD
  5
DC
330
C9
100
AcDbXrecord
280
1
290
0
  0
XRECORD
  5
DD
330
C9
100
AcDbXrecord
280
1
290
0
  0
XRECORD
  5
DE
330
C9
100
AcDbXrecord
280
1
 90
65537
  0
XRECORD
  5
DF
330
C9
100
AcDbXrecord
280
1
 90
65537
  0
XRECORD
  5
E0
330
C9
100
AcDbXrecord
280
1
 90
65537
  0
XRECORD
  5
E1
330
C9
100
AcDbXrecord
280
1
 90
65537
  0
XRECORD
  5
E2
330
C9
100
AcDbXrecord
280
1
1000
auto
  0
XRECORD
  5
E3
330
C9
100
AcDbXrecord
280
1
1000
auto
  0
XRECORD
  5
E4
330
C9
100
AcDbXrecord
280
1
1000
auto
  0
XRECORD
  5
E5
330
C9
100
AcDbXrecord
280
1
1000
auto
  0
XRECORD
  5
E6
330
C9
100
AcDbXrecord
280
1
1000
auto
  0
XRECORD
  5
E7
330
C9
100
AcDbXrecord
280
1
1000
auto
  0
XRECORD
  5
E8
330
C9
100
AcDbXrecord
280
1
1000
auto
  0
XRECORD
  5
E9
330
C9
100
AcDbXrecord
280
1
1000
auto
  0
XRECORD
  5
EA
330
C9
100
AcDbXrecord
280
1
 90
1
  0
XRECORD
  5
EB
330
C9
100
AcDbXrecord
280
1
 40
10.0
  0
XRECORD
  5
EC
330
C9
100
AcDbXrecord
280
1
 40
10.0
  0
XRECORD
  5
ED
330
C9
100
AcDbXrecord
280
1
 40
10.0
  0
XRECORD
  5
EE
330
C9
100
AcDbXrecord
280
1
 40
10.0
  0
XRECORD
  5
EF
330
C9
100
AcDbXrecord
280
1
290
0
  0
XRECORD
  5
F0
330
C9
100
AcDbXrecord
280
1
 90
1
  0
XRECORD
  5
F1
330
C9
100
AcDbXrecord
280
1
 40
0.0
  0
XRECORD
  5
F2
330
C9
100
AcDbXrecord
280
1
 40
0.0
  0
XRECORD
  5
F3
330
C9
100
AcDbXrecord
280
1
1000
Portrait
  0
XRECORD
  5
F4
330
C9
100
AcDbXrecord
280
1
 40
297.0
  0
XRECORD
  5
F5
330
C9
100
AcDbXrecord
280
1
 40
210.0
  0
XRECORD
  5
F6
330
C9
100
AcDbXrecord
280
1
1000
1:1
  0
XRECORD
  5
F7
330
C9
100
AcDbXrecord
280
1
290
1
  0
XRECORD
  5
F8
330
C9
100
AcDbXrecord
280
1
1000
3.23.0
  0
XRECORD
  5
F9
330
C9
100
AcDbXrecord
280
1
 90
4
  0
XRECORD
  5
FB
330
C9
100
AcDbXrecord
280
1
 40
355.40567064575976
  0
XRECORD
  5
FC
330
C9
100
AcDbXrecord
280
1
 40
733.10159241215956
  0
ENDSEC
  0
EOF
