999
dxflib 3.17.0.0
  0
SECTION
  2
HEADER
  9
$ACADVER
  1
AC1015
  9
$HANDSEED
  5
FFFF
  9
$DIMADEC
 70
0
  9
$DIMASZ
 40
2.5
  9
$DIMAUNIT
 70
0
  9
$DIMAZIN
 70
2
  9
$DIMDEC
 70
4
  9
$DIMDLI
 40
5.0
  9
$DIMDSEP
 70
46
  9
$DIMEXE
 40
1.25
  9
$DIMEXO
 40
0.625
  9
$DIMGAP
 40
0.625
  9
$DIMLUNIT
 70
2
  9
$DIMSCALE
 40
1.0
  9
$DIMTSZ
 40
0.0
  9
$DIMTXT
 40
2.5
  9
$DIMZIN
 70
8
  9
$DWGCODEPAGE
  3
ANSI_1252
  9
$INSUNITS
 70
4
  9
$LTSCALE
 40
1.0
  9
$MAXACTVP
 70
64
  9
$MEASUREMENT
 70
1
  9
$PDMODE
 70
0
  9
$PDSIZE
 40
0.0
  0
ENDSEC
  0
SECTION
  2
TABLES
  0
TABLE
  2
VPORT
  5
8
100
AcDbSymbolTable
 70
1
  0
VPORT
  5
30
100
AcDbSymbolTableRecord
100
AcDbViewportTableRecord
  2
*Active
 70
0
 10
0.0
 20
0.0
 11
1.0
 21
1.0
 12
286.30555555555549
 22
148.5
 13
0.0
 23
0.0
 14
10.0
 24
10.0
 15
10.0
 25
10.0
 16
0.0
 26
0.0
 36
1.0
 17
0.0
 27
0.0
 37
0.0
 40
297.0
 41
1.92798353909465
 42
50.0
 43
0.0
 44
0.0
 50
0.0
 51
0.0
 71
0
 72
100
 73
1
 74
3
 75
1
 76
1
 77
0
 78
0
281
0
 65
1
110
0.0
120
0.0
130
0.0
111
1.0
121
0.0
131
0.0
112
0.0
122
1.0
132
0.0
 79
0
146
0.0
  0
ENDTAB
  0
TABLE
  2
LTYPE
  5
5
100
AcDbSymbolTable
 70
41
  0
LTYPE
  5
16
100
AcDbSymbolTableRecord
100
AcDbLinetypeTableRecord
  2
Continuous
 70
0
  3
Solid line
 72
65
 73
0
 40
0.0
  0
LTYPE
  5
31
100
AcDbSymbolTableRecord
100
AcDbLinetypeTableRecord
  2
BORDERX2
 70
0
  3
Border (2x) ____  ____  .  ____  ____  .  ___
 72
65
 73
6
 40
88.899999999999991
 49
25.399999999999999
 74
0
 49
-12.699999999999999
 74
0
 49
25.399999999999999
 74
0
 49
-12.699999999999999
 74
0
 49
0.0
 74
0
 49
-12.699999999999999
 74
0
  0
LTYPE
  5
32
100
AcDbSymbolTableRecord
100
AcDbLinetypeTableRecord
  2
ACAD_ISO13W100
 70
0
  3
ISO double-dash double-dot __ __ . . __ __ . . _
 72
65
 73
8
 40
36.0
 49
12.0
 74
0
 49
-3.0
 74
0
 49
12.0
 74
0
 49
-3.0
 74
0
 49
0.0
 74
0
 49
-3.0
 74
0
 49
0.0
 74
0
 49
-3.0
 74
0
  0
LTYPE
  5
33
100
AcDbSymbolTableRecord
100
AcDbLinetypeTableRecord
  2
ACAD_ISO03W100
 70
0
  3
ISO dash space __    __    __    __    __    __
 72
65
 73
2
 40
30.0
 49
12.0
 74
0
 49
-18.0
 74
0
  0
LTYPE
  5
34
100
AcDbSymbolTableRecord
100
AcDbLinetypeTableRecord
  2
DIVIDE2
 70
0
  3
Divide (.5x) __..__..__..__..__..__..__..__.._
 72
65
 73
6
 40
15.875
 49
6.3499999999999996
 74
0
 49
-3.1749999999999998
 74
0
 49
0.0
 74
0
 49
-3.1749999999999998
 74
0
 49
0.0
 74
0
 49
-3.1749999999999998
 74
0
  0
LTYPE
  5
35
100
AcDbSymbolTableRecord
100
AcDbLinetypeTableRecord
  2
HIDDENX2
 70
0
  3
Hidden (2x) ____ ____ ____ ____ ____ ____ ____ 
 72
65
 73
2
 40
19.049999999999997
 49
12.699999999999999
 74
0
 49
-6.3499999999999996
 74
0
  0
LTYPE
  5
36
100
AcDbSymbolTableRecord
100
AcDbLinetypeTableRecord
  2
DASHDOTX2
 70
0
  3
Dash dot (2x) ____  .  ____  .  ____  .  ___
 72
65
 73
4
 40
50.799999999999997
 49
25.399999999999999
 74
0
 49
-12.699999999999999
 74
0
 49
0.0
 74
0
 49
-12.699999999999999
 74
0
  0
LTYPE
  5
37
100
AcDbSymbolTableRecord
100
AcDbLinetypeTableRecord
  2
ACAD_ISO10W100
 70
0
  3
ISO dash dot __ . __ . __ . __ . __ . __ . __ . 
 72
65
 73
4
 40
18.0
 49
12.0
 74
0
 49
-3.0
 74
0
 49
0.0
 74
0
 49
-3.0
 74
0
  0
LTYPE
  5
15
100
AcDbSymbolTableRecord
100
AcDbLinetypeTableRecord
  2
BYLAYER
 70
0
  3

 72
65
 73
0
 40
0.0
  0
LTYPE
  5
38
100
AcDbSymbolTableRecord
100
AcDbLinetypeTableRecord
  2
BORDER
 70
0
  3
Border __ __ . __ __ . __ __ . __ __ . __ __ .
 72
65
 73
6
 40
44.449999999999996
 49
12.699999999999999
 74
0
 49
-6.3499999999999996
 74
0
 49
12.699999999999999
 74
0
 49
-6.3499999999999996
 74
0
 49
0.0
 74
0
 49
-6.3499999999999996
 74
0
  0
LTYPE
  5
39
100
AcDbSymbolTableRecord
100
AcDbLinetypeTableRecord
  2
DOT
 70
0
  3
Dot . . . . . . . . . . . . . . . . . . . . . . . .
 72
65
 73
2
 40
6.3499999999999996
 49
0.0
 74
0
 49
-6.3499999999999996
 74
0
  0
LTYPE
  5
3A
100
AcDbSymbolTableRecord
100
AcDbLinetypeTableRecord
  2
ACAD_ISO05W100
 70
0
  3
ISO long-dash double-dot ____ .. ____ .. ____ . 
 72
65
 73
6
 40
33.0
 49
24.0
 74
0
 49
-3.0
 74
0
 49
0.0
 74
0
 49
-3.0
 74
0
 49
0.0
 74
0
 49
-3.0
 74
0
  0
LTYPE
  5
3B
100
AcDbSymbolTableRecord
100
AcDbLinetypeTableRecord
  2
ACAD_ISO04W100
 70
0
  3
ISO long-dash dot ____ . ____ . ____ . ____ . _
 72
65
 73
4
 40
30.0
 49
24.0
 74
0
 49
-3.0
 74
0
 49
0.0
 74
0
 49
-3.0
 74
0
  0
LTYPE
  5
3C
100
AcDbSymbolTableRecord
100
AcDbLinetypeTableRecord
  2
DOT2
 70
0
  3
Dot (.5x) ........................................
 72
65
 73
2
 40
3.1749999999999998
 49
0.0
 74
0
 49
-3.1749999999999998
 74
0
  0
LTYPE
  5
3D
100
AcDbSymbolTableRecord
100
AcDbLinetypeTableRecord
  2
DASHED2
 70
0
  3
Dashed (.5x) _ _ _ _ _ _ _ _ _ _ _ _ _ _ _ _ _ 
 72
65
 73
2
 40
9.5249999999999986
 49
6.3499999999999996
 74
0
 49
-3.1749999999999998
 74
0
  0
LTYPE
  5
3E
100
AcDbSymbolTableRecord
100
AcDbLinetypeTableRecord
  2
DOTX2
 70
0
  3
Dot (2x) .  .  .  .  .  .  .  .  .  .  .  .  .  .
 72
65
 73
2
 40
12.699999999999999
 49
0.0
 74
0
 49
-12.699999999999999
 74
0
  0
LTYPE
  5
3F
100
AcDbSymbolTableRecord
100
AcDbLinetypeTableRecord
  2
CENTER
 70
0
  3
Center ____ _ ____ _ ____ _ ____ _ ____ _ ____
 72
65
 73
4
 40
50.800000000000004
 49
31.75
 74
0
 49
-6.3499999999999996
 74
0
 49
6.3499999999999996
 74
0
 49
-6.3499999999999996
 74
0
  0
LTYPE
  5
14
100
AcDbSymbolTableRecord
100
AcDbLinetypeTableRecord
  2
BYBLOCK
 70
0
  3

 72
65
 73
0
 40
0.0
  0
LTYPE
  5
40
100
AcDbSymbolTableRecord
100
AcDbLinetypeTableRecord
  2
ACAD_ISO08W100
 70
0
  3
ISO long-dash short-dash ____ __ ____ __ ____ _
 72
65
 73
4
 40
36.0
 49
24.0
 74
0
 49
-3.0
 74
0
 49
6.0
 74
0
 49
-3.0
 74
0
  0
LTYPE
  5
41
100
AcDbSymbolTableRecord
100
AcDbLinetypeTableRecord
  2
PHANTOMX2
 70
0
  3
Phantom (2x) ____________    ____    ____   _
 72
65
 73
6
 40
127.00000000000001
 49
63.5
 74
0
 49
-12.699999999999999
 74
0
 49
12.699999999999999
 74
0
 49
-12.699999999999999
 74
0
 49
12.699999999999999
 74
0
 49
-12.699999999999999
 74
0
  0
LTYPE
  5
42
100
AcDbSymbolTableRecord
100
AcDbLinetypeTableRecord
  2
CENTER2
 70
0
  3
Center (.5x) ___ _ ___ _ ___ _ ___ _ ___ _ ___
 72
65
 73
4
 40
28.575000000000003
 49
19.050000000000001
 74
0
 49
-3.1749999999999998
 74
0
 49
3.1749999999999998
 74
0
 49
-3.1749999999999998
 74
0
  0
LTYPE
  5
43
100
AcDbSymbolTableRecord
100
AcDbLinetypeTableRecord
  2
ACAD_ISO14W100
 70
0
  3
ISO dash triple-dot __ . . . __ . . . __ . . . _
 72
65
 73
8
 40
24.0
 49
12.0
 74
0
 49
-3.0
 74
0
 49
0.0
 74
0
 49
-3.0
 74
0
 49
0.0
 74
0
 49
-3.0
 74
0
 49
0.0
 74
0
 49
-3.0
 74
0
  0
LTYPE
  5
44
100
AcDbSymbolTableRecord
100
AcDbLinetypeTableRecord
  2
PHANTOM
 70
0
  3
Phantom ______  __  __  ______  __  __  ______ 
 72
65
 73
6
 40
63.500000000000007
 49
31.75
 74
0
 49
-6.3499999999999996
 74
0
 49
6.3499999999999996
 74
0
 49
-6.3499999999999996
 74
0
 49
6.3499999999999996
 74
0
 49
-6.3499999999999996
 74
0
  0
LTYPE
  5
45
100
AcDbSymbolTableRecord
100
AcDbLinetypeTableRecord
  2
DASHDOT
 70
0
  3
Dash dot __ . __ . __ . __ . __ . __ . __ . __
 72
65
 73
4
 40
25.399999999999999
 49
12.699999999999999
 74
0
 49
-6.3499999999999996
 74
0
 49
0.0
 74
0
 49
-6.3499999999999996
 74
0
  0
LTYPE
  5
46
100
AcDbSymbolTableRecord
100
AcDbLinetypeTableRecord
  2
DASHDOT2
 70
0
  3
Dash dot (.5x) _._._._._._._._._._._._._._._.
 72
65
 73
4
 40
12.699999999999999
 49
6.3499999999999996
 74
0
 49
-3.1749999999999998
 74
0
 49
0.0
 74
0
 49
-3.1749999999999998
 74
0
  0
LTYPE
  5
47
100
AcDbSymbolTableRecord
100
AcDbLinetypeTableRecord
  2
ACAD_ISO02W100
 70
0
  3
ISO dash __ __ __ __ __ __ __ __ __ __ __ __ __
 72
65
 73
2
 40
15.0
 49
12.0
 74
0
 49
-3.0
 74
0
  0
LTYPE
  5
48
100
AcDbSymbolTableRecord
100
AcDbLinetypeTableRecord
  2
BORDER2
 70
0
  3
Border (.5x) __.__.__.__.__.__.__.__.__.__.__.
 72
65
 73
6
 40
22.224999999999998
 49
6.3499999999999996
 74
0
 49
-3.1749999999999998
 74
0
 49
6.3499999999999996
 74
0
 49
-3.1749999999999998
 74
0
 49
0.0
 74
0
 49
-3.1749999999999998
 74
0
  0
LTYPE
  5
49
100
AcDbSymbolTableRecord
100
AcDbLinetypeTableRecord
  2
ACAD_ISO06W100
 70
0
  3
ISO long-dash triple-dot ____ ... ____ ... ____
 72
65
 73
8
 40
36.0
 49
24.0
 74
0
 49
-3.0
 74
0
 49
0.0
 74
0
 49
-3.0
 74
0
 49
0.0
 74
0
 49
-3.0
 74
0
 49
0.0
 74
0
 49
-3.0
 74
0
  0
LTYPE
  5
4A
100
AcDbSymbolTableRecord
100
AcDbLinetypeTableRecord
  2
DASHEDX2
 70
0
  3
Dashed (2x) ____  ____  ____  ____  ____  ___
 72
65
 73
2
 40
38.099999999999994
 49
25.399999999999999
 74
0
 49
-12.699999999999999
 74
0
  0
LTYPE
  5
4B
100
AcDbSymbolTableRecord
100
AcDbLinetypeTableRecord
  2
ACAD_ISO09W100
 70
0
  3
ISO long-dash double-short-dash ____ __ __ ____
 72
65
 73
6
 40
45.0
 49
24.0
 74
0
 49
-3.0
 74
0
 49
6.0
 74
0
 49
-3.0
 74
0
 49
6.0
 74
0
 49
-3.0
 74
0
  0
LTYPE
  5
4C
100
AcDbSymbolTableRecord
100
AcDbLinetypeTableRecord
  2
PHANTOM2
 70
0
  3
Phantom (.5x) ___ _ _ ___ _ _ ___ _ _ ___ _ _
 72
65
 73
6
 40
31.750000000000004
 49
15.875
 74
0
 49
-3.1749999999999998
 74
0
 49
3.1749999999999998
 74
0
 49
-3.1749999999999998
 74
0
 49
3.1749999999999998
 74
0
 49
-3.1749999999999998
 74
0
  0
LTYPE
  5
4D
100
AcDbSymbolTableRecord
100
AcDbLinetypeTableRecord
  2
DIVIDE
 70
0
  3
Divide ____ . . ____ . . ____ . . ____ . . ____
 72
65
 73
6
 40
31.75
 49
12.699999999999999
 74
0
 49
-6.3499999999999996
 74
0
 49
0.0
 74
0
 49
-6.3499999999999996
 74
0
 49
0.0
 74
0
 49
-6.3499999999999996
 74
0
  0
LTYPE
  5
4E
100
AcDbSymbolTableRecord
100
AcDbLinetypeTableRecord
  2
ACAD_ISO07W100
 70
0
  3
ISO dot . . . . . . . . . . . . . . . . . . . . 
 72
65
 73
2
 40
3.0
 49
0.0
 74
0
 49
-3.0
 74
0
  0
LTYPE
  5
4F
100
AcDbSymbolTableRecord
100
AcDbLinetypeTableRecord
  2
ACAD_ISO15W100
 70
0
  3
ISO double-dash triple-dot __ __ . . . __ __ . .
 72
65
 73
10
 40
39.0
 49
12.0
 74
0
 49
-3.0
 74
0
 49
12.0
 74
0
 49
-3.0
 74
0
 49
0.0
 74
0
 49
-3.0
 74
0
 49
0.0
 74
0
 49
-3.0
 74
0
 49
0.0
 74
0
 49
-3.0
 74
0
  0
LTYPE
  5
50
100
AcDbSymbolTableRecord
100
AcDbLinetypeTableRecord
  2
ACAD_ISO12W100
 70
0
  3
ISO dash double-dot __ . . __ . . __ . . __ . . 
 72
65
 73
6
 40
21.0
 49
12.0
 74
0
 49
-3.0
 74
0
 49
0.0
 74
0
 49
-3.0
 74
0
 49
0.0
 74
0
 49
-3.0
 74
0
  0
LTYPE
  5
51
100
AcDbSymbolTableRecord
100
AcDbLinetypeTableRecord
  2
DIVIDEX2
 70
0
  3
Divide (2x) ________  .  .  ________  .  .  _
 72
65
 73
6
 40
63.5
 49
25.399999999999999
 74
0
 49
-12.699999999999999
 74
0
 49
0.0
 74
0
 49
-12.699999999999999
 74
0
 49
0.0
 74
0
 49
-12.699999999999999
 74
0
  0
LTYPE
  5
52
100
AcDbSymbolTableRecord
100
AcDbLinetypeTableRecord
  2
HIDDEN
 70
0
  3
Hidden __ __ __ __ __ __ __ __ __ __ __ __ __ __
 72
65
 73
2
 40
9.5249999999999986
 49
6.3499999999999996
 74
0
 49
-3.1749999999999998
 74
0
  0
LTYPE
  5
53
100
AcDbSymbolTableRecord
100
AcDbLinetypeTableRecord
  2
ACAD_ISO11W100
 70
0
  3
ISO double-dash dot __ __ . __ __ . __ __ . __ _
 72
65
 73
6
 40
33.0
 49
12.0
 74
0
 49
-3.0
 74
0
 49
12.0
 74
0
 49
-3.0
 74
0
 49
0.0
 74
0
 49
-3.0
 74
0
  0
LTYPE
  5
54
100
AcDbSymbolTableRecord
100
AcDbLinetypeTableRecord
  2
HIDDEN2
 70
0
  3
Hidden (.5x) _ _ _ _ _ _ _ _ _ _ _ _ _ _ _ _ _ 
 72
65
 73
2
 40
4.7624999999999993
 49
3.1749999999999998
 74
0
 49
-1.5874999999999999
 74
0
  0
LTYPE
  5
55
100
AcDbSymbolTableRecord
100
AcDbLinetypeTableRecord
  2
CENTERX2
 70
0
  3
Center (2x) ________  __  ________  __  _____
 72
65
 73
4
 40
101.60000000000001
 49
63.5
 74
0
 49
-12.699999999999999
 74
0
 49
12.699999999999999
 74
0
 49
-12.699999999999999
 74
0
  0
LTYPE
  5
56
100
AcDbSymbolTableRecord
100
AcDbLinetypeTableRecord
  2
DASHED
 70
0
  3
Dashed __ __ __ __ __ __ __ __ __ __ __ __ __ _
 72
65
 73
2
 40
19.049999999999997
 49
12.699999999999999
 74
0
 49
-6.3499999999999996
 74
0
  0
ENDTAB
  0
TABLE
  2
LAYER
  5
2
100
AcDbSymbolTable
 70
3
  0
LAYER
  5
10
100
AcDbSymbolTableRecord
100
AcDbLayerTableRecord
  2
0
 70
0
 62
7
420
0
  6
Continuous
370
25
390
F
  0
LAYER
  5
57
100
AcDbSymbolTableRecord
100
AcDbLayerTableRecord
  2
Layer_1
 70
0
 62
7
  6
Continuous
370
5
390
F
  0
LAYER
  5
58
100
AcDbSymbolTableRecord
100
AcDbLayerTableRecord
  2
Fix
 70
0
 62
5
420
255
  6
Continuous
370
25
390
F
  0
ENDTAB
  0
TABLE
  2
STYLE
  5
3
100
AcDbSymbolTable
 70
1
  0
STYLE
  5
59
100
AcDbSymbolTableRecord
100
AcDbTextStyleTableRecord
  2
Standard
 70
0
 40
0.0
 41
1.0
 50
0.0
 71
0
 42
2.5
  3

  4

1001
ACAD
1000
txt
1071
0
  0
ENDTAB
  0
TABLE
  2
VIEW
  5
6
100
AcDbSymbolTable
 70
0
  0
ENDTAB
  0
TABLE
  2
UCS
  5
7
100
AcDbSymbolTable
 70
0
  0
ENDTAB
  0
TABLE
  2
APPID
  5
9
100
AcDbSymbolTable
 70
1
  0
APPID
  5
12
100
AcDbSymbolTableRecord
100
AcDbRegAppTableRecord
  2
ACAD
 70
0
  0
APPID
  5
5A
100
AcDbSymbolTableRecord
100
AcDbRegAppTableRecord
  2
QCAD
 70
0
  0
ENDTAB
  0
TABLE
  2
DIMSTYLE
  5
A
100
AcDbSymbolTable
 70
1
100
AcDbDimStyleTable
 71
0
  0
DIMSTYLE
105
27
100
AcDbSymbolTableRecord
100
AcDbDimStyleTableRecord
  2
Standard
 41
2.5
 42
0.625
 43
3.75
 44
1.25
 70
0
 73
0
 74
0
 77
1
 78
8
140
2.5
141
2.5
143
0.03937007874016
147
0.625
171
3
172
1
271
2
272
2
274
3
278
44
283
0
284
8
340
59
  0
ENDTAB
  0
TABLE
  2
BLOCK_RECORD
  5
1
100
AcDbSymbolTable
 70
1
  0
BLOCK_RECORD
  5
1F
100
AcDbSymbolTableRecord
100
AcDbBlockTableRecord
  2
*Model_Space
340
22
  0
BLOCK_RECORD
  5
1B
100
AcDbSymbolTableRecord
100
AcDbBlockTableRecord
  2
*Paper_Space
340
1E
  0
BLOCK_RECORD
  5
23
100
AcDbSymbolTableRecord
100
AcDbBlockTableRecord
  2
*Paper_Space0
340
26
  0
ENDTAB
  0
ENDSEC
  0
SECTION
  2
BLOCKS
  0
BLOCK
  5
20
100
AcDbEntity
  8
0
100
AcDbBlockBegin
  2
*Model_Space
 70
0
 10
0.0
 20
0.0
 30
0.0
  3
*Model_Space
  1

  0
ENDBLK
  5
21
100
AcDbEntity
  8
0
100
AcDbBlockEnd
  0
BLOCK
  5
1C
100
AcDbEntity
 67
1
  8
0
100
AcDbBlockBegin
  2
*Paper_Space
 70
0
 10
0.0
 20
0.0
 30
0.0
  3
*Paper_Space
  1

  0
ENDBLK
  5
1D
100
AcDbEntity
 67
1
  8
0
100
AcDbBlockEnd
  0
BLOCK
  5
24
100
AcDbEntity
  8
0
100
AcDbBlockBegin
  2
*Paper_Space0
 70
0
 10
0.0
 20
0.0
 30
0.0
  3
*Paper_Space0
  1

  0
ENDBLK
  5
25
100
AcDbEntity
  8
0
100
AcDbBlockEnd
  0
ENDSEC
  0
SECTION
  2
ENTITIES
  0
LINE
  5
5B
100
AcDbEntity
  8
Fix
 62
256
370
-1
 48
1.0
  6
BYLAYER
100
AcDbLine
 10
295.01445000000029
 20
157.8437499999996
 30
0.0
 11
248.42485000000005
 21
189.60854999999998
 31
0.0
  0
LINE
  5
5C
100
AcDbEntity
  8
Fix
 62
256
370
-1
 48
1.0
  6
BYLAYER
100
AcDbLine
 10
248.64794999999987
 20
203.67984999999999
 30
0.0
 11
297.70154999999994
 21
236.49885
 31
0.0
  0
LINE
  5
5D
100
AcDbEntity
  8
Fix
 62
256
370
-1
 48
1.0
  6
BYLAYER
100
AcDbLine
 10
211.81054999999995
 20
98.580049999999986
 30
0.0
 11
215.99545000000003
 21
153.75334999999998
 31
0.0
  0
LINE
  5
5E
100
AcDbEntity
  8
Fix
 62
256
370
-1
 48
1.0
  6
BYLAYER
100
AcDbLine
 10
228.31874999999994
 20
160.52264999999997
 30
0.0
 11
281.26934999999992
 21
134.45074999999997
 31
0.0
  0
LINE
  5
5F
100
AcDbEntity
  8
Layer_1
 62
7
420
16777215
370
-1
 48
1.0
  6
BYLAYER
100
AcDbLine
 10
42.142849999999925
 20
259.39245
 30
0.0
 11
43.199950000000001
 21
262.15124999999995
 31
0.0
  0
LINE
  5
60
100
AcDbEntity
  8
Layer_1
 62
7
420
16777215
370
-1
 48
1.0
  6
BYLAYER
100
AcDbLine
 10
43.199950000000001
 20
262.15124999999995
 30
0.0
 11
44.26034999999996
 21
264.78125
 31
0.0
  0
LINE
  5
61
100
AcDbEntity
  8
Layer_1
 62
7
420
16777215
370
-1
 48
1.0
  6
BYLAYER
100
AcDbLine
 10
44.26034999999996
 20
264.78125
 30
0.0
 11
45.369149999999962
 21
267.39134999999999
 31
0.0
  0
LINE
  5
62
100
AcDbEntity
  8
Layer_1
 62
7
420
16777215
370
-1
 48
1.0
  6
BYLAYER
100
AcDbLine
 10
45.369149999999962
 20
267.39134999999999
 30
0.0
 11
46.571650000000005
 21
270.09234999999995
 31
0.0
  0
LINE
  5
63
100
AcDbEntity
  8
Layer_1
 62
7
420
16777215
370
-1
 48
1.0
  6
BYLAYER
100
AcDbLine
 10
46.571650000000005
 20
270.09234999999995
 30
0.0
 11
25.971149999999994
 21
291.78525000000002
 31
0.0
  0
LINE
  5
64
100
AcDbEntity
  8
Layer_1
 62
7
420
16777215
370
-1
 48
1.0
  6
BYLAYER
100
AcDbLine
 10
25.971149999999994
 20
291.78525000000002
 30
0.0
 11
27.789549999999963
 21
295.15215000000001
 31
0.0
  0
LINE
  5
65
100
AcDbEntity
  8
Layer_1
 62
7
420
16777215
370
-1
 48
1.0
  6
BYLAYER
100
AcDbLine
 10
27.789549999999963
 20
295.15215000000001
 30
0.0
 11
29.594549999999913
 21
298.35044999999997
 31
0.0
  0
LINE
  5
66
100
AcDbEntity
  8
Layer_1
 62
7
420
16777215
370
-1
 48
1.0
  6
BYLAYER
100
AcDbLine
 10
29.594549999999913
 20
298.35044999999997
 30
0.0
 11
31.462049999999948
 21
301.51315
 31
0.0
  0
LINE
  5
67
100
AcDbEntity
  8
Layer_1
 62
7
420
16777215
370
-1
 48
1.0
  6
BYLAYER
100
AcDbLine
 10
31.462049999999948
 20
301.51315
 30
0.0
 11
33.468549999999993
 21
304.77355
 31
0.0
  0
LINE
  5
68
100
AcDbEntity
  8
Layer_1
 62
7
420
16777215
370
-1
 48
1.0
  6
BYLAYER
100
AcDbLine
 10
33.468549999999993
 20
304.77355
 30
0.0
 11
62.777049999999946
 21
298.12844999999993
 31
0.0
  0
LINE
  5
69
100
AcDbEntity
  8
Layer_1
 62
7
420
16777215
370
-1
 48
1.0
  6
BYLAYER
100
AcDbLine
 10
62.777049999999946
 20
298.12844999999993
 30
0.0
 11
64.491150000000005
 21
300.48554999999999
 31
0.0
  0
LINE
  5
6A
100
AcDbEntity
  8
Layer_1
 62
7
420
16777215
370
-1
 48
1.0
  6
BYLAYER
100
AcDbLine
 10
64.491150000000005
 20
300.48554999999999
 30
0.0
 11
66.174549999999954
 21
302.72054999999995
 31
0.0
  0
LINE
  5
6B
100
AcDbEntity
  8
Layer_1
 62
7
420
16777215
370
-1
 48
1.0
  6
BYLAYER
100
AcDbLine
 10
66.174549999999954
 20
302.72054999999995
 30
0.0
 11
67.898649999999975
 21
304.91774999999996
 31
0.0
  0
LINE
  5
6C
100
AcDbEntity
  8
Layer_1
 62
7
420
16777215
370
-1
 48
1.0
  6
BYLAYER
100
AcDbLine
 10
67.898649999999975
 20
304.91774999999996
 30
0.0
 11
69.734249999999946
 21
307.18154999999996
 31
0.0
  0
LINE
  5
6D
100
AcDbEntity
  8
Layer_1
 62
7
420
16777215
370
-1
 48
1.0
  6
BYLAYER
100
AcDbLine
 10
69.734249999999946
 20
307.18154999999996
 30
0.0
 11
55.542450000000002
 21
333.57525000000004
 31
0.0
  0
LINE
  5
6E
100
AcDbEntity
  8
Layer_1
 62
7
420
16777215
370
-1
 48
1.0
  6
BYLAYER
100
AcDbLine
 10
55.542450000000002
 20
333.57525000000004
 30
0.0
 11
58.270149999999973
 21
336.46944999999994
 31
0.0
  0
LINE
  5
6F
100
AcDbEntity
  8
Layer_1
 62
7
420
16777215
370
-1
 48
1.0
  6
BYLAYER
100
AcDbLine
 10
58.270149999999973
 20
336.46944999999994
 30
0.0
 11
60.941149999999936
 21
339.19494999999995
 31
0.0
  0
LINE
  5
70
100
AcDbEntity
  8
Layer_1
 62
7
420
16777215
370
-1
 48
1.0
  6
BYLAYER
100
AcDbLine
 10
60.941149999999936
 20
339.19494999999995
 30
0.0
 11
63.667349999999971
 21
341.86714999999998
 31
0.0
  0
LINE
  5
71
100
AcDbEntity
  8
Layer_1
 62
7
420
16777215
370
-1
 48
1.0
  6
BYLAYER
100
AcDbLine
 10
63.667349999999971
 20
341.86714999999998
 30
0.0
 11
66.560549999999978
 21
344.59704999999997
 31
0.0
  0
LINE
  5
72
100
AcDbEntity
  8
Layer_1
 62
7
420
16777215
370
-1
 48
1.0
  6
BYLAYER
100
AcDbLine
 10
66.560549999999978
 20
344.59704999999997
 30
0.0
 11
92.970549999999989
 21
330.40594999999996
 31
0.0
  0
LINE
  5
73
100
AcDbEntity
  8
Layer_1
 62
7
420
16777215
370
-1
 48
1.0
  6
BYLAYER
100
AcDbLine
 10
92.970549999999989
 20
330.40594999999996
 30
0.0
 11
95.248249999999942
 21
332.24804999999998
 31
0.0
  0
LINE
  5
74
100
AcDbEntity
  8
Layer_1
 62
7
420
16777215
370
-1
 48
1.0
  6
BYLAYER
100
AcDbLine
 10
95.248249999999942
 20
332.24804999999998
 30
0.0
 11
97.464450000000014
 21
333.97924999999998
 31
0.0
  0
LINE
  5
75
100
AcDbEntity
  8
Layer_1
 62
7
420
16777215
370
-1
 48
1.0
  6
BYLAYER
100
AcDbLine
 10
97.464450000000014
 20
333.97924999999998
 30
0.0
 11
99.712149999999951
 21
335.66604999999998
 31
0.0
  0
LINE
  5
76
100
AcDbEntity
  8
Layer_1
 62
7
420
16777215
370
-1
 48
1.0
  6
BYLAYER
100
AcDbLine
 10
99.712149999999951
 20
335.66604999999998
 30
0.0
 11
102.08434999999997
 21
337.39715000000001
 31
0.0
  0
LINE
  5
77
100
AcDbEntity
  8
Layer_1
 62
7
420
16777215
370
-1
 48
1.0
  6
BYLAYER
100
AcDbLine
 10
102.08434999999997
 20
337.39715000000001
 30
0.0
 11
95.295349999999956
 21
366.63394999999997
 31
0.0
  0
LINE
  5
78
100
AcDbEntity
  8
Layer_1
 62
7
420
16777215
370
-1
 48
1.0
  6
BYLAYER
100
AcDbLine
 10
95.295349999999956
 20
366.63394999999997
 30
0.0
 11
98.519250000000014
 21
368.63145000000003
 31
0.0
  0
LINE
  5
79
100
AcDbEntity
  8
Layer_1
 62
7
420
16777215
370
-1
 48
1.0
  6
BYLAYER
100
AcDbLine
 10
98.519250000000014
 20
368.63145000000003
 30
0.0
 11
101.64764999999996
 21
370.47364999999996
 31
0.0
  0
LINE
  5
7A
100
AcDbEntity
  8
Layer_1
 62
7
420
16777215
370
-1
 48
1.0
  6
BYLAYER
100
AcDbLine
 10
101.64764999999996
 20
370.47364999999996
 30
0.0
 11
104.81175
 21
372.27134999999998
 31
0.0
  0
LINE
  5
7B
100
AcDbEntity
  8
Layer_1
 62
7
420
16777215
370
-1
 48
1.0
  6
BYLAYER
100
AcDbLine
 10
104.81175
 20
372.27134999999998
 30
0.0
 11
108.14194999999999
 21
374.06914999999992
 31
0.0
  0
LINE
  5
7C
100
AcDbEntity
  8
Layer_1
 62
7
420
16777215
370
-1
 48
1.0
  6
BYLAYER
100
AcDbLine
 10
108.14194999999999
 20
374.06914999999992
 30
0.0
 11
130.14654999999999
 21
353.62354999999997
 31
0.0
  0
LINE
  5
7D
100
AcDbEntity
  8
Layer_1
 62
7
420
16777215
370
-1
 48
1.0
  6
BYLAYER
100
AcDbLine
 10
130.14654999999999
 20
353.62354999999997
 30
0.0
 11
132.84334999999999
 21
354.82204999999999
 31
0.0
  0
LINE
  5
7E
100
AcDbEntity
  8
Layer_1
 62
7
420
16777215
370
-1
 48
1.0
  6
BYLAYER
100
AcDbLine
 10
132.84334999999999
 20
354.82204999999999
 30
0.0
 11
135.45144999999997
 21
355.93174999999991
 31
0.0
  0
LINE
  5
7F
100
AcDbEntity
  8
Layer_1
 62
7
420
16777215
370
-1
 48
1.0
  6
BYLAYER
100
AcDbLine
 10
135.45144999999997
 20
355.93174999999991
 30
0.0
 11
138.07954999999995
 21
356.99714999999998
 31
0.0
  0
LINE
  5
80
100
AcDbEntity
  8
Layer_1
 62
7
420
16777215
370
-1
 48
1.0
  6
BYLAYER
100
AcDbLine
 10
138.07954999999995
 20
356.99714999999998
 30
0.0
 11
140.83674999999999
 21
358.0624499999999
 31
0.0
  0
LINE
  5
81
100
AcDbEntity
  8
Layer_1
 62
7
420
16777215
370
-1
 48
1.0
  6
BYLAYER
100
AcDbLine
 10
140.83674999999999
 20
358.0624499999999
 30
0.0
 11
141.81624999999994
 21
388.06055000000003
 31
0.0
  0
LINE
  5
82
100
AcDbEntity
  8
Layer_1
 62
7
420
16777215
370
-1
 48
1.0
  6
BYLAYER
100
AcDbLine
 10
141.81624999999994
 20
388.06055000000003
 30
0.0
 11
145.55815000000001
 21
389.17024999999995
 31
0.0
  0
LINE
  5
83
100
AcDbEntity
  8
Layer_1
 62
7
420
16777215
370
-1
 48
1.0
  6
BYLAYER
100
AcDbLine
 10
145.55815000000001
 20
389.17024999999995
 30
0.0
 11
149.16934999999995
 21
390.16904999999997
 31
0.0
  0
LINE
  5
84
100
AcDbEntity
  8
Layer_1
 62
7
420
16777215
370
-1
 48
1.0
  6
BYLAYER
100
AcDbLine
 10
149.16934999999995
 20
390.16904999999997
 30
0.0
 11
152.80075000000002
 21
391.10114999999996
 31
0.0
  0
LINE
  5
85
100
AcDbEntity
  8
Layer_1
 62
7
420
16777215
370
-1
 48
1.0
  6
BYLAYER
100
AcDbLine
 10
152.80075000000002
 20
391.10114999999996
 30
0.0
 11
156.60294999999999
 21
391.98894999999993
 31
0.0
  0
LINE
  5
86
100
AcDbEntity
  8
Layer_1
 62
7
420
16777215
370
-1
 48
1.0
  6
BYLAYER
100
AcDbLine
 10
156.60294999999999
 20
391.98894999999993
 30
0.0
 11
172.68024999999989
 21
366.51184999999998
 31
0.0
  0
LINE
  5
87
100
AcDbEntity
  8
Layer_1
 62
7
420
16777215
370
-1
 48
1.0
  6
BYLAYER
100
AcDbLine
 10
172.68024999999989
 20
366.51184999999998
 30
0.0
 11
175.60624999999996
 21
366.95575000000002
 31
0.0
  0
LINE
  5
88
100
AcDbEntity
  8
Layer_1
 62
7
420
16777215
370
-1
 48
1.0
  6
BYLAYER
100
AcDbLine
 10
175.60624999999996
 20
366.95575000000002
 30
0.0
 11
178.42185000000006
 21
367.3330499999999
 31
0.0
  0
LINE
  5
89
100
AcDbEntity
  8
Layer_1
 62
7
420
16777215
370
-1
 48
1.0
  6
BYLAYER
100
AcDbLine
 10
178.42185000000006
 20
367.3330499999999
 30
0.0
 11
181.2439499999999
 21
367.66604999999993
 31
0.0
  0
LINE
  5
8A
100
AcDbEntity
  8
Layer_1
 62
7
420
16777215
370
-1
 48
1.0
  6
BYLAYER
100
AcDbLine
 10
181.2439499999999
 20
367.66604999999993
 30
0.0
 11
184.19014999999996
 21
367.97674999999992
 31
0.0
  0
LINE
  5
8B
100
AcDbEntity
  8
Layer_1
 62
7
420
16777215
370
-1
 48
1.0
  6
BYLAYER
100
AcDbLine
 10
184.19014999999996
 20
367.97674999999992
 30
0.0
 11
192.56184999999996
 21
396.64314999999999
 31
0.0
  0
LINE
  5
8C
100
AcDbEntity
  8
Layer_1
 62
7
420
16777215
370
-1
 48
1.0
  6
BYLAYER
100
AcDbLine
 10
192.56184999999996
 20
396.64314999999999
 30
0.0
 11
196.60815000000005
 21
396.64314999999999
 31
0.0
  0
LINE
  5
8D
100
AcDbEntity
  8
Layer_1
 62
7
420
16777215
370
-1
 48
1.0
  6
BYLAYER
100
AcDbLine
 10
196.60815000000005
 20
396.64314999999999
 30
0.0
 11
200.49304999999995
 21
396.64314999999999
 31
0.0
  0
LINE
  5
8E
100
AcDbEntity
  8
Layer_1
 62
7
420
16777215
370
-1
 48
1.0
  6
BYLAYER
100
AcDbLine
 10
200.49304999999995
 20
396.64314999999999
 30
0.0
 11
204.37754999999999
 21
396.64314999999999
 31
0.0
  0
LINE
  5
8F
100
AcDbEntity
  8
Layer_1
 62
7
420
16777215
370
-1
 48
1.0
  6
BYLAYER
100
AcDbLine
 10
204.37754999999999
 20
396.64314999999999
 30
0.0
 11
208.42264999999989
 21
396.42114999999995
 31
0.0
  0
LINE
  5
90
100
AcDbEntity
  8
Layer_1
 62
7
420
16777215
370
-1
 48
1.0
  6
BYLAYER
100
AcDbLine
 10
208.42264999999989
 20
396.42114999999995
 30
0.0
 11
216.4665499999999
 21
367.72814999999997
 31
0.0
  0
LINE
  5
91
100
AcDbEntity
  8
Layer_1
 62
7
420
16777215
370
-1
 48
1.0
  6
BYLAYER
100
AcDbLine
 10
216.4665499999999
 20
367.72814999999997
 30
0.0
 11
219.48154999999997
 21
367.41744999999997
 31
0.0
  0
LINE
  5
92
100
AcDbEntity
  8
Layer_1
 62
7
420
16777215
370
-1
 48
1.0
  6
BYLAYER
100
AcDbLine
 10
219.48154999999997
 20
367.41744999999997
 30
0.0
 11
222.37024999999991
 21
367.06234999999998
 31
0.0
  0
LINE
  5
93
100
AcDbEntity
  8
Layer_1
 62
7
420
16777215
370
-1
 48
1.0
  6
BYLAYER
100
AcDbLine
 10
222.37024999999991
 20
367.06234999999998
 30
0.0
 11
225.25164999999996
 21
366.64064999999994
 31
0.0
  0
LINE
  5
94
100
AcDbEntity
  8
Layer_1
 62
7
420
16777215
370
-1
 48
1.0
  6
BYLAYER
100
AcDbLine
 10
225.25164999999996
 20
366.64064999999994
 30
0.0
 11
228.24544999999992
 21
366.15234999999996
 31
0.0
  0
LINE
  5
95
100
AcDbEntity
  8
Layer_1
 62
7
420
16777215
370
-1
 48
1.0
  6
BYLAYER
100
AcDbLine
 10
228.24544999999992
 20
366.15234999999996
 30
0.0
 11
243.68174999999991
 21
391.72034999999994
 31
0.0
  0
LINE
  5
96
100
AcDbEntity
  8
Layer_1
 62
7
420
16777215
370
-1
 48
1.0
  6
BYLAYER
100
AcDbLine
 10
243.68174999999991
 20
391.72034999999994
 30
0.0
 11
247.52985000000001
 21
390.81045
 31
0.0
  0
LINE
  5
97
100
AcDbEntity
  8
Layer_1
 62
7
420
16777215
370
-1
 48
1.0
  6
BYLAYER
100
AcDbLine
 10
247.52985000000001
 20
390.81045
 30
0.0
 11
251.20564999999991
 21
389.85604999999998
 31
0.0
  0
LINE
  5
98
100
AcDbEntity
  8
Layer_1
 62
7
420
16777215
370
-1
 48
1.0
  6
BYLAYER
100
AcDbLine
 10
251.20564999999991
 20
389.85604999999998
 30
0.0
 11
254.8613499999999
 21
388.83514999999989
 31
0.0
  0
LINE
  5
99
100
AcDbEntity
  8
Layer_1
 62
7
420
16777215
370
-1
 48
1.0
  6
BYLAYER
100
AcDbLine
 10
254.8613499999999
 20
388.83514999999989
 30
0.0
 11
258.64915000000002
 21
387.70314999999994
 31
0.0
  0
LINE
  5
9A
100
AcDbEntity
  8
Layer_1
 62
7
420
16777215
370
-1
 48
1.0
  6
BYLAYER
100
AcDbLine
 10
258.64915000000002
 20
387.70314999999994
 30
0.0
 11
259.62865000000005
 21
357.67844999999988
 31
0.0
  0
LINE
  5
9B
100
AcDbEntity
  8
Layer_1
 62
7
420
16777215
370
-1
 48
1.0
  6
BYLAYER
100
AcDbLine
 10
259.62865000000005
 20
357.67844999999988
 30
0.0
 11
262.31754999999993
 21
356.63535000000002
 31
0.0
  0
LINE
  5
9C
100
AcDbEntity
  8
Layer_1
 62
7
420
16777215
370
-1
 48
1.0
  6
BYLAYER
100
AcDbLine
 10
262.31754999999993
 20
356.63535000000002
 30
0.0
 11
264.88094999999998
 21
355.59224999999998
 31
0.0
  0
LINE
  5
9D
100
AcDbEntity
  8
Layer_1
 62
7
420
16777215
370
-1
 48
1.0
  6
BYLAYER
100
AcDbLine
 10
264.88094999999998
 20
355.59224999999998
 30
0.0
 11
267.42505000000006
 21
354.50465000000003
 31
0.0
  0
LINE
  5
9E
100
AcDbEntity
  8
Layer_1
 62
7
420
16777215
370
-1
 48
1.0
  6
BYLAYER
100
AcDbLine
 10
267.42505000000006
 20
354.50465000000003
 30
0.0
 11
270.05615
 21
353.32835
 31
0.0
  0
LINE
  5
9F
100
AcDbEntity
  8
Layer_1
 62
7
420
16777215
370
-1
 48
1.0
  6
BYLAYER
100
AcDbLine
 10
270.05615
 20
353.32835
 30
0.0
 11
292.22244999999998
 21
373.66294999999997
 31
0.0
  0
LINE
  5
A0
100
AcDbEntity
  8
Layer_1
 62
7
420
16777215
370
-1
 48
1.0
  6
BYLAYER
100
AcDbLine
 10
292.22244999999998
 20
373.66294999999997
 30
0.0
 11
295.58855
 21
371.84304999999995
 31
0.0
  0
LINE
  5
A1
100
AcDbEntity
  8
Layer_1
 62
7
420
16777215
370
-1
 48
1.0
  6
BYLAYER
100
AcDbLine
 10
295.58855
 20
371.84304999999995
 30
0.0
 11
298.78534999999988
 21
370.02305000000001
 31
0.0
  0
LINE
  5
A2
100
AcDbEntity
  8
Layer_1
 62
7
420
16777215
370
-1
 48
1.0
  6
BYLAYER
100
AcDbLine
 10
298.78534999999988
 20
370.02305000000001
 30
0.0
 11
301.94544999999994
 21
368.13654999999994
 31
0.0
  0
LINE
  5
A3
100
AcDbEntity
  8
Layer_1
 62
7
420
16777215
370
-1
 48
1.0
  6
BYLAYER
100
AcDbLine
 10
301.94544999999994
 20
368.13654999999994
 30
0.0
 11
305.20164999999997
 21
366.11684999999989
 31
0.0
  0
LINE
  5
A4
100
AcDbEntity
  8
Layer_1
 62
7
420
16777215
370
-1
 48
1.0
  6
BYLAYER
100
AcDbLine
 10
305.20164999999997
 20
366.11684999999989
 30
0.0
 11
298.10995000000003
 21
337.07534999999996
 31
0.0
  0
LINE
  5
A5
100
AcDbEntity
  8
Layer_1
 62
7
420
16777215
370
-1
 48
1.0
  6
BYLAYER
100
AcDbLine
 10
298.10995000000003
 20
337.07534999999996
 30
0.0
 11
300.47895000000005
 21
335.3441499999999
 31
0.0
  0
LINE
  5
A6
100
AcDbEntity
  8
Layer_1
 62
7
420
16777215
370
-1
 48
1.0
  6
BYLAYER
100
AcDbLine
 10
300.47895000000005
 20
335.3441499999999
 30
0.0
 11
302.72344999999996
 21
333.63524999999998
 31
0.0
  0
LINE
  5
A7
100
AcDbEntity
  8
Layer_1
 62
7
420
16777215
370
-1
 48
1.0
  6
BYLAYER
100
AcDbLine
 10
302.72344999999996
 20
333.63524999999998
 30
0.0
 11
304.93654999999995
 21
331.90404999999998
 31
0.0
  0
LINE
  5
A8
100
AcDbEntity
  8
Layer_1
 62
7
420
16777215
370
-1
 48
1.0
  6
BYLAYER
100
AcDbLine
 10
304.93654999999995
 20
331.90404999999998
 30
0.0
 11
307.21105
 21
330.06184999999994
 31
0.0
  0
LINE
  5
A9
100
AcDbEntity
  8
Layer_1
 62
7
420
16777215
370
-1
 48
1.0
  6
BYLAYER
100
AcDbLine
 10
307.21105
 20
330.06184999999994
 30
0.0
 11
333.64634999999998
 21
344.19314999999995
 31
0.0
  0
LINE
  5
AA
100
AcDbEntity
  8
Layer_1
 62
7
420
16777215
370
-1
 48
1.0
  6
BYLAYER
100
AcDbLine
 10
333.64634999999998
 20
344.19314999999995
 30
0.0
 11
336.51104999999995
 21
341.48314999999997
 31
0.0
  0
LINE
  5
AB
100
AcDbEntity
  8
Layer_1
 62
7
420
16777215
370
-1
 48
1.0
  6
BYLAYER
100
AcDbLine
 10
336.51104999999995
 20
341.48314999999997
 30
0.0
 11
339.21055000000001
 21
338.83314999999999
 31
0.0
  0
LINE
  5
AC
100
AcDbEntity
  8
Layer_1
 62
7
420
16777215
370
-1
 48
1.0
  6
BYLAYER
100
AcDbLine
 10
339.21055000000001
 20
338.83314999999999
 30
0.0
 11
341.85574999999994
 21
336.1276499999999
 31
0.0
  0
LINE
  5
AD
100
AcDbEntity
  8
Layer_1
 62
7
420
16777215
370
-1
 48
1.0
  6
BYLAYER
100
AcDbLine
 10
341.85574999999994
 20
336.1276499999999
 30
0.0
 11
344.55724999999995
 21
333.25564999999995
 31
0.0
  0
LINE
  5
AE
100
AcDbEntity
  8
Layer_1
 62
7
420
16777215
370
-1
 48
1.0
  6
BYLAYER
100
AcDbLine
 10
344.55724999999995
 20
333.25564999999995
 30
0.0
 11
330.60494999999992
 21
306.53354999999999
 31
0.0
  0
LINE
  5
AF
100
AcDbEntity
  8
Layer_1
 62
7
420
16777215
370
-1
 48
1.0
  6
BYLAYER
100
AcDbLine
 10
330.60494999999992
 20
306.53354999999999
 30
0.0
 11
332.40334999999993
 21
304.29854999999998
 31
0.0
  0
LINE
  5
B0
100
AcDbEntity
  8
Layer_1
 62
7
420
16777215
370
-1
 48
1.0
  6
BYLAYER
100
AcDbLine
 10
332.40334999999993
 20
304.29854999999998
 30
0.0
 11
334.09325000000001
 21
302.12344999999999
 31
0.0
  0
LINE
  5
B1
100
AcDbEntity
  8
Layer_1
 62
7
420
16777215
370
-1
 48
1.0
  6
BYLAYER
100
AcDbLine
 10
334.09325000000001
 20
302.12344999999999
 30
0.0
 11
335.74414999999993
 21
299.92624999999998
 31
0.0
  0
LINE
  5
B2
100
AcDbEntity
  8
Layer_1
 62
7
420
16777215
370
-1
 48
1.0
  6
BYLAYER
100
AcDbLine
 10
335.74414999999993
 20
299.92624999999998
 30
0.0
 11
337.42554999999993
 21
297.60024999999996
 31
0.0
  0
LINE
  5
B3
100
AcDbEntity
  8
Layer_1
 62
7
420
16777215
370
-1
 48
1.0
  6
BYLAYER
100
AcDbLine
 10
337.42554999999993
 20
297.60024999999996
 30
0.0
 11
366.46715
 21
304.66034999999999
 31
0.0
  0
LINE
  5
B4
100
AcDbEntity
  8
Layer_1
 62
7
420
16777215
370
-1
 48
1.0
  6
BYLAYER
100
AcDbLine
 10
366.46715
 20
304.66034999999999
 30
0.0
 11
368.5343499999999
 21
301.30674999999997
 31
0.0
  0
LINE
  5
B5
100
AcDbEntity
  8
Layer_1
 62
7
420
16777215
370
-1
 48
1.0
  6
BYLAYER
100
AcDbLine
 10
368.5343499999999
 20
301.30674999999997
 30
0.0
 11
370.45634999999999
 21
298.04854999999998
 31
0.0
  0
LINE
  5
B6
100
AcDbEntity
  8
Layer_1
 62
7
420
16777215
370
-1
 48
1.0
  6
BYLAYER
100
AcDbLine
 10
370.45634999999999
 20
298.04854999999998
 30
0.0
 11
372.31165000000004
 21
294.75265000000002
 31
0.0
  0
LINE
  5
B7
100
AcDbEntity
  8
Layer_1
 62
7
420
16777215
370
-1
 48
1.0
  6
BYLAYER
100
AcDbLine
 10
372.31165000000004
 20
294.75265000000002
 30
0.0
 11
374.17904999999996
 21
291.28364999999997
 31
0.0
  0
LINE
  5
B8
100
AcDbEntity
  8
Layer_1
 62
7
420
16777215
370
-1
 48
1.0
  6
BYLAYER
100
AcDbLine
 10
374.17904999999996
 20
291.28364999999997
 30
0.0
 11
353.58904999999999
 21
269.49984999999998
 31
0.0
  0
LINE
  5
B9
100
AcDbEntity
  8
Layer_1
 62
7
420
16777215
370
-1
 48
1.0
  6
BYLAYER
100
AcDbLine
 10
353.58904999999999
 20
269.49984999999998
 30
0.0
 11
354.77075000000002
 21
266.83644999999996
 31
0.0
  0
LINE
  5
BA
100
AcDbEntity
  8
Layer_1
 62
7
420
16777215
370
-1
 48
1.0
  6
BYLAYER
100
AcDbLine
 10
354.77075000000002
 20
266.83644999999996
 30
0.0
 11
355.86095
 21
264.25964999999997
 31
0.0
  0
LINE
  5
BB
100
AcDbEntity
  8
Layer_1
 62
7
420
16777215
370
-1
 48
1.0
  6
BYLAYER
100
AcDbLine
 10
355.86095
 20
264.25964999999997
 30
0.0
 11
356.90324999999996
 21
261.66294999999997
 31
0.0
  0
LINE
  5
BC
100
AcDbEntity
  8
Layer_1
 62
7
420
16777215
370
-1
 48
1.0
  6
BYLAYER
100
AcDbLine
 10
356.90324999999996
 20
261.66294999999997
 30
0.0
 11
357.94194999999991
 21
258.93964999999997
 31
0.0
  0
LINE
  5
BD
100
AcDbEntity
  8
Layer_1
 62
7
420
16777215
370
-1
 48
1.0
  6
BYLAYER
100
AcDbLine
 10
357.94194999999991
 20
258.93964999999997
 30
0.0
 11
387.80554999999993
 21
258.36264999999997
 31
0.0
  0
LINE
  5
BE
100
AcDbEntity
  8
Layer_1
 62
7
420
16777215
370
-1
 48
1.0
  6
BYLAYER
100
AcDbLine
 10
387.80554999999993
 20
258.36264999999997
 30
0.0
 11
388.95404999999994
 21
254.52735000000001
 31
0.0
  0
LINE
  5
BF
100
AcDbEntity
  8
Layer_1
 62
7
420
16777215
370
-1
 48
1.0
  6
BYLAYER
100
AcDbLine
 10
388.95404999999994
 20
254.52735000000001
 30
0.0
 11
389.98385000000007
 21
250.82754999999997
 31
0.0
  0
LINE
  5
C0
100
AcDbEntity
  8
Layer_1
 62
7
420
16777215
370
-1
 48
1.0
  6
BYLAYER
100
AcDbLine
 10
389.98385000000007
 20
250.82754999999997
 30
0.0
 11
390.93594999999999
 21
247.10554999999999
 31
0.0
  0
LINE
  5
C1
100
AcDbEntity
  8
Layer_1
 62
7
420
16777215
370
-1
 48
1.0
  6
BYLAYER
100
AcDbLine
 10
390.93594999999999
 20
247.10554999999999
 30
0.0
 11
391.85164999999995
 21
243.20824999999999
 31
0.0
  0
LINE
  5
C2
100
AcDbEntity
  8
Layer_1
 62
7
420
16777215
370
-1
 48
1.0
  6
BYLAYER
100
AcDbLine
 10
391.85164999999995
 20
243.20824999999999
 30
0.0
 11
366.31794999999988
 21
227.38574999999997
 31
0.0
  0
LINE
  5
C3
100
AcDbEntity
  8
Layer_1
 62
7
420
16777215
370
-1
 48
1.0
  6
BYLAYER
100
AcDbLine
 10
366.31794999999988
 20
227.38574999999997
 30
0.0
 11
366.75064999999989
 21
224.62475000000001
 31
0.0
  0
LINE
  5
C4
100
AcDbEntity
  8
Layer_1
 62
7
420
16777215
370
-1
 48
1.0
  6
BYLAYER
100
AcDbLine
 10
366.75064999999989
 20
224.62475000000001
 30
0.0
 11
367.12224999999995
 21
221.96584999999999
 31
0.0
  0
LINE
  5
C5
100
AcDbEntity
  8
Layer_1
 62
7
420
16777215
370
-1
 48
1.0
  6
BYLAYER
100
AcDbLine
 10
367.12224999999995
 20
221.96584999999999
 30
0.0
 11
367.44685000000004
 21
219.30254999999997
 31
0.0
  0
LINE
  5
C6
100
AcDbEntity
  8
Layer_1
 62
7
420
16777215
370
-1
 48
1.0
  6
BYLAYER
100
AcDbLine
 10
367.44685000000004
 20
219.30254999999997
 30
0.0
 11
367.73885000000001
 21
216.52154999999999
 31
0.0
  0
LINE
  5
C7
100
AcDbEntity
  8
Layer_1
 62
7
420
16777215
370
-1
 48
1.0
  6
BYLAYER
100
AcDbLine
 10
367.73885000000001
 20
216.52154999999999
 30
0.0
 11
396.45474999999988
 21
207.97225
 31
0.0
  0
LINE
  5
C8
100
AcDbEntity
  8
Layer_1
 62
7
420
16777215
370
-1
 48
1.0
  6
BYLAYER
100
AcDbLine
 10
396.45474999999988
 20
207.97225
 30
0.0
 11
396.57654999999988
 21
203.89064999999999
 31
0.0
  0
LINE
  5
C9
100
AcDbEntity
  8
Layer_1
 62
7
420
16777215
370
-1
 48
1.0
  6
BYLAYER
100
AcDbLine
 10
396.57654999999988
 20
203.89064999999999
 30
0.0
 11
396.61675000000002
 21
199.97114999999997
 31
0.0
  0
LINE
  5
CA
100
AcDbEntity
  8
Layer_1
 62
7
420
16777215
370
-1
 48
1.0
  6
BYLAYER
100
AcDbLine
 10
396.61675000000002
 20
199.97114999999997
 30
0.0
 11
396.57565000000005
 21
196.05154999999996
 31
0.0
  0
LINE
  5
CB
100
AcDbEntity
  8
Layer_1
 62
7
420
16777215
370
-1
 48
1.0
  6
BYLAYER
100
AcDbLine
 10
396.57565000000005
 20
196.05154999999996
 30
0.0
 11
396.45274999999998
 21
191.97004999999999
 31
0.0
  0
LINE
  5
CC
100
AcDbEntity
  8
Layer_1
 62
7
420
16777215
370
-1
 48
1.0
  6
BYLAYER
100
AcDbLine
 10
396.45274999999998
 20
191.97004999999999
 30
0.0
 11
367.76004999999998
 21
183.73364999999995
 31
0.0
  0
LINE
  5
CD
100
AcDbEntity
  8
Layer_1
 62
7
420
16777215
370
-1
 48
1.0
  6
BYLAYER
100
AcDbLine
 10
367.76004999999998
 20
183.73364999999995
 30
0.0
 11
367.4691499999999
 21
180.92824999999996
 31
0.0
  0
LINE
  5
CE
100
AcDbEntity
  8
Layer_1
 62
7
420
16777215
370
-1
 48
1.0
  6
BYLAYER
100
AcDbLine
 10
367.4691499999999
 20
180.92824999999996
 30
0.0
 11
367.14514999999994
 21
178.24274999999997
 31
0.0
  0
LINE
  5
CF
100
AcDbEntity
  8
Layer_1
 62
7
420
16777215
370
-1
 48
1.0
  6
BYLAYER
100
AcDbLine
 10
367.14514999999994
 20
178.24274999999997
 30
0.0
 11
366.77395000000001
 21
175.56164999999999
 31
0.0
  0
LINE
  5
D0
100
AcDbEntity
  8
Layer_1
 62
7
420
16777215
370
-1
 48
1.0
  6
BYLAYER
100
AcDbLine
 10
366.77395000000001
 20
175.56164999999999
 30
0.0
 11
366.34124999999989
 21
172.77404999999999
 31
0.0
  0
LINE
  5
D1
100
AcDbEntity
  8
Layer_1
 62
7
420
16777215
370
-1
 48
1.0
  6
BYLAYER
100
AcDbLine
 10
366.34124999999989
 20
172.77404999999999
 30
0.0
 11
391.94635
 21
157.22454999999997
 31
0.0
  0
LINE
  5
D2
100
AcDbEntity
  8
Layer_1
 62
7
420
16777215
370
-1
 48
1.0
  6
BYLAYER
100
AcDbLine
 10
391.94635
 20
157.22454999999997
 30
0.0
 11
391.02544999999998
 21
153.26944999999998
 31
0.0
  0
LINE
  5
D3
100
AcDbEntity
  8
Layer_1
 62
7
420
16777215
370
-1
 48
1.0
  6
BYLAYER
100
AcDbLine
 10
391.02544999999998
 20
153.26944999999998
 30
0.0
 11
390.06645000000003
 21
149.49194999999995
 31
0.0
  0
LINE
  5
D4
100
AcDbEntity
  8
Layer_1
 62
7
420
16777215
370
-1
 48
1.0
  6
BYLAYER
100
AcDbLine
 10
390.06645000000003
 20
149.49194999999995
 30
0.0
 11
389.02755000000008
 21
145.73445000000001
 31
0.0
  0
LINE
  5
D5
100
AcDbEntity
  8
Layer_1
 62
7
420
16777215
370
-1
 48
1.0
  6
BYLAYER
100
AcDbLine
 10
389.02755000000008
 20
145.73445000000001
 30
0.0
 11
387.86665000000005
 21
141.84375
 31
0.0
  0
LINE
  5
D6
100
AcDbEntity
  8
Layer_1
 62
7
420
16777215
370
-1
 48
1.0
  6
BYLAYER
100
AcDbLine
 10
387.86665000000005
 20
141.84375
 30
0.0
 11
357.96524999999991
 21
141.11134999999996
 31
0.0
  0
LINE
  5
D7
100
AcDbEntity
  8
Layer_1
 62
7
420
16777215
370
-1
 48
1.0
  6
BYLAYER
100
AcDbLine
 10
357.96524999999991
 20
141.11134999999996
 30
0.0
 11
356.92494999999985
 21
138.37705
 31
0.0
  0
LINE
  5
D8
100
AcDbEntity
  8
Layer_1
 62
7
420
16777215
370
-1
 48
1.0
  6
BYLAYER
100
AcDbLine
 10
356.92494999999985
 20
138.37705
 30
0.0
 11
355.88074999999992
 21
135.76915000000002
 31
0.0
  0
LINE
  5
D9
100
AcDbEntity
  8
Layer_1
 62
7
420
16777215
370
-1
 48
1.0
  6
BYLAYER
100
AcDbLine
 10
355.88074999999992
 20
135.76915000000002
 30
0.0
 11
354.78835000000004
 21
133.18344999999999
 31
0.0
  0
LINE
  5
DA
100
AcDbEntity
  8
Layer_1
 62
7
420
16777215
370
-1
 48
1.0
  6
BYLAYER
100
AcDbLine
 10
354.78835000000004
 20
133.18344999999999
 30
0.0
 11
353.60395000000005
 21
130.50684999999996
 31
0.0
  0
LINE
  5
DB
100
AcDbEntity
  8
Layer_1
 62
7
420
16777215
370
-1
 48
1.0
  6
BYLAYER
100
AcDbLine
 10
353.60395000000005
 20
130.50684999999996
 30
0.0
 11
374.20234999999991
 21
108.75844999999998
 31
0.0
  0
LINE
  5
DC
100
AcDbEntity
  8
Layer_1
 62
7
420
16777215
370
-1
 48
1.0
  6
BYLAYER
100
AcDbLine
 10
374.20234999999991
 20
108.75844999999998
 30
0.0
 11
372.38215000000002
 21
105.37374999999997
 31
0.0
  0
LINE
  5
DD
100
AcDbEntity
  8
Layer_1
 62
7
420
16777215
370
-1
 48
1.0
  6
BYLAYER
100
AcDbLine
 10
372.38215000000002
 20
105.37374999999997
 30
0.0
 11
370.57554999999991
 21
102.15554999999998
 31
0.0
  0
LINE
  5
DE
100
AcDbEntity
  8
Layer_1
 62
7
420
16777215
370
-1
 48
1.0
  6
BYLAYER
100
AcDbLine
 10
370.57554999999991
 20
102.15554999999998
 30
0.0
 11
368.70574999999985
 21
98.977349999999987
 31
0.0
  0
LINE
  5
DF
100
AcDbEntity
  8
Layer_1
 62
7
420
16777215
370
-1
 48
1.0
  6
BYLAYER
100
AcDbLine
 10
368.70574999999985
 20
98.977349999999987
 30
0.0
 11
366.69644999999997
 21
95.701449999999966
 31
0.0
  0
LINE
  5
E0
100
AcDbEntity
  8
Layer_1
 62
7
420
16777215
370
-1
 48
1.0
  6
BYLAYER
100
AcDbLine
 10
366.69644999999997
 20
95.701449999999966
 30
0.0
 11
337.24075000000005
 21
102.10674999999998
 31
0.0
  0
LINE
  5
E1
100
AcDbEntity
  8
Layer_1
 62
7
420
16777215
370
-1
 48
1.0
  6
BYLAYER
100
AcDbLine
 10
337.24075000000005
 20
102.10674999999998
 30
0.0
 11
335.62795000000006
 21
99.887349999999984
 31
0.0
  0
LINE
  5
E2
100
AcDbEntity
  8
Layer_1
 62
7
420
16777215
370
-1
 48
1.0
  6
BYLAYER
100
AcDbLine
 10
335.62795000000006
 20
99.887349999999984
 30
0.0
 11
334.0461499999999
 21
97.778849999999977
 31
0.0
  0
LINE
  5
E3
100
AcDbEntity
  8
Layer_1
 62
7
420
16777215
370
-1
 48
1.0
  6
BYLAYER
100
AcDbLine
 10
334.0461499999999
 20
97.778849999999977
 30
0.0
 11
332.42845
 21
95.692549999999983
 31
0.0
  0
LINE
  5
E4
100
AcDbEntity
  8
Layer_1
 62
7
420
16777215
370
-1
 48
1.0
  6
BYLAYER
100
AcDbLine
 10
332.42845
 20
95.692549999999983
 30
0.0
 11
330.70805000000007
 21
93.561949999999982
 31
0.0
  0
LINE
  5
E5
100
AcDbEntity
  8
Layer_1
 62
7
420
16777215
370
-1
 48
1.0
  6
BYLAYER
100
AcDbLine
 10
330.70805000000007
 20
93.561949999999982
 30
0.0
 11
344.56164999999987
 21
66.73984999999999
 31
0.0
  0
LINE
  5
E6
100
AcDbEntity
  8
Layer_1
 62
7
420
16777215
370
-1
 48
1.0
  6
BYLAYER
100
AcDbLine
 10
344.56164999999987
 20
66.73984999999999
 30
0.0
 11
341.88944999999995
 21
63.898949999999957
 31
0.0
  0
LINE
  5
E7
100
AcDbEntity
  8
Layer_1
 62
7
420
16777215
370
-1
 48
1.0
  6
BYLAYER
100
AcDbLine
 10
341.88944999999995
 20
63.898949999999957
 30
0.0
 11
339.27355
 21
61.220049999999986
 31
0.0
  0
LINE
  5
E8
100
AcDbEntity
  8
Layer_1
 62
7
420
16777215
370
-1
 48
1.0
  6
BYLAYER
100
AcDbLine
 10
339.27355
 20
61.220049999999986
 30
0.0
 11
336.6043499999999
 21
58.594449999999966
 31
0.0
  0
LINE
  5
E9
100
AcDbEntity
  8
Layer_1
 62
7
420
16777215
370
-1
 48
1.0
  6
BYLAYER
100
AcDbLine
 10
336.6043499999999
 20
58.594449999999966
 30
0.0
 11
333.77265
 21
55.911149999999992
 31
0.0
  0
LINE
  5
EA
100
AcDbEntity
  8
Layer_1
 62
7
420
16777215
370
-1
 48
1.0
  6
BYLAYER
100
AcDbLine
 10
333.77265
 20
55.911149999999992
 30
0.0
 11
307.43815000000006
 21
70.075649999999968
 31
0.0
  0
LINE
  5
EB
100
AcDbEntity
  8
Layer_1
 62
7
420
16777215
370
-1
 48
1.0
  6
BYLAYER
100
AcDbLine
 10
307.43815000000006
 20
70.075649999999968
 30
0.0
 11
305.12554999999992
 21
68.166949999999986
 31
0.0
  0
LINE
  5
EC
100
AcDbEntity
  8
Layer_1
 62
7
420
16777215
370
-1
 48
1.0
  6
BYLAYER
100
AcDbLine
 10
305.12554999999992
 20
68.166949999999986
 30
0.0
 11
302.87604999999996
 21
66.369249999999965
 31
0.0
  0
LINE
  5
ED
100
AcDbEntity
  8
Layer_1
 62
7
420
16777215
370
-1
 48
1.0
  6
BYLAYER
100
AcDbLine
 10
302.87604999999996
 20
66.369249999999965
 30
0.0
 11
300.59494999999993
 21
64.615849999999995
 31
0.0
  0
LINE
  5
EE
100
AcDbEntity
  8
Layer_1
 62
7
420
16777215
370
-1
 48
1.0
  6
BYLAYER
100
AcDbLine
 10
300.59494999999993
 20
64.615849999999995
 30
0.0
 11
298.18784999999997
 21
62.818049999999971
 31
0.0
  0
LINE
  5
EF
100
AcDbEntity
  8
Layer_1
 62
7
420
16777215
370
-1
 48
1.0
  6
BYLAYER
100
AcDbLine
 10
298.18784999999997
 20
62.818049999999971
 30
0.0
 11
305.27744999999993
 21
33.943049999999971
 31
0.0
  0
LINE
  5
F0
100
AcDbEntity
  8
Layer_1
 62
7
420
16777215
370
-1
 48
1.0
  6
BYLAYER
100
AcDbLine
 10
305.27744999999993
 20
33.943049999999971
 30
0.0
 11
301.90995000000004
 21
31.856750000000005
 31
0.0
  0
LINE
  5
F1
100
AcDbEntity
  8
Layer_1
 62
7
420
16777215
370
-1
 48
1.0
  6
BYLAYER
100
AcDbLine
 10
301.90995000000004
 20
31.856750000000005
 30
0.0
 11
298.63995
 21
29.903649999999971
 31
0.0
  0
LINE
  5
F2
100
AcDbEntity
  8
Layer_1
 62
7
420
16777215
370
-1
 48
1.0
  6
BYLAYER
100
AcDbLine
 10
298.63995
 20
29.903649999999971
 30
0.0
 11
295.33095000000003
 21
28.017149999999987
 31
0.0
  0
LINE
  5
F3
100
AcDbEntity
  8
Layer_1
 62
7
420
16777215
370
-1
 48
1.0
  6
BYLAYER
100
AcDbLine
 10
295.33095000000003
 20
28.017149999999987
 30
0.0
 11
291.84635000000003
 21
26.130650000000003
 31
0.0
  0
LINE
  5
F4
100
AcDbEntity
  8
Layer_1
 62
7
420
16777215
370
-1
 48
1.0
  6
BYLAYER
100
AcDbLine
 10
291.84635000000003
 20
26.130650000000003
 30
0.0
 11
270.58594999999997
 21
46.39194999999998
 31
0.0
  0
LINE
  5
F5
100
AcDbEntity
  8
Layer_1
 62
7
420
16777215
370
-1
 48
1.0
  6
BYLAYER
100
AcDbLine
 10
270.58594999999997
 20
46.39194999999998
 30
0.0
 11
267.74184999999989
 21
45.104649999999992
 31
0.0
  0
LINE
  5
F6
100
AcDbEntity
  8
Layer_1
 62
7
420
16777215
370
-1
 48
1.0
  6
BYLAYER
100
AcDbLine
 10
267.74184999999989
 20
45.104649999999992
 30
0.0
 11
264.98774999999995
 21
43.92844999999997
 31
0.0
  0
LINE
  5
F7
100
AcDbEntity
  8
Layer_1
 62
7
420
16777215
370
-1
 48
1.0
  6
BYLAYER
100
AcDbLine
 10
264.98774999999995
 20
43.92844999999997
 30
0.0
 11
262.20895000000007
 21
42.796449999999993
 31
0.0
  0
LINE
  5
F8
100
AcDbEntity
  8
Layer_1
 62
7
420
16777215
370
-1
 48
1.0
  6
BYLAYER
100
AcDbLine
 10
262.20895000000007
 20
42.796449999999993
 30
0.0
 11
259.29034999999993
 21
41.686749999999961
 31
0.0
  0
LINE
  5
F9
100
AcDbEntity
  8
Layer_1
 62
7
420
16777215
370
-1
 48
1.0
  6
BYLAYER
100
AcDbLine
 10
259.29034999999993
 20
41.686749999999961
 30
0.0
 11
258.70604999999989
 21
12.341149999999999
 31
0.0
  0
LINE
  5
FA
100
AcDbEntity
  8
Layer_1
 62
7
420
16777215
370
-1
 48
1.0
  6
BYLAYER
100
AcDbLine
 10
258.70604999999989
 20
12.341149999999999
 30
0.0
 11
254.94244999999998
 21
11.209249999999969
 31
0.0
  0
LINE
  5
FB
100
AcDbEntity
  8
Layer_1
 62
7
420
16777215
370
-1
 48
1.0
  6
BYLAYER
100
AcDbLine
 10
254.94244999999998
 20
11.209249999999969
 30
0.0
 11
251.30974999999998
 21
10.188249999999982
 31
0.0
  0
LINE
  5
FC
100
AcDbEntity
  8
Layer_1
 62
7
420
16777215
370
-1
 48
1.0
  6
BYLAYER
100
AcDbLine
 10
251.30974999999998
 20
10.188249999999982
 30
0.0
 11
247.65714999999994
 21
9.2339499999999646
 31
0.0
  0
LINE
  5
FD
100
AcDbEntity
  8
Layer_1
 62
7
420
16777215
370
-1
 48
1.0
  6
BYLAYER
100
AcDbLine
 10
247.65714999999994
 20
9.2339499999999646
 30
0.0
 11
243.83314999999993
 21
8.323949999999968
 31
0.0
  0
LINE
  5
FE
100
AcDbEntity
  8
Layer_1
 62
7
420
16777215
370
-1
 48
1.0
  6
BYLAYER
100
AcDbLine
 10
243.83314999999993
 20
8.323949999999968
 30
0.0
 11
228.32125000000002
 21
33.612449999999967
 31
0.0
  0
LINE
  5
FF
100
AcDbEntity
  8
Layer_1
 62
7
420
16777215
370
-1
 48
1.0
  6
BYLAYER
100
AcDbLine
 10
228.32125000000002
 20
33.612449999999967
 30
0.0
 11
225.20874999999992
 21
33.146250000000009
 31
0.0
  0
LINE
  5
100
100
AcDbEntity
  8
Layer_1
 62
7
420
16777215
370
-1
 48
1.0
  6
BYLAYER
100
AcDbLine
 10
225.20874999999992
 20
33.146250000000009
 30
0.0
 11
222.21374999999998
 21
32.746749999999992
 31
0.0
  0
LINE
  5
101
100
AcDbEntity
  8
Layer_1
 62
7
420
16777215
370
-1
 48
1.0
  6
BYLAYER
100
AcDbLine
 10
222.21374999999998
 20
32.746749999999992
 30
0.0
 11
219.21164999999999
 21
32.413849999999968
 31
0.0
  0
LINE
  5
102
100
AcDbEntity
  8
Layer_1
 62
7
420
16777215
370
-1
 48
1.0
  6
BYLAYER
100
AcDbLine
 10
219.21164999999999
 20
32.413849999999968
 30
0.0
 11
216.07785000000001
 21
32.125249999999966
 31
0.0
  0
LINE
  5
103
100
AcDbEntity
  8
Layer_1
 62
7
420
16777215
370
-1
 48
1.0
  6
BYLAYER
100
AcDbLine
 10
216.07785000000001
 20
32.125249999999966
 30
0.0
 11
208.37235000000004
 21
3.5788499999999601
 31
0.0
  0
LINE
  5
104
100
AcDbEntity
  8
Layer_1
 62
7
420
16777215
370
-1
 48
1.0
  6
BYLAYER
100
AcDbLine
 10
208.37235000000004
 20
3.5788499999999601
 30
0.0
 11
204.37795000000003
 21
3.3568499999999801
 31
0.0
  0
LINE
  5
105
100
AcDbEntity
  8
Layer_1
 62
7
420
16777215
370
-1
 48
1.0
  6
BYLAYER
100
AcDbLine
 10
204.37795000000003
 20
3.3568499999999801
 30
0.0
 11
200.54264999999995
 21
3.3568499999999801
 31
0.0
  0
LINE
  5
106
100
AcDbEntity
  8
Layer_1
 62
7
420
16777215
370
-1
 48
1.0
  6
BYLAYER
100
AcDbLine
 10
200.54264999999995
 20
3.3568499999999801
 30
0.0
 11
196.70684999999989
 21
3.3568499999999801
 31
0.0
  0
LINE
  5
107
100
AcDbEntity
  8
Layer_1
 62
7
420
16777215
370
-1
 48
1.0
  6
BYLAYER
100
AcDbLine
 10
196.70684999999989
 20
3.3568499999999801
 30
0.0
 11
192.71124999999989
 21
3.3568499999999801
 31
0.0
  0
LINE
  5
108
100
AcDbEntity
  8
Layer_1
 62
7
420
16777215
370
-1
 48
1.0
  6
BYLAYER
100
AcDbLine
 10
192.71124999999989
 20
3.3568499999999801
 30
0.0
 11
184.10824999999997
 21
31.936749999999989
 31
0.0
  0
LINE
  5
109
100
AcDbEntity
  8
Layer_1
 62
7
420
16777215
370
-1
 48
1.0
  6
BYLAYER
100
AcDbLine
 10
184.10824999999997
 20
31.936749999999989
 30
0.0
 11
181.07794999999999
 21
32.225149999999985
 31
0.0
  0
LINE
  5
10A
100
AcDbEntity
  8
Layer_1
 62
7
420
16777215
370
-1
 48
1.0
  6
BYLAYER
100
AcDbLine
 10
181.07794999999999
 20
32.225149999999985
 30
0.0
 11
178.17464999999996
 21
32.535949999999957
 31
0.0
  0
LINE
  5
10B
100
AcDbEntity
  8
Layer_1
 62
7
420
16777215
370
-1
 48
1.0
  6
BYLAYER
100
AcDbLine
 10
178.17464999999996
 20
32.535949999999957
 30
0.0
 11
175.27765000000005
 21
32.913249999999977
 31
0.0
  0
LINE
  5
10C
100
AcDbEntity
  8
Layer_1
 62
7
420
16777215
370
-1
 48
1.0
  6
BYLAYER
100
AcDbLine
 10
175.27765000000005
 20
32.913249999999977
 30
0.0
 11
172.26624999999993
 21
33.357149999999962
 31
0.0
  0
LINE
  5
10D
100
AcDbEntity
  8
Layer_1
 62
7
420
16777215
370
-1
 48
1.0
  6
BYLAYER
100
AcDbLine
 10
172.26624999999993
 20
33.357149999999962
 30
0.0
 11
156.93525
 21
7.9755499999999415
 31
0.0
  0
LINE
  5
10E
100
AcDbEntity
  8
Layer_1
 62
7
420
16777215
370
-1
 48
1.0
  6
BYLAYER
100
AcDbLine
 10
156.93525
 20
7.9755499999999415
 30
0.0
 11
153.02195000000003
 21
8.8855499999999665
 31
0.0
  0
LINE
  5
10F
100
AcDbEntity
  8
Layer_1
 62
7
420
16777215
370
-1
 48
1.0
  6
BYLAYER
100
AcDbLine
 10
153.02195000000003
 20
8.8855499999999665
 30
0.0
 11
149.28464999999997
 21
9.8398499999999558
 31
0.0
  0
LINE
  5
110
100
AcDbEntity
  8
Layer_1
 62
7
420
16777215
370
-1
 48
1.0
  6
BYLAYER
100
AcDbLine
 10
149.28464999999997
 20
9.8398499999999558
 30
0.0
 11
145.56815
 21
10.860849999999971
 31
0.0
  0
LINE
  5
111
100
AcDbEntity
  8
Layer_1
 62
7
420
16777215
370
-1
 48
1.0
  6
BYLAYER
100
AcDbLine
 10
145.56815
 20
10.860849999999971
 30
0.0
 11
141.71754999999999
 21
12.01494999999997
 31
0.0
  0
LINE
  5
112
100
AcDbEntity
  8
Layer_1
 62
7
420
16777215
370
-1
 48
1.0
  6
BYLAYER
100
AcDbLine
 10
141.71754999999999
 20
12.01494999999997
 30
0.0
 11
140.92725000000002
 21
41.364949999999993
 31
0.0
  0
LINE
  5
113
100
AcDbEntity
  8
Layer_1
 62
7
420
16777215
370
-1
 48
1.0
  6
BYLAYER
100
AcDbLine
 10
140.92725000000002
 20
41.364949999999993
 30
0.0
 11
137.97505000000001
 21
42.474649999999997
 31
0.0
  0
LINE
  5
114
100
AcDbEntity
  8
Layer_1
 62
7
420
16777215
370
-1
 48
1.0
  6
BYLAYER
100
AcDbLine
 10
137.97505000000001
 20
42.474649999999997
 30
0.0
 11
135.16335000000001
 21
43.60654999999997
 31
0.0
  0
LINE
  5
115
100
AcDbEntity
  8
Layer_1
 62
7
420
16777215
370
-1
 48
1.0
  6
BYLAYER
100
AcDbLine
 10
135.16335000000001
 20
43.60654999999997
 30
0.0
 11
132.37625
 21
44.782849999999968
 31
0.0
  0
LINE
  5
116
100
AcDbEntity
  8
Layer_1
 62
7
420
16777215
370
-1
 48
1.0
  6
BYLAYER
100
AcDbLine
 10
132.37625
 20
44.782849999999968
 30
0.0
 11
129.49725000000001
 21
46.070149999999984
 31
0.0
  0
LINE
  5
117
100
AcDbEntity
  8
Layer_1
 62
7
420
16777215
370
-1
 48
1.0
  6
BYLAYER
100
AcDbLine
 10
129.49725000000001
 20
46.070149999999984
 30
0.0
 11
108.40694999999999
 21
25.808849999999978
 31
0.0
  0
LINE
  5
118
100
AcDbEntity
  8
Layer_1
 62
7
420
16777215
370
-1
 48
1.0
  6
BYLAYER
100
AcDbLine
 10
108.40694999999999
 20
25.808849999999978
 30
0.0
 11
104.99345
 21
27.650949999999995
 31
0.0
  0
LINE
  5
119
100
AcDbEntity
  8
Layer_1
 62
7
420
16777215
370
-1
 48
1.0
  6
BYLAYER
100
AcDbLine
 10
104.99345
 20
27.650949999999995
 30
0.0
 11
101.75114999999994
 21
29.470849999999984
 31
0.0
  0
LINE
  5
11A
100
AcDbEntity
  8
Layer_1
 62
7
420
16777215
370
-1
 48
1.0
  6
BYLAYER
100
AcDbLine
 10
101.75114999999994
 20
29.470849999999984
 30
0.0
 11
98.546249999999972
 21
31.357449999999972
 31
0.0
  0
LINE
  5
11B
100
AcDbEntity
  8
Layer_1
 62
7
420
16777215
370
-1
 48
1.0
  6
BYLAYER
100
AcDbLine
 10
98.546249999999972
 20
31.357449999999972
 30
0.0
 11
95.244950000000017
 21
33.399249999999967
 31
0.0
  0
LINE
  5
11C
100
AcDbEntity
  8
Layer_1
 62
7
420
16777215
370
-1
 48
1.0
  6
BYLAYER
100
AcDbLine
 10
95.244950000000017
 20
33.399249999999967
 30
0.0
 11
101.87224999999999
 21
62.363149999999962
 31
0.0
  0
LINE
  5
11D
100
AcDbEntity
  8
Layer_1
 62
7
420
16777215
370
-1
 48
1.0
  6
BYLAYER
100
AcDbLine
 10
101.87224999999999
 20
62.363149999999962
 30
0.0
 11
99.503549999999933
 21
64.138649999999984
 31
0.0
  0
LINE
  5
11E
100
AcDbEntity
  8
Layer_1
 62
7
420
16777215
370
-1
 48
1.0
  6
BYLAYER
100
AcDbLine
 10
99.503549999999933
 20
64.138649999999984
 30
0.0
 11
97.260249999999985
 21
65.869849999999985
 31
0.0
  0
LINE
  5
11F
100
AcDbEntity
  8
Layer_1
 62
7
420
16777215
370
-1
 48
1.0
  6
BYLAYER
100
AcDbLine
 10
97.260249999999985
 20
65.869849999999985
 30
0.0
 11
95.049149999999997
 21
67.645349999999979
 31
0.0
  0
LINE
  5
120
100
AcDbEntity
  8
Layer_1
 62
7
420
16777215
370
-1
 48
1.0
  6
BYLAYER
100
AcDbLine
 10
95.049149999999997
 20
67.645349999999979
 30
0.0
 11
92.777449999999988
 21
69.531949999999966
 31
0.0
  0
LINE
  5
121
100
AcDbEntity
  8
Layer_1
 62
7
420
16777215
370
-1
 48
1.0
  6
BYLAYER
100
AcDbLine
 10
92.777449999999988
 20
69.531949999999966
 30
0.0
 11
66.37775000000002
 21
55.584949999999992
 31
0.0
  0
LINE
  5
122
100
AcDbEntity
  8
Layer_1
 62
7
420
16777215
370
-1
 48
1.0
  6
BYLAYER
100
AcDbLine
 10
66.37775000000002
 20
55.584949999999992
 30
0.0
 11
63.477349999999973
 21
58.328149999999994
 31
0.0
  0
LINE
  5
123
100
AcDbEntity
  8
Layer_1
 62
7
420
16777215
370
-1
 48
1.0
  6
BYLAYER
100
AcDbLine
 10
63.477349999999973
 20
58.328149999999994
 30
0.0
 11
60.74494999999996
 21
61.013649999999984
 31
0.0
  0
LINE
  5
124
100
AcDbEntity
  8
Layer_1
 62
7
420
16777215
370
-1
 48
1.0
  6
BYLAYER
100
AcDbLine
 10
60.74494999999996
 20
61.013649999999984
 30
0.0
 11
58.068149999999974
 21
63.754749999999973
 31
0.0
  0
LINE
  5
125
100
AcDbEntity
  8
Layer_1
 62
7
420
16777215
370
-1
 48
1.0
  6
BYLAYER
100
AcDbLine
 10
58.068149999999974
 20
63.754749999999973
 30
0.0
 11
55.334449999999975
 21
66.662149999999968
 31
0.0
  0
LINE
  5
126
100
AcDbEntity
  8
Layer_1
 62
7
420
16777215
370
-1
 48
1.0
  6
BYLAYER
100
AcDbLine
 10
55.334449999999975
 20
66.662149999999968
 30
0.0
 11
69.570449999999965
 21
93.053649999999976
 31
0.0
  0
LINE
  5
127
100
AcDbEntity
  8
Layer_1
 62
7
420
16777215
370
-1
 48
1.0
  6
BYLAYER
100
AcDbLine
 10
69.570449999999965
 20
93.053649999999976
 30
0.0
 11
67.728449999999981
 21
95.333049999999986
 31
0.0
  0
LINE
  5
128
100
AcDbEntity
  8
Layer_1
 62
7
420
16777215
370
-1
 48
1.0
  6
BYLAYER
100
AcDbLine
 10
67.728449999999981
 20
95.333049999999986
 30
0.0
 11
65.998449999999934
 21
97.554649999999995
 31
0.0
  0
LINE
  5
129
100
AcDbEntity
  8
Layer_1
 62
7
420
16777215
370
-1
 48
1.0
  6
BYLAYER
100
AcDbLine
 10
65.998449999999934
 20
97.554649999999995
 30
0.0
 11
64.309249999999992
 21
99.805249999999987
 31
0.0
  0
LINE
  5
12A
100
AcDbEntity
  8
Layer_1
 62
7
420
16777215
370
-1
 48
1.0
  6
BYLAYER
100
AcDbLine
 10
64.309249999999992
 20
99.805249999999987
 30
0.0
 11
62.590149999999937
 21
102.18004999999997
 31
0.0
  0
LINE
  5
12B
100
AcDbEntity
  8
Layer_1
 62
7
420
16777215
370
-1
 48
1.0
  6
BYLAYER
100
AcDbLine
 10
62.590149999999937
 20
102.18004999999997
 30
0.0
 11
33.468650000000025
 21
95.244249999999994
 31
0.0
  0
LINE
  5
12C
100
AcDbEntity
  8
Layer_1
 62
7
420
16777215
370
-1
 48
1.0
  6
BYLAYER
100
AcDbLine
 10
33.468650000000025
 20
95.244249999999994
 30
0.0
 11
31.456250000000011
 21
98.513449999999978
 31
0.0
  0
LINE
  5
12D
100
AcDbEntity
  8
Layer_1
 62
7
420
16777215
370
-1
 48
1.0
  6
BYLAYER
100
AcDbLine
 10
31.456250000000011
 20
98.513449999999978
 30
0.0
 11
29.583249999999964
 21
101.68504999999996
 31
0.0
  0
LINE
  5
12E
100
AcDbEntity
  8
Layer_1
 62
7
420
16777215
370
-1
 48
1.0
  6
BYLAYER
100
AcDbLine
 10
29.583249999999964
 20
101.68504999999996
 30
0.0
 11
27.77344999999994
 21
104.89434999999999
 31
0.0
  0
LINE
  5
12F
100
AcDbEntity
  8
Layer_1
 62
7
420
16777215
370
-1
 48
1.0
  6
BYLAYER
100
AcDbLine
 10
27.77344999999994
 20
104.89434999999999
 30
0.0
 11
25.950149999999951
 21
108.27464999999998
 31
0.0
  0
LINE
  5
130
100
AcDbEntity
  8
Layer_1
 62
7
420
16777215
370
-1
 48
1.0
  6
BYLAYER
100
AcDbLine
 10
25.950149999999951
 20
108.27464999999998
 30
0.0
 11
46.510749999999945
 21
130.08074999999999
 31
0.0
  0
LINE
  5
131
100
AcDbEntity
  8
Layer_1
 62
7
420
16777215
370
-1
 48
1.0
  6
BYLAYER
100
AcDbLine
 10
46.510749999999945
 20
130.08074999999999
 30
0.0
 11
45.286449999999945
 21
132.83285000000001
 31
0.0
  0
LINE
  5
132
100
AcDbEntity
  8
Layer_1
 62
7
420
16777215
370
-1
 48
1.0
  6
BYLAYER
100
AcDbLine
 10
45.286449999999945
 20
132.83285000000001
 30
0.0
 11
44.159049999999922
 21
135.49394999999998
 31
0.0
  0
LINE
  5
133
100
AcDbEntity
  8
Layer_1
 62
7
420
16777215
370
-1
 48
1.0
  6
BYLAYER
100
AcDbLine
 10
44.159049999999922
 20
135.49394999999998
 30
0.0
 11
43.082449999999994
 21
138.17724999999999
 31
0.0
  0
LINE
  5
134
100
AcDbEntity
  8
Layer_1
 62
7
420
16777215
370
-1
 48
1.0
  6
BYLAYER
100
AcDbLine
 10
43.082449999999994
 20
138.17724999999999
 30
0.0
 11
42.010650000000027
 21
140.98924999999997
 31
0.0
  0
LINE
  5
135
100
AcDbEntity
  8
Layer_1
 62
7
420
16777215
370
-1
 48
1.0
  6
BYLAYER
100
AcDbLine
 10
42.010650000000027
 20
140.98924999999997
 30
0.0
 11
12.11345
 21
141.69955000000002
 31
0.0
  0
LINE
  5
136
100
AcDbEntity
  8
Layer_1
 62
7
420
16777215
370
-1
 48
1.0
  6
BYLAYER
100
AcDbLine
 10
12.11345
 20
141.69955000000002
 30
0.0
 11
10.975149999999985
 21
145.52134999999998
 31
0.0
  0
LINE
  5
137
100
AcDbEntity
  8
Layer_1
 62
7
420
16777215
370
-1
 48
1.0
  6
BYLAYER
100
AcDbLine
 10
10.975149999999985
 20
145.52134999999998
 30
0.0
 11
9.9545499999999549
 21
149.21015
 31
0.0
  0
LINE
  5
138
100
AcDbEntity
  8
Layer_1
 62
7
420
16777215
370
-1
 48
1.0
  6
BYLAYER
100
AcDbLine
 10
9.9545499999999549
 20
149.21015
 30
0.0
 11
9.0109499999999798
 21
152.91884999999996
 31
0.0
  0
LINE
  5
139
100
AcDbEntity
  8
Layer_1
 62
7
420
16777215
370
-1
 48
1.0
  6
BYLAYER
100
AcDbLine
 10
9.0109499999999798
 20
152.91884999999996
 30
0.0
 11
8.1030499999999961
 21
156.80064999999996
 31
0.0
  0
LINE
  5
13A
100
AcDbEntity
  8
Layer_1
 62
7
420
16777215
370
-1
 48
1.0
  6
BYLAYER
100
AcDbLine
 10
8.1030499999999961
 20
156.80064999999996
 30
0.0
 11
33.708250000000021
 21
172.24795
 31
0.0
  0
LINE
  5
13B
100
AcDbEntity
  8
Layer_1
 62
7
420
16777215
370
-1
 48
1.0
  6
BYLAYER
100
AcDbLine
 10
33.708250000000021
 20
172.24795
 30
0.0
 11
33.244249999999965
 21
175.21314999999996
 31
0.0
  0
LINE
  5
13C
100
AcDbEntity
  8
Layer_1
 62
7
420
16777215
370
-1
 48
1.0
  6
BYLAYER
100
AcDbLine
 10
33.244249999999965
 20
175.21314999999996
 30
0.0
 11
32.848350000000011
 21
178.06514999999999
 31
0.0
  0
LINE
  5
13D
100
AcDbEntity
  8
Layer_1
 62
7
420
16777215
370
-1
 48
1.0
  6
BYLAYER
100
AcDbLine
 10
32.848350000000011
 20
178.06514999999999
 30
0.0
 11
32.505449999999939
 21
180.92384999999996
 31
0.0
  0
LINE
  5
13E
100
AcDbEntity
  8
Layer_1
 62
7
420
16777215
370
-1
 48
1.0
  6
BYLAYER
100
AcDbLine
 10
32.505449999999939
 20
180.92384999999996
 30
0.0
 11
32.201149999999927
 21
183.90675000000002
 31
0.0
  0
LINE
  5
13F
100
AcDbEntity
  8
Layer_1
 62
7
420
16777215
370
-1
 48
1.0
  6
BYLAYER
100
AcDbLine
 10
32.201149999999927
 20
183.90675000000002
 30
0.0
 11
3.5399499999999762
 21
191.91454999999999
 31
0.0
  0
LINE
  5
140
100
AcDbEntity
  8
Layer_1
 62
7
420
16777215
370
-1
 48
1.0
  6
BYLAYER
100
AcDbLine
 10
3.5399499999999762
 20
191.91454999999999
 30
0.0
 11
3.4238500000000158
 21
195.88734999999997
 31
0.0
  0
LINE
  5
141
100
AcDbEntity
  8
Layer_1
 62
7
420
16777215
370
-1
 48
1.0
  6
BYLAYER
100
AcDbLine
 10
3.4238500000000158
 20
195.88734999999997
 30
0.0
 11
3.3832499999999754
 21
199.70034999999999
 31
0.0
  0
LINE
  5
142
100
AcDbEntity
  8
Layer_1
 62
7
420
16777215
370
-1
 48
1.0
  6
BYLAYER
100
AcDbLine
 10
3.3832499999999754
 20
199.70034999999999
 30
0.0
 11
3.4196499999999332
 21
203.51334999999997
 31
0.0
  0
LINE
  5
143
100
AcDbEntity
  8
Layer_1
 62
7
420
16777215
370
-1
 48
1.0
  6
BYLAYER
100
AcDbLine
 10
3.4196499999999332
 20
203.51334999999997
 30
0.0
 11
3.5328499999999394
 21
207.48614999999998
 31
0.0
  0
LINE
  5
144
100
AcDbEntity
  8
Layer_1
 62
7
420
16777215
370
-1
 48
1.0
  6
BYLAYER
100
AcDbLine
 10
3.5328499999999394
 20
207.48614999999998
 30
0.0
 11
32.269849999999963
 21
216.39284999999998
 31
0.0
  0
LINE
  5
145
100
AcDbEntity
  8
Layer_1
 62
7
420
16777215
370
-1
 48
1.0
  6
BYLAYER
100
AcDbLine
 10
32.269849999999963
 20
216.39284999999998
 30
0.0
 11
32.565050000000014
 21
219.18934999999999
 31
0.0
  0
LINE
  5
146
100
AcDbEntity
  8
Layer_1
 62
7
420
16777215
370
-1
 48
1.0
  6
BYLAYER
100
AcDbLine
 10
32.565050000000014
 20
219.18934999999999
 30
0.0
 11
32.892749999999978
 21
221.86594999999997
 31
0.0
  0
LINE
  5
147
100
AcDbEntity
  8
Layer_1
 62
7
420
16777215
370
-1
 48
1.0
  6
BYLAYER
100
AcDbLine
 10
32.892749999999978
 20
221.86594999999997
 30
0.0
 11
33.26744999999994
 21
224.53594999999996
 31
0.0
  0
LINE
  5
148
100
AcDbEntity
  8
Layer_1
 62
7
420
16777215
370
-1
 48
1.0
  6
BYLAYER
100
AcDbLine
 10
33.26744999999994
 20
224.53594999999996
 30
0.0
 11
33.703449999999975
 21
227.31254999999999
 31
0.0
  0
LINE
  5
149
100
AcDbEntity
  8
Layer_1
 62
7
420
16777215
370
-1
 48
1.0
  6
BYLAYER
100
AcDbLine
 10
33.703449999999975
 20
227.31254999999999
 30
0.0
 11
8.2075499999999124
 21
243.27034999999995
 31
0.0
  0
LINE
  5
14A
100
AcDbEntity
  8
Layer_1
 62
7
420
16777215
370
-1
 48
1.0
  6
BYLAYER
100
AcDbLine
 10
8.2075499999999124
 20
243.27034999999995
 30
0.0
 11
9.1178499999999758
 21
247.12334999999999
 31
0.0
  0
LINE
  5
14B
100
AcDbEntity
  8
Layer_1
 62
7
420
16777215
370
-1
 48
1.0
  6
BYLAYER
100
AcDbLine
 10
9.1178499999999758
 20
247.12334999999999
 30
0.0
 11
10.063549999999992
 21
250.80534999999998
 31
0.0
  0
LINE
  5
14C
100
AcDbEntity
  8
Layer_1
 62
7
420
16777215
370
-1
 48
1.0
  6
BYLAYER
100
AcDbLine
 10
10.063549999999992
 20
250.80534999999998
 30
0.0
 11
11.084650000000011
 21
254.46524999999997
 31
0.0
  0
LINE
  5
14D
100
AcDbEntity
  8
Layer_1
 62
7
420
16777215
370
-1
 48
1.0
  6
BYLAYER
100
AcDbLine
 10
11.084650000000011
 20
254.46524999999997
 30
0.0
 11
12.222050000000024
 21
258.25604999999996
 31
0.0
  0
LINE
  5
14E
100
AcDbEntity
  8
Layer_1
 62
7
420
16777215
370
-1
 48
1.0
  6
BYLAYER
100
AcDbLine
 10
12.222050000000024
 20
258.25604999999996
 30
0.0
 11
42.142349999999965
 21
258.98844999999994
 31
0.0
  0
LINE
  5
14F
100
AcDbEntity
  8
Layer_1
 62
7
420
16777215
370
-1
 48
1.0
  6
BYLAYER
100
AcDbLine
 10
42.142349999999965
 20
258.98844999999994
 30
0.0
 11
42.142349999999965
 21
258.98844999999994
 31
0.0
  0
LINE
  5
150
100
AcDbEntity
  8
Layer_1
 62
7
420
16777215
370
-1
 48
1.0
  6
BYLAYER
100
AcDbLine
 10
42.142349999999965
 20
258.98844999999994
 30
0.0
 11
42.142849999999925
 21
259.39245
 31
0.0
  0
ARC
  5
151
100
AcDbEntity
  8
Fix
 62
256
370
-1
 48
1.0
  6
BYLAYER
100
AcDbCircle
 10
200.1091634014833
 20
201.01604327230527
 30
0.0
 40
157.93406424106769
100
AcDbArc
 50
49.65929461079336
 51
130.65929461079241
  0
ARC
  5
152
100
AcDbEntity
  8
Fix
 62
256
370
-1
 48
1.0
  6
BYLAYER
100
AcDbCircle
 10
200.04001292155786
 20
200.93638059861129
 30
0.0
 40
121.75412202650094
100
AcDbArc
 50
49.676909828603144
 51
130.67690982860415
  0
ARC
  5
153
100
AcDbEntity
  8
Fix
 62
256
370
-1
 48
1.0
  6
BYLAYER
100
AcDbCircle
 10
200.27544624708696
 20
200.59403598491636
 30
0.0
 40
157.95481848113207
100
AcDbArc
 50
319.38726094982388
 51
40.387260949824388
  0
ARC
  5
154
100
AcDbEntity
  8
Fix
 62
256
370
-1
 48
1.0
  6
BYLAYER
100
AcDbCircle
 10
200.19309083235947
 20
200.59528776983024
 30
0.0
 40
121.73174422106391
100
AcDbArc
 50
319.3577359666059
 51
40.357735966604615
  0
ARC
  5
155
100
AcDbEntity
  8
Fix
 62
256
370
-1
 48
1.0
  6
BYLAYER
100
AcDbCircle
 10
200.02434925845466
 20
199.79155192118992
 30
0.0
 40
157.97871320137989
100
AcDbArc
 50
229.38216822881674
 51
310.38216822881623
  0
ARC
  5
156
100
AcDbEntity
  8
Fix
 62
256
370
-1
 48
1.0
  6
BYLAYER
100
AcDbCircle
 10
200.02600104336156
 20
199.87008523147753
 30
0.0
 40
121.75364466528644
100
AcDbArc
 50
229.35113147682503
 51
310.35113147682478
  0
ARC
  5
157
100
AcDbEntity
  8
Fix
 62
256
370
-1
 48
1.0
  6
BYLAYER
100
AcDbCircle
 10
199.34565072631881
 20
200.59028222030992
 30
0.0
 40
121.78080369519895
100
AcDbArc
 50
139.64557535515249
 51
220.64557535515257
  0
ARC
  5
158
100
AcDbEntity
  8
Fix
 62
256
370
-1
 48
1.0
  6
BYLAYER
100
AcDbCircle
 10
199.26334531159586
 20
200.58908897788237
 30
0.0
 40
158.00387443139454
100
AcDbArc
 50
139.61532832181317
 51
220.61532832181263
  0
LINE
  5
159
100
AcDbEntity
  8
Fix
 62
256
370
-1
 48
1.0
  6
BYLAYER
100
AcDbLine
 10
248.64794999999924
 20
203.67984999999953
 30
0.0
 11
245.99214999999967
 21
201.54914999999971
 31
0.0
  0
LINE
  5
15A
100
AcDbEntity
  8
Fix
 62
256
370
-1
 48
1.0
  6
BYLAYER
100
AcDbLine
 10
248.42485000000178
 20
189.60854999999972
 30
0.0
 11
246.63235000000122
 21
190.96234999999882
 31
0.0
  0
ARC
  5
15B
100
AcDbEntity
  8
Fix
 62
256
370
-1
 48
1.0
  6
BYLAYER
100
AcDbCircle
 10
250.30111300881487
 20
196.49696265143774
 30
0.0
 40
6.640162589598785
100
AcDbArc
 50
130.46054940278373
 51
236.46054940278336
  0
LINE
  5
15C
100
AcDbEntity
  8
Fix
 62
256
370
-1
 48
1.0
  6
BYLAYER
100
AcDbLine
 10
225.15505000000005
 20
161.7655500000001
 30
0.0
 11
228.31875000000105
 21
160.52264999999917
 31
0.0
  0
LINE
  5
15D
100
AcDbEntity
  8
Fix
 62
256
370
-1
 48
1.0
  6
BYLAYER
100
AcDbLine
 10
216.26865000000001
 20
155.97274999999979
 30
0.0
 11
215.99544999999998
 21
153.75334999999995
 31
0.0
  0
ARC
  5
15E
100
AcDbEntity
  8
Fix
 62
256
370
-1
 48
1.0
  6
BYLAYER
100
AcDbCircle
 10
222.89444395071786
 20
155.52095864458317
 30
0.0
 40
6.6411791804015063
100
AcDbArc
 50
70.099224995051344
 51
176.09922499505123
  0
ARC
  5
15F
100
AcDbEntity
  8
Fix
 62
256
370
-1
 48
1.0
  6
BYLAYER
100
AcDbCircle
 10
300.64909732983398
 20
231.66353592024211
 30
0.0
 40
5.6628877360863354
100
AcDbArc
 50
76.365965497303904
 51
121.36596549730353
  0
ARC
  5
160
100
AcDbEntity
  8
Fix
 62
256
370
-1
 48
1.0
  6
BYLAYER
100
AcDbCircle
 10
299.70513419149955
 20
230.84736641403549
 30
0.0
 40
6.7178027868016716
100
AcDbArc
 50
25.170615703667025
 51
70.170615703667252
  0
ARC
  5
161
100
AcDbEntity
  8
Fix
 62
256
370
-1
 48
1.0
  6
BYLAYER
100
AcDbCircle
 10
297.71053470016858
 20
162.83710484812042
 30
0.0
 40
5.6747216098884623
100
AcDbArc
 50
241.63385808139179
 51
286.63385808139088
  0
ARC
  5
162
100
AcDbEntity
  8
Fix
 62
256
370
-1
 48
1.0
  6
BYLAYER
100
AcDbCircle
 10
296.07168454990824
 20
166.04096119294664
 30
0.0
 40
9.2367583083369951
100
AcDbArc
 50
290.68875242251863
 51
335.68875242251818
  0
ARC
  5
163
100
AcDbEntity
  8
Fix
 62
256
370
-1
 48
1.0
  6
BYLAYER
100
AcDbCircle
 10
201.36059707649233
 20
199.85289301709278
 30
0.0
 40
109.77431871281414
100
AcDbArc
 50
339.96132850073502
 51
17.96132850073494
  0
ARC
  5
164
100
AcDbEntity
  8
Fix
 62
256
370
-1
 48
1.0
  6
BYLAYER
100
AcDbCircle
 10
278.00876723417889
 20
129.4450512681166
 30
0.0
 40
5.973978554292537
100
AcDbArc
 50
311.92081879218068
 51
56.92081879218167
  0
ARC
  5
165
100
AcDbEntity
  8
Fix
 62
256
370
-1
 48
1.0
  6
BYLAYER
100
AcDbCircle
 10
218.57578619123248
 20
98.109753373225971
 30
0.0
 40
6.781563215093998
100
AcDbArc
 50
176.02338626910142
 51
261.02338626910239
  0
ARC
  5
166
100
AcDbEntity
  8
Fix
 62
256
370
-1
 48
1.0
  6
BYLAYER
100
AcDbCircle
 10
202.20857357545228
 20
197.76769178352069
 30
0.0
 40
107.9898546085022
100
AcDbArc
 50
280.63600355580701
 51
317.6360035558078
  0
LINE
  5
167
100
AcDbEntity
  8
Fix
 62
256
370
-1
 48
1.0
  6
BYLAYER
100
AcDbLine
 10
217.51765000000003
 20
91.411249999999967
 30
0.0
 11
222.14014999999986
 21
91.633149999999958
 31
0.0
  0
LINE
  5
168
100
AcDbEntity
  8
Fix
 62
256
370
-1
 48
1.0
  6
BYLAYER
100
AcDbLine
 10
170.87374999999994
 20
164.50205
 30
0.0
 11
117.32294999999948
 21
139.00944999999984
 31
0.0
  0
ARC
  5
169
100
AcDbEntity
  8
Fix
 62
256
370
-1
 48
1.0
  6
BYLAYER
100
AcDbCircle
 10
119.95073286556004
 20
133.16613112401214
 30
0.0
 40
6.406997602232102
100
AcDbArc
 50
114.21379509109931
 51
189.21379509109929
  0
ARC
  5
16A
100
AcDbEntity
  8
Fix
 62
256
370
-1
 48
1.0
  6
BYLAYER
100
AcDbCircle
 10
172.36966391471162
 20
158.28322190798227
 30
0.0
 40
6.3962161688217591
100
AcDbArc
 50
18.525306640017412
 51
103.52530664001689
  0
ARC
  5
16B
100
AcDbEntity
  8
Fix
 62
256
370
-1
 48
1.0
  6
BYLAYER
100
AcDbCircle
 10
156.32985447674301
 20
153.66223606897125
 30
0.0
 40
23.084159045953314
100
AcDbArc
 50
6.7511545929083434
 51
16.751154592907568
  0
LINE
  5
16C
100
AcDbEntity
  8
Fix
 62
256
370
-1
 48
1.0
  6
BYLAYER
100
AcDbLine
 10
183.19804999999994
 20
96.943549999999917
 30
0.0
 11
179.25394999999989
 21
156.37595000000044
 31
0.0
  0
ARC
  5
16D
100
AcDbEntity
  8
Fix
 62
256
370
-1
 48
1.0
  6
BYLAYER
100
AcDbCircle
 10
177.01906668282524
 20
97.534956947752576
 30
0.0
 40
6.2072213599784849
100
AcDbArc
 50
279.53272286060866
 51
354.53272286060843
  0
ARC
  5
16E
100
AcDbEntity
  8
Fix
 62
256
370
-1
 48
1.0
  6
BYLAYER
100
AcDbCircle
 10
122.37030669128212
 20
133.74526559815931
 30
0.0
 40
8.8899932112562787
100
AcDbArc
 50
190.40132115851833
 51
205.40132115851836
  0
ARC
  5
16F
100
AcDbEntity
  8
Fix
 62
256
370
-1
 48
1.0
  6
BYLAYER
100
AcDbCircle
 10
177.02991377696881
 20
98.810671958262674
 30
0.0
 40
7.4668238760537351
100
AcDbArc
 50
262.8292148924906
 51
277.82921489249071
  0
ARC
  5
170
100
AcDbEntity
  8
Fix
 62
256
370
-1
 48
1.0
  6
BYLAYER
100
AcDbCircle
 10
196.06737039955536
 20
192.17090925607468
 30
0.0
 40
102.72830395394972
100
AcDbArc
 50
217.29081465839292
 51
258.79081465839278
  0
LINE
  5
171
100
AcDbEntity
  8
Fix
 62
256
370
-1
 48
1.0
  6
BYLAYER
100
AcDbLine
 10
105.33584999999998
 20
241.95644999999965
 30
0.0
 11
152.39275000000026
 21
209.81445000000008
 31
0.0
  0
LINE
  5
172
100
AcDbEntity
  8
Fix
 62
256
370
-1
 48
1.0
  6
BYLAYER
100
AcDbLine
 10
152.39275000000026
 20
209.81445000000008
 30
0.0
 11
154.46474999999978
 21
207.92785000000001
 31
0.0
  0
LINE
  5
173
100
AcDbEntity
  8
Fix
 62
256
370
-1
 48
1.0
  6
BYLAYER
100
AcDbLine
 10
151.25055000000017
 20
196.36455000000046
 30
0.0
 11
102.19685000000018
 21
163.54555000000008
 31
0.0
  0
ARC
  5
174
100
AcDbEntity
  8
Fix
 62
256
370
-1
 48
1.0
  6
BYLAYER
100
AcDbCircle
 10
142.43269966602219
 20
209.4159592993534
 30
0.0
 40
15.750992642106208
100
AcDbArc
 50
304.04391954628522
 51
329.04391954628551
  0
ARC
  5
175
100
AcDbEntity
  8
Fix
 62
256
370
-1
 48
1.0
  6
BYLAYER
100
AcDbCircle
 10
150.20619355647585
 20
203.50635687767047
 30
0.0
 40
6.1388031743564113
100
AcDbArc
 50
339.07539567279156
 51
46.075395672792006
  0
ARC
  5
176
100
AcDbEntity
  8
Fix
 62
256
370
-1
 48
1.0
  6
BYLAYER
100
AcDbCircle
 10
102.03911128979797
 20
236.87552454394273
 30
0.0
 40
6.0567557003203225
100
AcDbArc
 50
57.022633653818787
 51
142.02263365381907
  0
ARC
  5
177
100
AcDbEntity
  8
Fix
 62
256
370
-1
 48
1.0
  6
BYLAYER
100
AcDbCircle
 10
99.468080401730006
 20
168.68496536996895
 30
0.0
 40
5.818915179440002
100
AcDbArc
 50
212.96604131865087
 51
297.96604131865121
  0
ARC
  5
178
100
AcDbEntity
  8
Fix
 62
256
370
-1
 48
1.0
  6
BYLAYER
100
AcDbCircle
 10
194.33164660490246
 20
200.54396203286365
 30
0.0
 40
105.71639667084432
100
AcDbArc
 50
159.34854348718926
 51
199.34854348718844
  0
ARC
  5
179
100
AcDbEntity
  8
Fix
 62
256
370
-1
 48
1.0
  6
BYLAYER
100
AcDbCircle
 10
112.19174705177061
 20
228.60488244734978
 30
0.0
 40
19.150882024023669
100
AcDbArc
 50
141.20901363240833
 51
151.20901363240864
  0
LINE
  5
17A
100
AcDbEntity
  8
Fix
 62
256
370
-1
 48
1.0
  6
BYLAYER
100
AcDbLine
 10
216.93924999999999
 20
303.57344999999998
 30
0.0
 11
220.83614999999992
 21
244.68704999999946
 31
0.0
  0
ARC
  5
17B
100
AcDbEntity
  8
Fix
 62
256
370
-1
 48
1.0
  6
BYLAYER
100
AcDbCircle
 10
235.21637921848654
 20
245.35570189505833
 30
0.0
 40
14.395766312808155
100
AcDbArc
 50
182.66222161705744
 51
207.66222161705858
  0
ARC
  5
17C
100
AcDbEntity
  8
Fix
 62
256
370
-1
 48
1.0
  6
BYLAYER
100
AcDbCircle
 10
227.73346979024615
 20
242.22416389364761
 30
0.0
 40
6.3530381064322956
100
AcDbArc
 50
213.99173353248381
 51
288.9917335324829
  0
LINE
  5
17D
100
AcDbEntity
  8
Fix
 62
256
370
-1
 48
1.0
  6
BYLAYER
100
AcDbLine
 10
232.93455000000026
 20
237.52645000000012
 30
0.0
 11
229.80095000002089
 21
236.21695000000534
 31
0.0
  0
LINE
  5
17E
100
AcDbEntity
  8
Fix
 62
256
370
-1
 48
1.0
  6
BYLAYER
100
AcDbLine
 10
232.93455000000171
 20
237.52645000000066
 30
0.0
 11
283.29144999999983
 21
261.73174999999986
 31
0.0
  0
ARC
  5
17F
100
AcDbEntity
  8
Fix
 62
256
370
-1
 48
1.0
  6
BYLAYER
100
AcDbCircle
 10
280.206800818972
 20
267.33718466175424
 30
0.0
 40
6.3981214678386644
100
AcDbArc
 50
298.82382001078855
 51
23.823820010788079
  0
ARC
  5
180
100
AcDbEntity
  8
Fix
 62
256
370
-1
 48
1.0
  6
BYLAYER
100
AcDbCircle
 10
268.7411850454186
 20
261.88868664101346
 30
0.0
 40
19.09082465034421
100
AcDbArc
 50
24.883266829536741
 51
34.883266829537973
  0
ARC
  5
181
100
AcDbEntity
  8
Fix
 62
256
370
-1
 48
1.0
  6
BYLAYER
100
AcDbCircle
 10
200.12564764833917
 20
200.70166158600165
 30
0.0
 40
110.91266665176657
100
AcDbArc
 50
40.549729143766214
 51
77.549729143767436
  0
ARC
  5
182
100
AcDbEntity
  8
Fix
 62
256
370
-1
 48
1.0
  6
BYLAYER
100
AcDbCircle
 10
222.57269029744717
 20
303.56639142061448
 30
0.0
 40
5.6334447195694315
100
AcDbArc
 50
74.928209659613387
 51
179.92820965961658
  0
LINE
  5
183
100
AcDbEntity
  8
Fix
 62
256
370
-1
 48
1.0
  6
BYLAYER
100
AcDbLine
 10
119.40205000000022
 20
266.5235499999996
 30
0.0
 11
173.33924999999971
 21
239.98785000000004
 31
0.0
  0
LINE
  5
184
100
AcDbEntity
  8
Fix
 62
256
370
-1
 48
1.0
  6
BYLAYER
100
AcDbLine
 10
173.33924999999971
 20
239.98785000000004
 30
0.0
 11
176.68754999999996
 21
238.76704999999995
 31
0.0
  0
LINE
  5
185
100
AcDbEntity
  8
Fix
 62
256
370
-1
 48
1.0
  6
BYLAYER
100
AcDbLine
 10
176.68754999999996
 20
238.76704999999995
 30
0.0
 11
179.55924999999996
 21
238.76264999999992
 31
0.0
  0
ARC
  5
186
100
AcDbEntity
  8
Fix
 62
256
370
-1
 48
1.0
  6
BYLAYER
100
AcDbCircle
 10
178.12200438122798
 20
244.43348416441771
 30
0.0
 40
5.8501312027126406
100
AcDbArc
 50
284.2218755001432
 51
339.22187550014308
  0
LINE
  5
187
100
AcDbEntity
  8
Fix
 62
256
370
-1
 48
1.0
  6
BYLAYER
100
AcDbLine
 10
183.5916500000001
 20
242.35814999999991
 30
0.0
 11
183.99555000000004
 21
243.37915000000018
 31
0.0
  0
LINE
  5
188
100
AcDbEntity
  8
Fix
 62
256
370
-1
 48
1.0
  6
BYLAYER
100
AcDbLine
 10
183.99555000000004
 20
243.37915000000018
 30
0.0
 11
184.57734999999988
 21
246.10904999999977
 31
0.0
  0
LINE
  5
189
100
AcDbEntity
  8
Fix
 62
256
370
-1
 48
1.0
  6
BYLAYER
100
AcDbLine
 10
184.57734999999988
 20
246.10904999999977
 30
0.0
 11
184.67584999999988
 21
247.2187499999981
 31
0.0
  0
LINE
  5
18A
100
AcDbEntity
  8
Fix
 62
256
370
-1
 48
1.0
  6
BYLAYER
100
AcDbLine
 10
184.67584999999988
 20
247.2187499999981
 30
0.0
 11
188.86075000000019
 21
302.39205000000072
 31
0.0
  0
ARC
  5
18B
100
AcDbEntity
  8
Fix
 62
256
370
-1
 48
1.0
  6
BYLAYER
100
AcDbCircle
 10
182.77780063312653
 20
303.21792811225413
 30
0.0
 40
6.1387578268127827
100
AcDbArc
 50
352.268264850359
 51
77.268264850359699
  0
ARC
  5
18C
100
AcDbEntity
  8
Fix
 62
256
370
-1
 48
1.0
  6
BYLAYER
100
AcDbCircle
 10
198.1906319904582
 20
203.84329268758736
 30
0.0
 40
107.28995122548652
100
AcDbArc
 50
100.55819632043463
 51
137.5581963204344
  0
ARC
  5
18D
100
AcDbEntity
  8
Fix
 62
256
370
-1
 48
1.0
  6
BYLAYER
100
AcDbCircle
 10
181.01631885901156
 20
293.38378763575366
 30
0.0
 40
16.125565507819385
100
AcDbArc
 50
78.864312435324777
 51
98.864312435324209
  0
ARC
  5
18E
100
AcDbEntity
  8
Fix
 62
256
370
-1
 48
1.0
  6
BYLAYER
100
AcDbCircle
 10
122.93883861747459
 20
271.53390042074892
 30
0.0
 40
6.1329018468747041
100
AcDbArc
 50
129.78186762344541
 51
234.78186762344473
  0
ARC
  5
18F
100
AcDbEntity
  8
Fix
 62
256
370
-1
 48
1.0
  6
BYLAYER
100
AcDbCircle
 10
200.0
 20
200.0
 30
0.0
 40
20.0
100
AcDbArc
 50
110.00000000000001
 51
70.0
  0
LINE
  5
190
100
AcDbEntity
  8
Fix
 62
256
370
-1
 48
1.0
  6
BYLAYER
100
AcDbLine
 10
206.84040286651339
 20
218.79385241571816
 30
0.0
 11
206.84040286651339
 21
227.0
 31
0.0
  0
LINE
  5
191
100
AcDbEntity
  8
Fix
 62
256
370
-1
 48
1.0
  6
BYLAYER
100
AcDbLine
 10
206.84040286651339
 20
227.0
 30
0.0
 11
193.1728440247698
 21
227.0
 31
0.0
  0
LINE
  5
192
100
AcDbEntity
  8
Fix
 62
256
370
-1
 48
1.0
  6
BYLAYER
100
AcDbLine
 10
193.1728440247698
 20
227.0
 30
0.0
 11
193.1728440247698
 21
218.79385241571816
 31
0.0
  0
LINE
  5
193
100
AcDbEntity
  8
Fix
 62
256
370
-1
 48
1.0
  6
BYLAYER
100
AcDbLine
 10
106.54215000000032
 20
279.44504999999958
 30
0.0
 11
78.90995000000089
 21
302.96235000000104
 31
0.0
  0
LINE
  5
194
100
AcDbEntity
  8
Fix
 62
256
370
-1
 48
1.0
  6
BYLAYER
100
AcDbLine
 10
79.3230500000018
 20
97.732150000001539
 30
0.0
 11
106.94404999999996
 21
121.26495000000003
 31
0.0
  0
LINE
  5
195
100
AcDbEntity
  8
Fix
 62
256
370
-1
 48
1.0
  6
BYLAYER
100
AcDbLine
 10
97.178550000422263
 20
79.874849999646315
 30
0.0
 11
120.71305000000315
 21
107.49365000000377
 31
0.0
  0
LINE
  5
196
100
AcDbEntity
  8
Fix
 62
256
370
-1
 48
1.0
  6
BYLAYER
100
AcDbLine
 10
278.85784999999987
 20
107.08274999999998
 30
0.0
 11
302.37604999999991
 21
79.452849999999998
 31
0.0
  0
LINE
  5
197
100
AcDbEntity
  8
Fix
 62
256
370
-1
 48
1.0
  6
BYLAYER
100
AcDbLine
 10
320.18315000000337
 20
97.774449999997074
 30
0.0
 11
292.56204999999756
 21
121.30725000000186
 31
0.0
  0
LINE
  5
198
100
AcDbEntity
  8
Fix
 62
256
370
-1
 48
1.0
  6
BYLAYER
100
AcDbLine
 10
320.58794999999992
 20
302.97134999999997
 30
0.0
 11
292.95465000000002
 21
279.42364999999995
 31
0.0
  0
LINE
  5
199
100
AcDbEntity
  8
Fix
 62
256
370
-1
 48
1.0
  6
BYLAYER
100
AcDbLine
 10
302.34484999999836
 20
321.39474999999823
 30
0.0
 11
278.82674999999284
 21
293.76264999999159
 31
0.0
  0
LINE
  5
19A
100
AcDbEntity
  8
Fix
 62
256
370
-1
 48
1.0
  6
BYLAYER
100
AcDbLine
 10
97.205703251680902
 20
320.82441750758034
 30
0.0
 11
120.68154999999996
 21
293.27435000000003
 31
0.0
  0
ENDSEC
  0
SECTION
  2
OBJECTS
  0
DICTIONARY
  5
C
100
AcDbDictionary
280
0
281
1
  3
ACAD_GROUP
350
D
  3
ACAD_LAYOUT
350
1A
  3
ACAD_MLINESTYLE
350
17
  3
ACAD_PLOTSETTINGS
350
19
  3
ACAD_PLOTSTYLENAME
350
E
  3
AcDbVariableDictionary
350
19B
  3
QCAD_OBJECTS
350
19C
  0
DICTIONARY
  5
D
100
AcDbDictionary
280
0
281
1
  0
ACDBDICTIONARYWDFLT
  5
E
100
AcDbDictionary
281
1
  3
Normal
350
F
100
AcDbDictionaryWithDefault
340
F
  0
ACDBPLACEHOLDER
  5
F
  0
DICTIONARY
  5
17
100
AcDbDictionary
280
0
281
1
  3
Standard
350
18
  0
MLINESTYLE
  5
18
100
AcDbMlineStyle
  2
STANDARD
 70
0
  3

 62
256
 51
90.0
 52
90.0
 71
2
 49
0.5
 62
256
  6
BYLAYER
 49
-0.5
 62
256
  6
BYLAYER
  0
DICTIONARY
  5
19
100
AcDbDictionary
280
0
281
1
  0
DICTIONARY
  5
1A
100
AcDbDictionary
281
1
  3
Layout1
350
1E
  3
Layout2
350
26
  3
Model
350
22
  0
LAYOUT
  5
1E
100
AcDbPlotSettings
  1

  2
none_device
  4

  6

 40
0.0
 41
0.0
 42
0.0
 43
0.0
 44
0.0
 45
0.0
 46
0.0
 47
0.0
 48
0.0
 49
0.0
140
0.0
141
0.0
142
1.0
143
1.0
 70
688
 72
0
 73
0
 74
5
  7

 75
16
147
1.0
148
0.0
149
0.0
100
AcDbLayout
  1
Layout1
 70
1
 71
1
 10
0.0
 20
0.0
 11
420.0
 21
297.0
 12
0.0
 22
0.0
 32
0.0
 14
100000000000000000000.0
 24
100000000000000000000.0
 34
100000000000000000000.0
 15
-100000000000000000000.0
 25
-100000000000000000000.0
 35
-100000000000000000000.0
146
0.0
 13
0.0
 23
0.0
 33
0.0
 16
1.0
 26
0.0
 36
0.0
 17
0.0
 27
1.0
 37
0.0
 76
0
330
1B
  0
LAYOUT
  5
22
100
AcDbPlotSettings
  1

  2
none_device
  4

  6

 40
0.0
 41
0.0
 42
0.0
 43
0.0
 44
0.0
 45
0.0
 46
0.0
 47
0.0
 48
0.0
 49
0.0
140
0.0
141
0.0
142
1.0
143
1.0
 70
1712
 72
0
 73
0
 74
0
  7

 75
0
147
1.0
148
0.0
149
0.0
100
AcDbLayout
  1
Model
 70
1
 71
0
 10
0.0
 20
0.0
 11
12.0
 21
9.0
 12
0.0
 22
0.0
 32
0.0
 14
0.0
 24
0.0
 34
0.0
 15
0.0
 25
0.0
 35
0.0
146
0.0
 13
0.0
 23
0.0
 33
0.0
 16
1.0
 26
0.0
 36
0.0
 17
0.0
 27
1.0
 37
0.0
 76
0
330
1F
  0
LAYOUT
  5
26
100
AcDbPlotSettings
  1

  2
none_device
  4

  6

 40
0.0
 41
0.0
 42
0.0
 43
0.0
 44
0.0
 45
0.0
 46
0.0
 47
0.0
 48
0.0
 49
0.0
140
0.0
141
0.0
142
1.0
143
1.0
 70
688
 72
0
 73
0
 74
5
  7

 75
16
147
1.0
148
0.0
149
0.0
100
AcDbLayout
  1
Layout2
 70
1
 71
2
 10
0.0
 20
0.0
 11
12.0
 21
9.0
 12
0.0
 22
0.0
 32
0.0
 14
0.0
 24
0.0
 34
0.0
 15
0.0
 25
0.0
 35
0.0
146
0.0
 13
0.0
 23
0.0
 33
0.0
 16
1.0
 26
0.0
 36
0.0
 17
0.0
 27
1.0
 37
0.0
 76
0
330
23
  0
DICTIONARY
  5
19B
100
AcDbDictionary
281
1
  3
DIMASSOC
350
19E
  3
HIDETEXT
350
19D
  0
DICTIONARYVAR
  5
19D
100
DictionaryVariables
280
0
  1
2
  0
DICTIONARYVAR
  5
19E
100
DictionaryVariables
280
0
  1
1
  0
DICTIONARY
  5
19C
100
AcDbDictionary
281
1
  3
ColorSettings/BackgroundColor
350
19F
  3
ColorSettings/ColorMode
350
1A0
  3
Grid/DisplayGrid00
350
1A1
  3
Grid/DisplayGrid01
350
1A2
  3
Grid/DisplayGrid02
350
1A3
  3
Grid/DisplayGrid03
350
1A4
  3
Grid/GridSpacingX00
350
1A5
  3
Grid/GridSpacingX01
350
1A6
  3
Grid/GridSpacingX02
350
1A7
  3
Grid/GridSpacingX03
350
1A8
  3
Grid/GridSpacingY00
350
1A9
  3
Grid/GridSpacingY01
350
1AA
  3
Grid/GridSpacingY02
350
1AB
  3
Grid/GridSpacingY03
350
1AC
  3
Grid/IsometricGrid00
350
1AD
  3
Grid/IsometricGrid01
350
1AE
  3
Grid/IsometricGrid02
350
1AF
  3
Grid/IsometricGrid03
350
1B0
  3
Grid/IsometricProjection00
350
1B1
  3
Grid/IsometricProjection01
350
1B2
  3
Grid/IsometricProjection02
350
1B3
  3
Grid/IsometricProjection03
350
1B4
  3
Grid/MetaGridSpacingX00
350
1B5
  3
Grid/MetaGridSpacingX01
350
1B6
  3
Grid/MetaGridSpacingX02
350
1B7
  3
Grid/MetaGridSpacingX03
350
1B8
  3
Grid/MetaGridSpacingY00
350
1B9
  3
Grid/MetaGridSpacingY01
350
1BA
  3
Grid/MetaGridSpacingY02
350
1BB
  3
Grid/MetaGridSpacingY03
350
1BC
  3
MultiPageSettings/Columns
350
1BD
  3
MultiPageSettings/GlueMarginsBottom
350
1BE
  3
MultiPageSettings/GlueMarginsLeft
350
1BF
  3
MultiPageSettings/GlueMarginsRight
350
1C0
  3
MultiPageSettings/GlueMarginsTop
350
1C1
  3
MultiPageSettings/PrintCropMarks
350
1C2
  3
MultiPageSettings/Rows
350
1C3
  3
PageSettings/OffsetX
350
1C4
  3
PageSettings/OffsetY
350
1C5
  3
PageSettings/PageOrientation
350
1C6
  3
PageSettings/PaperHeight
350
1C7
  3
PageSettings/PaperWidth
350
1C8
  3
PageSettings/Scale
350
1C9
  3
PageSettings/ShowPaperBorders
350
1CA
  3
QCADVersion
350
1CB
  3
UnitSettings/PaperUnit
350
1CC
  3
ViewportCenter
350
1CD
  3
ViewportHeight
350
1CE
  3
ViewportWidth
350
1CF
  0
XRECORD
  5
19F
330
19C
100
AcDbXrecord
280
1
1000
White
  0
XRECORD
  5
1A0
330
19C
100
AcDbXrecord
280
1
1000
FullColor
  0
XRECORD
  5
1A1
330
19C
100
AcDbXrecord
280
1
290
1
  0
XRECORD
  5
1A2
330
19C
100
AcDbXrecord
280
1
290
1
  0
XRECORD
  5
1A3
330
19C
100
AcDbXrecord
280
1
290
1
  0
XRECORD
  5
1A4
330
19C
100
AcDbXrecord
280
1
290
1
  0
XRECORD
  5
1A5
330
19C
100
AcDbXrecord
280
1
1000
auto
  0
XRECORD
  5
1A6
330
19C
100
AcDbXrecord
280
1
1000
auto
  0
XRECORD
  5
1A7
330
19C
100
AcDbXrecord
280
1
1000
auto
  0
XRECORD
  5
1A8
330
19C
100
AcDbXrecord
280
1
1000
auto
  0
XRECORD
  5
1A9
330
19C
100
AcDbXrecord
280
1
1000
auto
  0
XRECORD
  5
1AA
330
19C
100
AcDbXrecord
280
1
1000
auto
  0
XRECORD
  5
1AB
330
19C
100
AcDbXrecord
280
1
1000
auto
  0
XRECORD
  5
1AC
330
19C
100
AcDbXrecord
280
1
1000
auto
  0
XRECORD
  5
1AD
330
19C
100
AcDbXrecord
280
1
290
0
  0
XRECORD
  5
1AE
330
19C
100
AcDbXrecord
280
1
290
0
  0
XRECORD
  5
1AF
330
19C
100
AcDbXrecord
280
1
290
0
  0
XRECORD
  5
1B0
330
19C
100
AcDbXrecord
280
1
290
0
  0
XRECORD
  5
1B1
330
19C
100
AcDbXrecord
280
1
 90
65537
  0
XRECORD
  5
1B2
330
19C
100
AcDbXrecord
280
1
 90
65537
  0
XRECORD
  5
1B3
330
19C
100
AcDbXrecord
280
1
 90
65537
  0
XRECORD
  5
1B4
330
19C
100
AcDbXrecord
280
1
 90
65537
  0
XRECORD
  5
1B5
330
19C
100
AcDbXrecord
280
1
1000
auto
  0
XRECORD
  5
1B6
330
19C
100
AcDbXrecord
280
1
1000
auto
  0
XRECORD
  5
1B7
330
19C
100
AcDbXrecord
280
1
1000
auto
  0
XRECORD
  5
1B8
330
19C
100
AcDbXrecord
280
1
1000
auto
  0
XRECORD
  5
1B9
330
19C
100
AcDbXrecord
280
1
1000
auto
  0
XRECORD
  5
1BA
330
19C
100
AcDbXrecord
280
1
1000
auto
  0
XRECORD
  5
1BB
330
19C
100
AcDbXrecord
280
1
1000
auto
  0
XRECORD
  5
1BC
330
19C
100
AcDbXrecord
280
1
1000
auto
  0
XRECORD
  5
1BD
330
19C
100
AcDbXrecord
280
1
 90
1
  0
XRECORD
  5
1BE
330
19C
100
AcDbXrecord
280
1
 40
10.0
  0
XRECORD
  5
1BF
330
19C
100
AcDbXrecord
280
1
 40
10.0
  0
XRECORD
  5
1C0
330
19C
100
AcDbXrecord
280
1
 40
10.0
  0
XRECORD
  5
1C1
330
19C
100
AcDbXrecord
280
1
 40
10.0
  0
XRECORD
  5
1C2
330
19C
100
AcDbXrecord
280
1
290
0
  0
XRECORD
  5
1C3
330
19C
100
AcDbXrecord
280
1
 90
1
  0
XRECORD
  5
1C4
330
19C
100
AcDbXrecord
280
1
 40
0.0
  0
XRECORD
  5
1C5
330
19C
100
AcDbXrecord
280
1
 40
0.0
  0
XRECORD
  5
1C6
330
19C
100
AcDbXrecord
280
1
1000
Portrait
  0
XRECORD
  5
1C7
330
19C
100
AcDbXrecord
280
1
 40
297.0
  0
XRECORD
  5
1C8
330
19C
100
AcDbXrecord
280
1
 40
210.0
  0
XRECORD
  5
1C9
330
19C
100
AcDbXrecord
280
1
1000
1:1
  0
XRECORD
  5
1CA
330
19C
100
AcDbXrecord
280
1
290
1
  0
XRECORD
  5
1CB
330
19C
100
AcDbXrecord
280
1
1000
3.23.0
  0
XRECORD
  5
1CC
330
19C
100
AcDbXrecord
280
1
 90
4
  0
XRECORD
  5
1CE
330
19C
100
AcDbXrecord
280
1
 40
205.67457791999945
  0
XRECORD
  5
1CF
330
19C
100
AcDbXrecord
280
1
 40
424.24860671999886
  0
ENDSEC
  0
EOF
